<svg width="25" height="25" viewBox="0 0 25 25" fill="none" xmlns="http://www.w3.org/2000/svg">
<g clip-path="url(#clip0_170_761)">
<path fill-rule="evenodd" clip-rule="evenodd" d="M5.54395 0.9985C6.18328 0.359171 7.0504 0 7.95455 0H17.0455C17.9496 0 18.8167 0.359171 19.456 0.9985C20.0954 1.63783 20.4545 2.50494 20.4545 3.40909V11.3636H21.5909C22.4951 11.3636 23.3622 11.7228 24.0015 12.3621C24.6408 13.0015 25 13.8686 25 14.7727V21.5909C25 22.4951 24.6408 23.3622 24.0015 24.0015C23.3622 24.6408 22.4951 25 21.5909 25H3.40909C2.50494 25 1.63783 24.6408 0.9985 24.0015C0.359171 23.3622 0 22.4951 0 21.5909V11.3636C0 10.4595 0.359171 9.59237 0.9985 8.95305C1.63783 8.31372 2.50494 7.95455 3.40909 7.95455H4.54545V3.40909C4.54545 2.50494 4.90462 1.63783 5.54395 0.9985ZM4.54545 10.2273H3.40909C3.10771 10.2273 2.81867 10.347 2.60556 10.5601C2.39245 10.7732 2.27273 11.0623 2.27273 11.3636V21.5909C2.27273 21.8923 2.39245 22.1813 2.60556 22.3944C2.81867 22.6075 3.10771 22.7273 3.40909 22.7273H4.54545V10.2273ZM6.81818 22.7273V3.40909C6.81818 3.10771 6.93791 2.81867 7.15101 2.60556C7.36412 2.39245 7.65316 2.27273 7.95455 2.27273H17.0455C17.3468 2.27273 17.6359 2.39245 17.849 2.60556C18.0621 2.81867 18.1818 3.10771 18.1818 3.40909V22.7273H6.81818ZM20.4545 22.7273H21.5909C21.8923 22.7273 22.1813 22.6075 22.3944 22.3944C22.6075 22.1813 22.7273 21.8923 22.7273 21.5909V14.7727C22.7273 14.4713 22.6075 14.1823 22.3944 13.9692C22.1813 13.7561 21.8923 13.6364 21.5909 13.6364H20.4545V22.7273ZM12.5 4.54545C13.1276 4.54545 13.6364 5.05422 13.6364 5.68182V6.81818H14.7727C15.4003 6.81818 15.9091 7.32695 15.9091 7.95455C15.9091 8.58214 15.4003 9.09091 14.7727 9.09091H13.6364V10.2273C13.6364 10.8549 13.1276 11.3636 12.5 11.3636C11.8724 11.3636 11.3636 10.8549 11.3636 10.2273V9.09091H10.2273C9.59968 9.09091 9.09091 8.58214 9.09091 7.95455C9.09091 7.32695 9.59968 6.81818 10.2273 6.81818H11.3636V5.68182C11.3636 5.05422 11.8724 4.54545 12.5 4.54545ZM9.09091 14.7727C9.09091 14.1451 9.59968 13.6364 10.2273 13.6364H14.7727C15.4003 13.6364 15.9091 14.1451 15.9091 14.7727C15.9091 15.4003 15.4003 15.9091 14.7727 15.9091H10.2273C9.59968 15.9091 9.09091 15.4003 9.09091 14.7727ZM9.09091 19.3182C9.09091 18.6906 9.59968 18.1818 10.2273 18.1818H14.7727C15.4003 18.1818 15.9091 18.6906 15.9091 19.3182C15.9091 19.9458 15.4003 20.4545 14.7727 20.4545H10.2273C9.59968 20.4545 9.09091 19.9458 9.09091 19.3182Z" fill="#44475C"/>
</g>
<defs>
<clipPath id="clip0_170_761">
<rect width="25" height="25" fill="white"/>
</clipPath>
</defs>
</svg>
