<svg xmlns="http://www.w3.org/2000/svg" width="148" height="170.1" viewBox="0 0 168.68 170.1"><title>VIYA MENSTRUAL HEALTH FAQS</title><g style="isolation: isolate"><g><ellipse cx="84.34" cy="121.41" rx="84.34" ry="48.69" fill="#0e869b" style="mix-blend-mode: multiply"/><ellipse cx="84.34" cy="109.16" rx="84.34" ry="48.69" fill="#fcc"/><g><g><path d="M38.43,97.93a6.72,6.72,0,0,0-.4-.75c0-.45.06-.9,0-1.36-.06-3.3-1.66-6-3.46-8.7-1.42-2.11-3.34-4.34-6.09-4.36a4.85,4.85,0,0,0-1.31.16l-.08-.06a11.52,11.52,0,0,0-7.69-2.17,4.6,4.6,0,0,0-3.23,1.79c-.87-.86-2.53-.88-3.67-.75A9.21,9.21,0,0,0,7,84.67,14.24,14.24,0,0,0,3.13,92.2a28.17,28.17,0,0,0-2.21,8.26A17.53,17.53,0,0,0,1,104.61c-1.26,1.29-1.1,3.52-.65,5.09a14.66,14.66,0,0,0,9.32,9.57,8.46,8.46,0,0,0,1.64,2.83,10.32,10.32,0,0,0,8.36,3.1,13.12,13.12,0,0,0,5.18-1.27,5.13,5.13,0,0,0,5.2-.07c4-2.52,8.21-6.62,6.61-13.14C39.35,110.23,40.36,102.1,38.43,97.93Z" fill="#ed6b8a"/><path d="M34.3,109a9.77,9.77,0,0,0,2.82-6.53c0-1.78-.61-4.25-2.2-5.31.53-3.26-1.12-7.34-2.43-9.82-.64-1.22-2.05-3.72-3.75-3.7a1.35,1.35,0,0,0-1.35,1.16c-2.05-2.25-5.71-4.33-8.51-2.79a7.44,7.44,0,0,0-5.69-.09A8.57,8.57,0,0,0,9.49,85c-2-.09-4.24,1.89-5.26,3.33A8.49,8.49,0,0,0,2.89,95l-.12.13c-1.5,2-2,5.13-2.06,7.5,0,2.09.16,4.84,1.3,6.68a3,3,0,0,0,.83.86,4.88,4.88,0,0,0,.06,1.48A7,7,0,0,0,6,116,8.12,8.12,0,0,0,7.8,118.7a9.83,9.83,0,0,0,6.92,2.66,2.4,2.4,0,0,0,.06,1c.54,2,3.1,2.44,4.88,2.33a9.58,9.58,0,0,0,6.13-2.78,2.74,2.74,0,0,0,1,.75c1.92.74,4-1,5.07-2.41A14.64,14.64,0,0,0,34.71,113,6.6,6.6,0,0,0,34.3,109Z" fill="#f9879f"/><path d="M32.58,111.29a14.61,14.61,0,0,0-.38-4c1.41-1.2,1.37-3.88,1.21-5.46-.18-1.84-.34-5-1.7-6.45A1.72,1.72,0,0,0,31,95c1.29-2.12-.39-6.88-1.29-8.43s-4.79-5.15-6.28-3.07a5.91,5.91,0,0,0-4.07-1.31,8.81,8.81,0,0,0-5.85,2.56c-1.15-1.53-5.65,1.17-6.48,2s-2,2.58-1.64,4L5,90.92a5.85,5.85,0,0,0-2.06,2.35c-.59,1.19-1.12,3.58,0,4.65a11.25,11.25,0,0,0-.68,2.44c-.28,2.94-.32,6.16,1.64,8.53A4.65,4.65,0,0,0,4.1,110a9,9,0,0,0,.9,1.86,1.8,1.8,0,0,0-.47.57A3.61,3.61,0,0,0,5.11,116a6.84,6.84,0,0,0,4,2.37,12.41,12.41,0,0,0,2,.43A8.5,8.5,0,0,0,13.7,122c1.67.82,4.46.58,6.47-.46a1.47,1.47,0,0,0,.3.68c.85,1,2.82.79,3.94.57a6.74,6.74,0,0,0,4.9-4.93,7.26,7.26,0,0,0,2.28-2.1A8.66,8.66,0,0,0,32.58,111.29Z" fill="#ffa1b1"/><g><path d="M28.67,108.21a8,8,0,0,0,1.22-3.45,9.19,9.19,0,0,0-.55-5.38,4.18,4.18,0,0,0,.51-1.72,11.49,11.49,0,0,0-1.21-7.33,7.29,7.29,0,0,0-4.88-3.69,1.7,1.7,0,0,0-1.7.44,7.21,7.21,0,0,0-3.84-2.63,2.58,2.58,0,0,0-2.49.37,3.19,3.19,0,0,0-.53-.73c-1.13-1.17-2.91-.76-4.21-.14-1.64.78-3.58,3-3.49,5L7.26,89a8.49,8.49,0,0,0-3.5,4.58,12.87,12.87,0,0,0-1,6.47,5.64,5.64,0,0,0,.6,1.81c-2.21,3.45.51,11.62,3.72,12.68.4,2.55,4.27,5.58,7.23,5.22a7.43,7.43,0,0,0,6.3,0,1.87,1.87,0,0,0,1.27.35,6.48,6.48,0,0,0,4.53-2.43C28.42,115.31,29.64,111.34,28.67,108.21Z" fill="#ed6b8a"/><path d="M22,89.79Z" fill="#ed6b8a"/></g><path d="M26.94,108.34c0-1.35-.09-4.15-1.27-5.37a7.1,7.1,0,0,0,.59-6.76,5.89,5.89,0,0,0-1.75-2.07c-.39-2.59-2.82-6.09-5.08-6.09-2.07-1.66-5-2.1-6.93-.15a4.57,4.57,0,0,0-3.87.62c-1.17.81-2.44,2.76-1.91,4.25-.93.54-1.12,2.13-1.26,3.13a6.8,6.8,0,0,0,.5,4.16c-1.67.86-1.88,4.21-.53,5.85-.89.93-.33,3.53.06,4.43.54,1.23,1.9,3.49,3.45,3.6a6.11,6.11,0,0,0,2.2,2.28c.94.58,3.08,1.22,4.26.59,2,1.68,5.75,1,7.53-.77a4,4,0,0,0,1.17-3C26.22,112.67,26.87,110.22,26.94,108.34Z" fill="#f9879f"/><path d="M22.71,107.46a5.77,5.77,0,0,0-.28-8.5c1-1.76.56-6.53-2.56-7.56a4.5,4.5,0,0,0-3.76-2.05c-2.77-1.37-8.2,1-8.56,4.19C6.17,94.2,5,96.62,4.67,97.62A10.21,10.21,0,0,0,4.38,103,8.34,8.34,0,0,0,4,106.88c.42,1.79,2.26,4.2,4.3,4.25a4.77,4.77,0,0,0,3.31,3.36,4.63,4.63,0,0,0,3.19-.24,6.16,6.16,0,0,0,2,.37,6,6,0,0,0,4.56-1.86,6.17,6.17,0,0,0,1.49-5A2.38,2.38,0,0,0,22.71,107.46Z" fill="#ffa1b1"/><path d="M21.54,103.24a8.07,8.07,0,0,0-1.17-3.94c1.18-1.69-.31-4.22-1.37-4.75.86-1.58-2-4-4.48-3.13-2.21-.84-5.69.4-6.14,2.86a4.56,4.56,0,0,0-.88.92,3.9,3.9,0,0,0-.25,3.66c-2.12.73-2.12,4.8-.56,6.68a2.44,2.44,0,0,0-1.1,2.29A4.27,4.27,0,0,0,7.07,111a9.51,9.51,0,0,0,4,1.82,1.73,1.73,0,0,0,1.48,1.41,7,7,0,0,0,4.83-1.45,7.54,7.54,0,0,0,3-4.06,2.35,2.35,0,0,0,0-1A9,9,0,0,0,21.54,103.24Z" fill="#ed6b8a"/><path d="M18.28,99.08a3.91,3.91,0,0,0-.2-2.46c-.37-1.09-1.74-3.73-3.22-3.57a.11.11,0,0,0-.08,0,1.73,1.73,0,0,0-1,.39,1.92,1.92,0,0,0-1-.21A3.88,3.88,0,0,0,10.09,95,4.8,4.8,0,0,0,9,98.58a3.58,3.58,0,0,0,.14.59c-1.17.28-2.06,2.21-2,3.23a6.45,6.45,0,0,0,1.4,3.88,3,3,0,0,0,.31,4c1,.89,2.47,1.92,3.43,1,1,.85,3,.2,3.76-.14,2.14-1,2.71-3.28,2.27-5.43C19.7,104.55,19.78,100.55,18.28,99.08Z" fill="#f9879f"/><path d="M16.39,103.66a4.75,4.75,0,0,0,.71-1.18c.39-.87.47-5.16-1.25-5,.38-1.92-1.63-3.93-2.86-2.63-.35-.62-1.35-.08-2,1-.27.46-.9,1.56-.44,2.15A3.63,3.63,0,0,0,9,100.16a4.45,4.45,0,0,0,.12,2.37,4.1,4.1,0,0,0-.54,3.19,3.52,3.52,0,0,0,1.19,1.84,1.56,1.56,0,0,0,.18,1.93,1.94,1.94,0,0,0,1.66.72,4.2,4.2,0,0,0,1.87-.26c1,.57,2.18-.58,2.6-1.11A4.74,4.74,0,0,0,16.39,103.66Z" fill="#ffa1b1"/><path d="M14.72,105a14.07,14.07,0,0,1-.55-2.37,3.05,3.05,0,0,1,1.13-2.29,6.07,6.07,0,0,1-1.06-1.76c-.41-.76-.78-1.78.07-2.25-1.78-.83-2.94,1-3.25,1.89A3.25,3.25,0,0,0,11,100c-.88.57-1.32,2.34-1.39,3.16s.31,2.78,1.36,3.24a3.16,3.16,0,0,0,.28,1.06c.37.79,1.29,1.87,2.25,1.78A6.07,6.07,0,0,1,14.72,105Z" fill="#ed6b8a"/><path d="M12.41,98a2.63,2.63,0,0,0-1.78,2.38c.09,1.72.67,2,.67,2a3,3,0,0,0-.72,2.64,2.27,2.27,0,0,0,2,1.5,6.76,6.76,0,0,1,1-4.06A7.22,7.22,0,0,1,12.41,98Z" fill="#e2567e"/></g><g><path d="M38,128.43l-3.51,3.86c-.92,1-1.44,1.69-1.14,2.34s1.38.64,1.38.64a17.14,17.14,0,0,0,2.61.13c1.3-.05,1-1,1.9-1.76s2.52-1.67,2.15-3.3S38,128.43,38,128.43Z" fill="#9191ff"/><path d="M31.2,126.08s-3.44,2.69-4.11,3.2-.76,2.59.44,2.82c1.69.33,2-.5,2-.5a3.34,3.34,0,0,0,2.37-1,6.43,6.43,0,0,1,2-1.48,2,2,0,0,0,.71-2.59C34,125.31,31.2,126.08,31.2,126.08Z" fill="#9191ff"/><path d="M45.63,97.92s-.74-.27-1.6.71-1.09,2.6-2.07,4.13a34.84,34.84,0,0,1-4.38,3.69c-2.13,1.38-1.08,3.29.71,3,1.22-.23,4.45-2.2,6.7-4.37,1.39.94,2.46-1.56,2.49-2.63C47.6,98.34,45.63,97.92,45.63,97.92Z" fill="#b27f6b"/><path d="M47.26,93.4s1.39-1.71,2.73-1.13a3.17,3.17,0,0,1,1.86,3.28c-.05,1.51,1.24,1.3,1.24,1.3s.28,1.17-.5,1.52-.84-.05-.84-.05.08,1.44.8,1.59a2.16,2.16,0,0,0,1.51-.48s0,2.13-1.51,1.75A3.43,3.43,0,0,1,50,97.81C49.91,96,47.26,93.4,47.26,93.4Z" fill="#4d194f"/><path d="M55.39,103c2.1,3.76,1.38,9.75.54,13.83-.52,2.55-1,4.39-1,4.39a57.83,57.83,0,0,0-6.89-4,26.15,26.15,0,0,1-4.18-2.24,10,10,0,0,1,1.27-2.78,2.31,2.31,0,0,1,1.14-.78s-.78-.48.18-1.38c-1.2-.5-.76-2.21-1.44-3.54-1.1-2.14-1.37-4.49-.8-5.9.19-.44.27-1,1.61-1.12C48.63,99.28,54,100.44,55.39,103Z" fill="#9191ff"/><path d="M49.57,98.34c-1.07,0-1.69,1.65-2.58,1.43.07.79.06.77-.47,2.63a1.42,1.42,0,0,0,1.61,2c1.28-.1,2.27-2.31,3.22-3.84C51,99.94,49.67,99,49.57,98.34Z" fill="#b27f6b"/><path d="M43.6,96.44A5.38,5.38,0,0,1,47.12,96a6.57,6.57,0,0,1,2,.6,9.51,9.51,0,0,1,0,1.19c0,1.8-.22,3.76-2,4.9-1.5.93-2.73-.67-3.23-1.8C43.23,99.55,42.72,96.81,43.6,96.44Z" fill="#c69076"/><path d="M50.26,94.55a2.22,2.22,0,0,0-2.91-1.32,3.29,3.29,0,0,0-3.08,0,3.4,3.4,0,0,0-1.76,2.84,2.05,2.05,0,0,0-.42,1.23,1.89,1.89,0,0,0,1,1.83c.81.23,1.51-.86,2-1.36a4.81,4.81,0,0,0,.42-.54,2.2,2.2,0,0,0,1.54.72,6.19,6.19,0,0,0,3.28,1.48A5.43,5.43,0,0,0,50.26,94.55Z" fill="#703077"/><path d="M47.71,99.05s.34-1.21,1.1-.54-.31,2-.31,2Z" fill="#c69076"/><path d="M49.18,117.66a37.63,37.63,0,0,0-3.55-2.34c-.88-.85-1.79-1.66-2.7-2.47a23.47,23.47,0,0,0-3.53-2.93,3,3,0,0,0-3.75.49c-.69.71-1.28,2.92-1.57,3.84-.46,1.47-2.69,8.55-3.63,11.77a5.53,5.53,0,0,0,5.15,1c.74-1.91,1.3-3.58,1.9-5.29.27-.77.56-1.55.83-2.35,1.92,1.68,4.4,3.4,6.61,3.17S48.34,120.2,49.18,117.66Z" fill="#d9e2ff"/><path d="M54.89,121.09a35.21,35.21,0,0,0-3.55-2.34c-.88-.85-1.78-1.66-2.7-2.47a22.51,22.51,0,0,0-3.53-2.93,2.94,2.94,0,0,0-3.74.49c-.69.71-1.28,2.92-1.57,3.84-.46,1.47-2.44,8.24-3.38,11.46.52,1.55,3.74,2.4,5.24,1.82.74-1.91,1-4.07,1.56-5.78.27-.77.55-2.31.81-3.11,1.92,1.68,4.95,3.86,7.15,3.63S54.05,123.63,54.89,121.09Z" fill="#eeefff"/><path d="M54,102.15s-.73-.28-1.59.7a8,8,0,0,0-2.14,3.44c-1.66,1.62-3.56,4.51-4.57,5.17-2.12,1.38-.29,3.66,1.49,3.33,1.22-.23,3.93-3.36,6.18-5.53,1.39.94,2.45-1.55,2.48-2.62C56,102.57,54,102.15,54,102.15Z" fill="#c69076"/><path d="M46.76,111.12s-5.32-1.75-8.07-2.52c-2.2-.62-2.74-.68-3.44-.06-.5-.32-1.19.41-.83.8-.32.39-.83.92-.23,1.23-.62.6.23,1.1.81,1,.92-.22,3-.62,3-.62a44.85,44.85,0,0,0,4.92,3,8.53,8.53,0,0,0,2.8.74c.78,0,1.5.35,1.67,0C48.05,113.15,46.76,111.12,46.76,111.12Z" fill="#c69076"/><path d="M36.91,107a1.14,1.14,0,0,0-.51,1.21c.3.17,2.33.65,3.55,1.06s3.53,1.33,3.53,1.33.28-.88-.53-1.08c-1.47-.36-2.43-1.64-3.71-2.18A3.18,3.18,0,0,0,36.91,107Z" fill="#b27f6b"/><path d="M41.54,109.71a4.44,4.44,0,0,0,1.11,2c.61.59,1.08,1,1.69,1.61s.74.81,1.07.8c.17,0,.45-.2.07-.65s-.65-.87-.65-.87a7.48,7.48,0,0,0,1.39.69c.23.06,1,.34.7-.29.62.18.16-.33,0-.53-.28-.36-1.07-1-1.12-1l.7.18a9.21,9.21,0,0,1,1,.42c.35,0,.66-.3.22-.55s-.33-.34-1-.65c-.53-.23-1.38-.62-1.72-.82a11.9,11.9,0,0,0-3.44-.51Z" fill="#b27f6b"/></g><g><path d="M26.05,136a5.92,5.92,0,0,0-2.72-3.51c-1.4-.63-5.17-.4-4.89,2.54-1.85.55-3,1.52-2,3.45.47.86,3.17,1.4,5.36,1.82,1,.19,3.7.14,6.31.53C27.21,138.7,26.28,136.81,26.05,136Z" fill="#ffa1b1"/><path d="M18.44,135.05a6.5,6.5,0,0,1,4.32,1.43,26.62,26.62,0,0,1,3.84,3.15,17.91,17.91,0,0,0,1.52,1.22A22.21,22.21,0,0,1,26,138c-.5-.81-.88-1.92-1.28-2.6-1.47-2.54-3.32-2.58-4.84-2A2.38,2.38,0,0,0,18.44,135.05Z" fill="#f9879f"/><path d="M27.39,140.75s-4.17-2.32-6.08-3.06-3.34-.52-3.78.24a1.26,1.26,0,0,0-.16,1.25,17.45,17.45,0,0,0,3.79,1.18A29.45,29.45,0,0,0,27.39,140.75Z" fill="#f9879f"/><path d="M25.08,140.76a51.77,51.77,0,0,1-6-2.28,3.25,3.25,0,0,1-1.68-2.29,2.28,2.28,0,0,0,.15,1.74,4.35,4.35,0,0,0,1.34,1.43,6.61,6.61,0,0,1-2.06-1.25,1.78,1.78,0,0,1-.33-1.63,2,2,0,0,0-.25,1.73c.35.87,1.46,1.65,3.76,2.09A29,29,0,0,0,25.08,140.76Z" fill="#ed6b8a"/><path d="M20,135.2a1.34,1.34,0,0,1,1.46-.76c1.2,0,2.07.92,2.88,2A24.2,24.2,0,0,1,26,139.07a36,36,0,0,0-3.8-2.94A6.44,6.44,0,0,0,20,135.2Z" fill="#ed6b8a"/><path d="M21.31,136.25a4.16,4.16,0,0,0-2.49-.53c-.59,0-.76.45-.38.82s1.78.41,2.52.7,2.23,1.15,2.32.79S22.05,136.62,21.31,136.25Z" fill="#ffbdcb" opacity="0.5"/><path d="M20.32,136.19c-.63-.22-1.33-.48-1.45-.11s.66.4,1.26.56S20.86,136.39,20.32,136.19Z" fill="#ffbdcb"/></g><g><path d="M66.11,124.38a5.84,5.84,0,0,0-2.72-3.51c-1.39-.63-5.16-.4-4.88,2.54-1.85.55-3,1.52-2,3.45.47.86,3.17,1.4,5.36,1.82,1,.19,3.69.14,6.3.53C67.28,127.06,66.34,125.17,66.11,124.38Z" fill="#ffa1b1"/><path d="M58.51,123.41a6.47,6.47,0,0,1,4.31,1.43A27,27,0,0,1,66.67,128a16.81,16.81,0,0,0,1.51,1.22,22.75,22.75,0,0,1-2.08-2.84c-.51-.81-.89-1.92-1.28-2.6-1.47-2.54-3.32-2.58-4.84-2A2.38,2.38,0,0,0,58.51,123.41Z" fill="#f9879f"/><path d="M67.46,129.11s-4.17-2.32-6.09-3.06-3.33-.52-3.78.24a1.27,1.27,0,0,0-.15,1.25,17.45,17.45,0,0,0,3.79,1.18A29.45,29.45,0,0,0,67.46,129.11Z" fill="#f9879f"/><path d="M65.15,129.12a53.71,53.71,0,0,1-6-2.28,3.25,3.25,0,0,1-1.69-2.29,2.34,2.34,0,0,0,.15,1.74,4.45,4.45,0,0,0,1.35,1.43,6.73,6.73,0,0,1-2.07-1.25,1.8,1.8,0,0,1-.32-1.63,2,2,0,0,0-.25,1.73c.34.87,1.46,1.65,3.76,2.09A28.9,28.9,0,0,0,65.15,129.12Z" fill="#ed6b8a"/><path d="M60.1,123.56a1.34,1.34,0,0,1,1.46-.76c1.19,0,2.07.92,2.88,2a24.92,24.92,0,0,1,1.65,2.64,36,36,0,0,0-3.8-2.94A6.52,6.52,0,0,0,60.1,123.56Z" fill="#ed6b8a"/><path d="M61.37,124.61a4.14,4.14,0,0,0-2.48-.53c-.59,0-.76.45-.38.82s1.78.41,2.51.7,2.24,1.15,2.33.79S62.12,125,61.37,124.61Z" fill="#ffbdcb" opacity="0.5"/><path d="M60.38,124.55c-.62-.22-1.33-.48-1.44-.11s.66.4,1.25.56S60.93,124.75,60.38,124.55Z" fill="#ffbdcb"/></g><g><path d="M55.1,130.9a4.16,4.16,0,0,1,1.78-2.85,3.6,3.6,0,0,1,3-.64,1.54,1.54,0,0,1,1.23,1.45.68.68,0,0,1,.7.18.71.71,0,0,1,0,.68,2.41,2.41,0,0,1,2.59,1.21c.79,1.39.17,3.18-.76,4.33-1.1,1.37-3,1.59-4.65,1.52a10.37,10.37,0,0,1-5.21-1.65A15,15,0,0,0,55.1,130.9Z" fill="#ffa1b1"/><path d="M53.85,135.13a9.73,9.73,0,0,0,1-3.09c.16-1.52,1.45-4.23,4-2.76,1.07.63.66,2.18.66,2.18s1.67-1.28,3-.31.62,3.15-.37,4.19a5.2,5.2,0,0,1-3.85,1.39A8.54,8.54,0,0,1,53.85,135.13Z" fill="#f9879f"/><path d="M57.09,127.92c-1.46,1.38-1.24,3.6-1.52,5.46.44-.95,1.16-2.92,1.88-4.16a3.33,3.33,0,0,1,1.15-1.17,4.29,4.29,0,0,0-.79,1.76,20.18,20.18,0,0,0-.44,2.43c0,.22-.06.45-.11.68.45-.86.62-1.85,1-2.83a4.1,4.1,0,0,1,1-1.42,2,2,0,0,1,.92-.57,4.28,4.28,0,0,0-1.08,1.75c-.25,1-.14,2.13-.31,2.92.35-.46.64-1,1-1.42a5.15,5.15,0,0,1,1.84-1.53,8.33,8.33,0,0,0-1.32,1.64,10.19,10.19,0,0,1-.84,1.42,5,5,0,0,1-1.09,1.06c.19-.09.59-.19.79-.29a18.56,18.56,0,0,0,1.74-1.09,3.52,3.52,0,0,1,2.58-.8c-1.86.62-3.31,2.49-5.26,2.76a8.61,8.61,0,0,0,.88,0,6.32,6.32,0,0,0,2.07-.65,5.48,5.48,0,0,1,2.45-.58c-1.28.37-2.28,2.15-3.55,2.61a5.35,5.35,0,0,1-1.26.28,7,7,0,0,0,4.47-.45A6.89,6.89,0,0,1,58,137a8.7,8.7,0,0,1-2.76-.7A4,4,0,0,1,53.57,135c.94-.19.87-4.18,2.3-6.12A3.53,3.53,0,0,1,57.09,127.92Z" fill="#ed6b8a"/><path d="M54.61,132.31a4.57,4.57,0,0,0,1.41.36,3.47,3.47,0,0,0,1.77-.87,1.53,1.53,0,0,1,2,.15c.43.47,0,1.78.13,2.41a3.65,3.65,0,0,0,.84,1.81,1.9,1.9,0,0,0,1.43.29,8.54,8.54,0,0,1-3.94.57A8.32,8.32,0,0,1,54.57,136a4.74,4.74,0,0,1-1-.92s.31.08.58-.84S54.61,132.31,54.61,132.31Z" fill="#f270a5" opacity="0.3" style="mix-blend-mode: multiply"/><path d="M62.52,130.26c.67-.32,1.44.45,1.66,1.78s-.36,2.31-.83,2.26-.1-.83-.58-1.81S61.4,130.79,62.52,130.26Z" fill="#ffbdcb" opacity="0.5"/><path d="M63.1,130.85c.31-.14.89.86.71,1.64s-.3.59-.71-.25S62.61,131.08,63.1,130.85Z" fill="#ffbdcb"/><path d="M58.92,127.62c.88.1,1.51.34,1.51,1s-.67.32-1.19.08-1.2-.16-1.63-.38S58.19,127.54,58.92,127.62Z" fill="#ffbdcb" opacity="0.5"/></g></g><g><g><g><ellipse cx="28.53" cy="28.68" rx="30.29" ry="17.14" transform="translate(-9.03 43.7) rotate(-66.95)" fill="#bdd0ff"/><polygon points="44.49 38.6 51.23 7.25 42.29 1.93 14.4 55.19 24.55 61.34 44.49 38.6" fill="#bdd0ff"/><path d="M57,22.48C57,37,48.13,53.89,37.24,60.18s-19.73-.39-19.73-14.92,8.83-31.41,19.73-37.7S57,8,57,22.48Z" fill="#d9e2ff"/><g><path d="M48.29,10.91c2.62,2.47,4.23,6.75,4.23,12.46,0,12.48-7.59,27-17,32.39-4,2.33-7.75,2.58-10.66,1.12,3.11,2.92,7.65,3.28,12.73.35,9.36-5.4,17-19.9,17-32.39C54.59,17.75,52.13,12.84,48.29,10.91Z" fill="#bdd0ff"/><path d="M35.57,55.76c9.36-5.4,17-19.91,17-32.39,0-5.71-1.61-10-4.23-12.46C45.38,9.45,41.67,9.7,37.64,12c-9.37,5.4-17,19.91-17,32.39,0,5.71,1.61,10,4.23,12.46C27.82,58.34,31.53,58.09,35.57,55.76Z" fill="#fff"/></g></g><path d="M37.21,33.27,28,57.73a12.89,12.89,0,0,0,7.59-2c6.14-3.55,11.5-11,14.48-19.25Z" fill="#f9879f"/><g><path d="M35.3,34.38c0,1.41.86,2,1.91,1.44a4.57,4.57,0,0,0,1.92-3.65c0-1.41-.86-2.06-1.92-1.45A4.6,4.6,0,0,0,35.3,34.38Z" fill="#4d194f"/><g><polygon points="36.51 21.11 37.21 20.7 37.21 16.1 36.51 16.51 36.51 21.11" fill="#4d194f"/><polygon points="36.51 52.15 37.21 51.75 37.21 45.84 36.51 46.25 36.51 52.15" fill="#4d194f"/></g><g><polygon points="27.43 39.39 27.43 38.45 23.9 40.49 23.76 41.51 27.43 39.39" fill="#4d194f"/><polygon points="50.72 25.94 50.72 25.01 46.29 27.56 46.29 28.5 50.72 25.94" fill="#4d194f"/></g><g><polygon points="31.88 25.67 32.49 24.86 30.89 22.06 30.31 22.92 31.88 25.67" fill="#4d194f"/><polygon points="43.43 45.95 44.04 45.13 41.84 41.28 41.23 42.09 43.43 45.95" fill="#4d194f"/></g><g><polygon points="28.59 32.22 28.95 31.2 26.31 30.63 25.93 31.64 28.59 32.22" fill="#4d194f"/><polygon points="48.58 36.58 48.94 35.56 45.14 34.73 44.78 35.75 48.58 36.58" fill="#4d194f"/></g><g><polygon points="41.49 20.12 40.88 20.01 43.08 13.61 43.69 13.72 41.49 20.12" fill="#4d194f"/><polygon points="29.94 53.74 29.33 53.63 31.53 47.23 32.14 47.35 29.94 53.74" fill="#4d194f"/></g><g><polygon points="44.84 22.96 44.49 22.36 48.32 17.18 48.67 17.79 44.84 22.96" fill="#4d194f"/><polygon points="24.79 50.05 24.55 49.3 28.18 44.39 28.53 45 24.79 50.05" fill="#4d194f"/></g><polygon points="33.36 44.71 37.95 33.47 33.88 26.61 33.32 27.36 36.8 33.51 32.58 44.07 33.36 44.71" fill="#4d194f"/></g></g><g><path d="M64.7,22.1c.15-.64.34-1,.74-1s0,.53,0,1.3c0,.52,0,.83.84,1.78l5.18,5.79-2.06,2a16.66,16.66,0,0,1-3-3.45c-1.28-2.33-1.69-3.81-2.24-4.36s-1.6-.27-2.38-1.69-.69-2.17,0-2.9,1.37.24,1.62.82S64.55,22.71,64.7,22.1Z" fill="#ffc9b6"/><path d="M69.16,34.33c.29.05.82.66,1.34,1.69a5.22,5.22,0,0,1,.55,1.4l3.54-2.31A38.3,38.3,0,0,0,72,32.21C71.87,32.25,69.16,34.33,69.16,34.33Z" fill="#ffc9b6"/><g><path d="M72.08,79.16c0-.75-.19-1.77-.28-2.5a13.33,13.33,0,0,1-2.51.19H69c0,.45,0,.83.06,1.09.06,1-.64.91-2.57.08-1.64-.7-2.92.21-1.6,2a10.82,10.82,0,0,0,3.77,2.58c2.74.87,3.84.6,4.13-.49C72.87,81.64,72.12,79.82,72.08,79.16Z" fill="#ffc9b6"/><path d="M72.35,80.53a5.11,5.11,0,0,0-1.49,1.06c-.5.61-2.45-.09-3.23-.49a4,4,0,0,1-1.84-1.6c-.32-.56,1.06-1.16,1.06-1.16l1.12.23a5.2,5.2,0,0,0-2.36-.8c-1.13,0-2.35.74-1.56,1.8,1.37,1.83,4.17,3,5,3.33,1.14.46,2.44.85,3.47,0C73.28,82.25,72.35,80.53,72.35,80.53Z" fill="#4d194f"/></g><g><path d="M75.59,59.29s1.26,12.48.9,15.08c-.15,1.08-.9,1-2.83.18-1.64-.7-2.92.21-1.6,2a10.5,10.5,0,0,0,3.77,2.57c2.73.87,3.84.61,4.13-.49.13-.48-.76-2.31-.67-3,.55-3.69.56-7.59,1.07-11Z" fill="#ffc9b6"/><path d="M79.57,77.06a4.9,4.9,0,0,0-1.49,1.06c-.51.61-2.45-.1-3.23-.5A3.89,3.89,0,0,1,73,76c-.32-.55,1-1.15,1-1.15l1.12.23a5.07,5.07,0,0,0-2.36-.8c-1.13,0-2.34.74-1.55,1.8,1.36,1.82,4.16,3,5,3.32,1.13.47,2.44.85,3.47,0C80.49,78.78,79.57,77.06,79.57,77.06Z" fill="#4d194f"/></g><path d="M79.53,74.37c.69-3.16,1.49-6,.91-9a8.44,8.44,0,0,0-3.15-4.78c.29-.89,1.67-3.16,1.84-5.47a3,3,0,0,0,1.21-3c-.17-1.25-1.23-5.31-3.1-5a.16.16,0,0,0-.08,0,.23.23,0,0,0-.11,0,27.07,27.07,0,0,1-5.65,2,.32.32,0,0,0-.25.31,27.71,27.71,0,0,0,0,5.9,41.12,41.12,0,0,0,1.62,6.4c-.19,1,1,1.4,1,1.42a31.39,31.39,0,0,1,2.3,6.81,15.38,15.38,0,0,1,.44,3.78C76.67,74.43,78.79,75.26,79.53,74.37Z" fill="#4d194f"/><path d="M73.25,52a7.75,7.75,0,0,1-2.32-.68,4.49,4.49,0,0,1-.69-.44c-1.54,2.79-4.09,5.48-5.5,8.37A6.43,6.43,0,0,0,64,63a1.64,1.64,0,0,0,0,1.82,60.4,60.4,0,0,1,2.87,5.87A31,31,0,0,1,69,77.94c.72.76,2.56.78,3-.1-.19-3.37.64-6.93-.42-10.27-.83-2.63-1.69-3.26-2.87-4,5-2.37,4.65-5.23,5-6a5.2,5.2,0,0,0,2.49-2.5,5.54,5.54,0,0,0,.52-3A13.16,13.16,0,0,1,73.25,52Z" fill="#703077"/><path d="M78.44,45.32c-.13-.84.06-8.36-1.85-10.71-.74-.92-2.52,0-3.21.27a23.66,23.66,0,0,1-2.86,1.29,3.24,3.24,0,0,0-2.25,1.89,12.32,12.32,0,0,0-1.43,5.74,2.44,2.44,0,0,0,2.42,1.93c.31,1.23.27,2.8,1,4-.54.61-1.44.69-.77,1.51-1,.42-.35.94-.43,1.57a7.69,7.69,0,0,0,6.68,1.29C78.48,53,80.22,51.47,79.8,49,79.64,48.12,78.82,47.86,78.44,45.32Z" fill="#1e5b21"/><path d="M70.41,37.74a2,2,0,0,0-2.76-.57c-1.47-.68-3.87-1.94-5.31-2.81.17-1.73-1-7.27-1.89-8.69.12-1-.52-2.07-.43-3.05,0-.57-.34-.56-.47-.37a1.41,1.41,0,0,0-.25.91,1.4,1.4,0,0,1-.37.71c-.82,0-1.24-1-2-1.49s-2.13-1-2.26.57c-.06.73,1,1.69,2,2.3s2,.48,2.16.95c.31,1.18,0,4.46.07,5.66a10.14,10.14,0,0,0,.48,3.93c.37,1.11.92.89,1.55,1.81A11.36,11.36,0,0,0,65.16,41c.93.68,3.51,3,4.84,1.86C71.84,41.26,71.35,39.17,70.41,37.74Z" fill="#ffc9b6"/><path d="M71.83,28.41c-.89-1.17-3.9.22-4,.3a4.92,4.92,0,0,0,0,5.89c1.41,1.74,3.38.79,4.29-.94A5,5,0,0,0,71.83,28.41Z" fill="#ffc9b6"/><path d="M70.35,25.82c1.84.06,3.53.37,4.09,2.95s1.5,4.27-1.25,5.64-4.57,1.3-5.6.72a4.16,4.16,0,0,1-1.31-1.37s1.73-.06,1.88-.93a13,13,0,0,0,.08-2.25s-2.26-.17-2.19-1.34S66.16,25.67,70.35,25.82Z" fill="#4d194f"/></g><path d="M8.77,25.35C8.63,22,6.81,16,6.81,16S5,24.06,4.86,27.61s1,4.13,1.95,3.61S8.91,28.74,8.77,25.35Z" fill="#e2547d"/><path d="M3.92,33.77C3.78,30.38,2,24.44,2,24.44S.15,32.48,0,36s1.05,4.13,2,3.61S4.06,37.16,3.92,33.77Z" fill="#e2547d"/><path d="M14.22,24.23c-.14-3.39-2-9.33-2-9.33s-1.82,8-2,11.59,1,4.13,2,3.61S14.36,27.62,14.22,24.23Z" fill="#e2547d"/></g><g><g><g><path d="M116.36,129.27l.09-.21.15-.39c0-.09.06-.18.1-.27s.08-.23.11-.35.07-.21.1-.32l.09-.33c0-.11,0-.23.08-.34s0-.21.07-.31l.06-.38c0-.09,0-.19.05-.28s0-.29,0-.43a1.64,1.64,0,0,0,0-.23c0-.22,0-.43,0-.65V114a7.4,7.4,0,0,0,0-.83c0-.06,0-.13,0-.2a6.45,6.45,0,0,0-.12-.66.19.19,0,0,1,0-.07,3.93,3.93,0,0,0-.23-.66s0-.07,0-.11-.18-.35-.28-.51l0,0a2.68,2.68,0,0,0-.4-.48h0a2.48,2.48,0,0,0-.45-.35h0l-14.85-8.5a2.83,2.83,0,0,0-.4-.17h0a2.77,2.77,0,0,0-1.49,0l0,0a3.4,3.4,0,0,0-.49.15l-.12,0a4.87,4.87,0,0,0-.56.28L75.8,114.48a7.89,7.89,0,0,0-2.06,1.81,12.47,12.47,0,0,0-2.83,7.53v10.8c0,1.89.61,3.24,1.57,3.87h0L87.25,147a2.8,2.8,0,0,0,2.56.14h0a5.76,5.76,0,0,0,.72-.34l21.93-12.64a9.93,9.93,0,0,0,3.65-4.3l.06-.12C116.24,129.56,116.3,129.42,116.36,129.27Z" fill="#9191ff"/><g><path d="M100.87,101.56a3.16,3.16,0,0,0-3.14.29L75.8,114.48a7.89,7.89,0,0,0-2.06,1.81l20.12,11.62,3.87-2.23a11.14,11.14,0,0,0,4.51-6.59c3.39-1,8.93-2.73,9-2.73s4.46-6.3,4.46-6.3Z" fill="#f9879f"/><path d="M70.91,123.82v10.8c0,1.89.61,3.24,1.57,3.87h0L87.28,147l7-9.1L88,131.27l5.83-3.36L73.74,116.29A12.47,12.47,0,0,0,70.91,123.82Z" fill="#7676f4"/></g><g><path d="M97.73,101.85,75.8,114.48a7.89,7.89,0,0,0-2.06,1.81l20.12,11.62,3.87-2.23a11.14,11.14,0,0,0,4.51-6.59c3.39-1,8.93-2.73,9-2.73s3.56-5,4.32-6.09l-15.55-9A3.66,3.66,0,0,0,97.73,101.85Z" fill="#f9879f"/><path d="M100.87,101.56a2.67,2.67,0,0,0-.84-.27l15.55,9,.14-.21Z" fill="#7676f4"/></g><path d="M112.46,110.29,90.53,122.92c-2.7,1.56-4.89,5.74-4.89,9.34v10.8c0,3.6,2.19,5.26,4.89,3.7l21.93-12.64c2.7-1.56,4.89-5.74,4.89-9.34V114C117.35,110.38,115.16,108.73,112.46,110.29Z" fill="#ffa1b1"/></g><path d="M117.35,124.78V114c0-2.6-1.15-4.17-2.8-4.27-2.41,3.41-7.72,10.32-13,13.59a18.29,18.29,0,0,1-13.08,1.49,12.45,12.45,0,0,0-2.78,7.47v10.8c0,3.27,1.81,4.93,4.17,4,2.74-3.65,7.21-9,11.69-11.72a18.06,18.06,0,0,1,11.71-1.78A12.11,12.11,0,0,0,117.35,124.78Z" fill="#9191ff"/><ellipse cx="94.24" cy="135.75" rx="8.55" ry="4.83" transform="translate(-67.57 169.31) rotate(-66.95)" fill="#4d194f"/><g><g><g><g><path d="M101.63,137.79c-.31-.77-1.4-.8-2.73-1.08.44-.25.53-.54.25-.68a6.36,6.36,0,0,1-2.09-1.32c-1-1-1-1.6-1.76-1.73-.32,0-.79.28-1.06,0a9.4,9.4,0,0,1-1.11-1.61c-.95-1.41-2-2-4.11-.86-1.52.83-2.75,2.63-1.2,4.3a12,12,0,0,0,1,1c.17.21.32.49.08.7s-1.07.61.16,1.88,2.88,2.14,3.64,2c.56-.12.72-.17,1.67.26h0a5.16,5.16,0,0,0,2.3.4C99.51,141,102,138.76,101.63,137.79Z" fill="#d9e2ff"/><path d="M101.56,137.54c-.31-.77-1.4-.8-2.73-1.08.44-.25.53-.53.25-.68A6.36,6.36,0,0,1,97,134.46c-1-1-1-1.6-1.75-1.72-.33-.06-.8.27-1.07,0a9.11,9.11,0,0,1-1.1-1.62c-.95-1.41-2-2-4.12-.86-1.52.83-2.75,2.63-1.2,4.3a13.81,13.81,0,0,0,1,1c.17.2.32.49.08.69s-1.07.61.17,1.88,2.87,2.15,3.63,2c.56-.12.72-.17,1.67.26h0a4.9,4.9,0,0,0,2.3.4C99.44,140.73,102,138.51,101.56,137.54Z" fill="#eeefff"/><path d="M90.59,130.6a3.92,3.92,0,0,0-2.38,1.6,1.88,1.88,0,0,0,.61,2.11c.55.58,1.37,1.52,1.3,1.91s-.27.24-.44.76c-.1.34.81,1.2,1.45,1.68a2.65,2.65,0,0,0,1.53.71c.32,0,.79-.25,1-.16a6.3,6.3,0,0,0,2.73.91c1.43.08,3.82-1,4.11-1.8s-.49-.93-1.51-1.13a2.5,2.5,0,0,1-1.2-.51c-.29-.33.4-.52.16-.77s-1.71-1.4-2.46-2.1c-.44-.42-.93-.12-1.16-.14a1.28,1.28,0,0,1-1-.44,16.81,16.81,0,0,1-1.09-1.65C91.63,130.64,91.21,130.46,90.59,130.6Z" fill="#d9e2ff"/><path d="M96.53,140.17h-.15a5.43,5.43,0,0,1-2.4-.73,2.76,2.76,0,0,0-.35-.17,1,1,0,0,0-.5.06,2.15,2.15,0,0,1-.47.09,2.58,2.58,0,0,1-1.56-.71c-.66-.49-1.44-1.35-1.46-1.72a.59.59,0,0,1,.28-.57c.08-.06.15-.11.16-.19,0-.28-.41-.95-1.3-1.88a1.94,1.94,0,0,1-.61-2.16,3.9,3.9,0,0,1,2.41-1.62h0c.68-.16,1.11.1,1.65,1a18.21,18.21,0,0,0,1.09,1.65,1.23,1.23,0,0,0,1,.41.72.72,0,0,0,.24,0,1,1,0,0,1,1,.18c.38.37.94.83,1.43,1.24s.85.7,1,.87,0,.29-.08.4-.19.23-.07.37a2.38,2.38,0,0,0,1.17.5h0c.73.13,1.31.24,1.5.59a.67.67,0,0,1,0,.59C100.24,139.14,98,140.17,96.53,140.17Zm-3-1,.13,0,.35.18a5.17,5.17,0,0,0,2.36.72c1.38.08,3.77-1,4.06-1.76a.59.59,0,0,0,0-.52c-.17-.31-.76-.42-1.44-.55h0a2.57,2.57,0,0,1-1.23-.53c-.18-.2,0-.37.08-.49s.15-.19.07-.28-.55-.49-1-.86-1-.87-1.44-1.24a.85.85,0,0,0-.88-.16.84.84,0,0,1-.25,0,1.35,1.35,0,0,1-1.08-.45,19,19,0,0,1-1.09-1.66c-.58-1-1-1.08-1.55-.95a3.81,3.81,0,0,0-2.35,1.57,1.86,1.86,0,0,0,.6,2.06c.93,1,1.37,1.64,1.32,1.95a.39.39,0,0,1-.2.25.53.53,0,0,0-.24.5c0,.34.8,1.18,1.43,1.64a2.51,2.51,0,0,0,1.5.7,2.1,2.1,0,0,0,.45-.09A2,2,0,0,1,93.54,139.15Z" fill="#bdd0ff"/></g><path d="M89.72,131.35c-.68.36-1.43,1-1.1,1.8a20.05,20.05,0,0,0,2,2.76,12.16,12.16,0,0,0,3.86,3.35,5.14,5.14,0,0,0,2.22.53,5.44,5.44,0,0,0,2.77-.93c.56-.45.69-.71.44-.94a7.41,7.41,0,0,0-1.61-.54A13.62,13.62,0,0,1,94.53,135a14.32,14.32,0,0,1-2.77-3.38C91.08,130.57,90.17,131.12,89.72,131.35Z" fill="#bdd0ff"/><path d="M91.08,133.28c-.49.33-.38.83.22,1.62a15.07,15.07,0,0,0,3.92,3.36c1.26.68,1.77.47,2.1.25.51-.35-.45-.7-2-1.75a9.94,9.94,0,0,1-2.89-2.67C92,133.41,91.58,132.93,91.08,133.28Z" fill="#d9e2ff"/></g><path d="M90.88,135.05a7.1,7.1,0,0,0,1.46,1.84A10.13,10.13,0,0,0,93.89,138s-1.15-.93-1.57-1.36S90.88,135.05,90.88,135.05Z" fill="#d9e2ff"/><path d="M92.82,134a8.06,8.06,0,0,0,1.42,1.54A21,21,0,0,0,96,136.73c-.34-.32-1.12-.95-1.56-1.33S92.82,134,92.82,134Z" fill="#d9e2ff"/></g><path d="M90.44,136.6a6.26,6.26,0,0,0,1,1.22,5.36,5.36,0,0,0,1.35.9s-.57-.42-1.16-.95A15.4,15.4,0,0,1,90.44,136.6Z" fill="#bdd0ff"/><path d="M94.51,134.08s.54.56,1.2,1.13a6.4,6.4,0,0,0,1.37.88,14.75,14.75,0,0,1-1.18-.93C95.22,134.57,94.51,134.08,94.51,134.08Z" fill="#bdd0ff"/></g></g><g><path d="M110.6,131.16c-.15-.81-1.14-.86-1.79-.9l-.46,0,.11-.09a3.89,3.89,0,0,0,1.15-1.92c.11-.56,0-1.55-.67-1.74-.31-.09-.51.15-.61.42s-.29.81-.43,1.22a6.85,6.85,0,0,1-.55,1.38,3.37,3.37,0,0,1-.28.38,5,5,0,0,0,.15-.94,4.71,4.71,0,0,0-.2-2.14c-.17-.45-.63-1-1.14-.62s-.42,1.16-.27,1.7.41,1.21.51,1.83a3.11,3.11,0,0,0-.2-.41,1.71,1.71,0,0,0-1.19-.87c-.44-.07-1.15.06-1.26.58s.7.78,1,1.06a2.64,2.64,0,0,1,.6.69,3.27,3.27,0,0,0-.74-.21,1.36,1.36,0,0,0-1.57.53.65.65,0,0,0,.12.76,1.08,1.08,0,0,0,.69.23c.46,0,1.15-.2,1.62,0a14.61,14.61,0,0,1-1.57.54c-.38.17-1.1.56-.91,1.09s1,.44,1.41.32a5.37,5.37,0,0,0,.56-.21,8.17,8.17,0,0,0-.73,1.11c-.13.23-.26.5-.06.73a1.1,1.1,0,0,0,.93.27,2.23,2.23,0,0,0,1.58-1.27,4.53,4.53,0,0,0,.28-.59,5,5,0,0,0,.16,1.23c.3.78,1.24.28,1.56-.21a2.34,2.34,0,0,0,0-2.29,5,5,0,0,0-.48-.84,4.25,4.25,0,0,0,1.17.22C109.71,132.2,110.76,132,110.6,131.16Z" fill="#eeefff"/><path d="M107.33,131.85c-.15.67-.69,1.12-1.19,1a1.3,1.3,0,1,1,1.19-1Z" fill="#ffce45"/></g><g><path d="M116.3,126.22c-.15-.81-1.14-.86-1.79-.91h-.46l.1-.09a3.87,3.87,0,0,0,1.16-1.92c.11-.56,0-1.56-.67-1.75-.32-.08-.51.15-.62.42s-.28.81-.43,1.22a6.9,6.9,0,0,1-.54,1.39l-.28.38a6.06,6.06,0,0,0,.15-1,5,5,0,0,0-.2-2.13c-.17-.45-.63-1-1.15-.63s-.41,1.17-.27,1.71a15.4,15.4,0,0,1,.51,1.83,2.17,2.17,0,0,0-.19-.41,1.77,1.77,0,0,0-1.19-.88c-.44-.07-1.16.07-1.26.59s.7.78,1,1.06a2.64,2.64,0,0,1,.6.69,3.81,3.81,0,0,0-.75-.22,1.36,1.36,0,0,0-1.56.54.65.65,0,0,0,.12.76,1.06,1.06,0,0,0,.68.23c.46,0,1.16-.2,1.63,0a13.4,13.4,0,0,1-1.57.55c-.39.17-1.11.56-.92,1.09s1,.44,1.42.31a3.66,3.66,0,0,0,.55-.21,11.05,11.05,0,0,0-.72,1.11c-.13.24-.27.5-.06.74a1.15,1.15,0,0,0,.93.27,2.27,2.27,0,0,0,1.58-1.27,4.53,4.53,0,0,0,.28-.59,4.67,4.67,0,0,0,.16,1.23c.3.78,1.24.27,1.56-.21a2.36,2.36,0,0,0,0-2.29,5.46,5.46,0,0,0-.48-.85,3.92,3.92,0,0,0,1.17.23C115.4,127.26,116.46,127.06,116.3,126.22Z" fill="#fff"/><path d="M113,126.9c-.16.67-.69,1.12-1.2,1a1.12,1.12,0,0,1-.63-1.42c.16-.67.69-1.12,1.2-1A1.13,1.13,0,0,1,113,126.9Z" fill="#ffce45"/></g><g><path d="M98.13,122.63a2,2,0,0,1,.05-1.24c0-.09.07-.19.11-.28a26,26,0,0,0-2.86,1.55,4.71,4.71,0,0,0-1.92,2.7c-.1.56.31.53.47.59s0,.16-.08.17c-.26,0-.76-.14-.59-.86a1.31,1.31,0,0,1,0-.17,4.59,4.59,0,0,1,2.12-2.86,23.54,23.54,0,0,1,3-1.33,1.9,1.9,0,0,1,.35-.53c.18-.16.38-.1.22.2s-.24.35-.38.62c-.25.47-.48,1.07-.31,1.31C98.31,122.56,98.22,122.73,98.13,122.63Zm-2.8,5c.06,0-.09.31-.09.32-.13.31-.34.93-.55,1,0,0-.3.12-.31.05a13.14,13.14,0,0,1,.7-2.78l-.31.21c-.09.05-.21,0-.21-.15s.33-.54.44-.6.16.11.21.07h0c.15-.47.29-.88.36-1.1s.07-.4,0-.45a4,4,0,0,1,1-1.83c.1-.06.49-.14.46.2a.12.12,0,0,0-.1,0c-.42.24-1,1.63-1.47,3l.54-.41a13,13,0,0,1,1.15-.82c.11-.06.32-.12,0,.23a22.3,22.3,0,0,1-1.85,1.46c-.27.81-.49,1.56-.59,2-.19.7.08.51.25.13A1.53,1.53,0,0,1,95.33,127.64Z" fill="#fff"/><path d="M99.09,125.26c0-.2.07-.43.2-.45.21-.69.15-.87.11-1-.09-.25.26-.55.32-.3a3.29,3.29,0,0,1-.34,1.59c0,.19.1.23.2.17a2.92,2.92,0,0,0,.67-1l.27-.61c0-.09.13-.09.09,0a4.25,4.25,0,0,1-.26.63,3,3,0,0,1-.79,1.19c-.14.08-.27,0-.32-.07l-.31.58c-.35.6-.78.88-1,.81s-.35-.5-.21-1.23a6.55,6.55,0,0,1,.69-1.77c.29-.51.65-.88.88-.9s.26.09.23.37-.14.24-.14.15,0-.28-.14-.19A5.39,5.39,0,0,0,98,126c0,.44,0,.74.33.57a3,3,0,0,0,.82-1.28S99.09,125.29,99.09,125.26Z" fill="#fff"/><path d="M100.37,124a16.89,16.89,0,0,0,.73-1.9c-.12,0-.2,0-.16-.15a3.73,3.73,0,0,1,.63-1.26c.23-.26.39-.47.18.16l-.3.82a8.52,8.52,0,0,0,.82-.45c.47-.3.28.16,0,.74a10.54,10.54,0,0,0-.71,2c-.12.54,0,.77.25.44a12,12,0,0,0,1.16-2.12c0-.1.14-.09.1,0a10.63,10.63,0,0,1-1,2,2.11,2.11,0,0,1-.61.65c-.17.1-.32.09-.37-.17a4.3,4.3,0,0,1,.66-2.22c.12-.25.48-.92-.06-.72a1.76,1.76,0,0,0-.35.15c-.28.7-.55,1.4-.86,2.09C100.39,124.28,100.25,124.3,100.37,124Z" fill="#fff"/><path d="M105.55,125.16c-.29.75-.75,1.71-1.28,1.89a.32.32,0,0,1-.16,0c-.49,0-.26-.8.16-1.69a25,25,0,0,1,1.71-2.76c.37-1.2.82-2.81.94-3.35-.43.89-1.2,3.09-1.91,3.5s-.63-.58-.4-1.29a7.07,7.07,0,0,1,.63-1.47c.35-.63.63-.31.53-.15a7.58,7.58,0,0,0-.68,1.29c-.12.29-.43,1.31-.22,1.39s.42-.24.64-.67c.59-1.08,1-2.16,1.52-3.28.08-.28.56-.28.52-.14-.19.69-.66,2.36-1,3.35a16.64,16.64,0,0,0,1.41-2.48c.09-.21.15-.08.06.14a19,19,0,0,1-1.62,2.89C106.11,123.46,105.8,124.51,105.55,125.16Zm-1.1.29c-.6,1.13-.39,1.9.19.94a14.25,14.25,0,0,0,1.2-3.29C105.43,123.74,104.86,124.66,104.45,125.45Z" fill="#fff"/><path d="M109.29,119.37c0-.19.07-.42.2-.45.21-.69.15-.87.11-1s.26-.55.32-.3a3.41,3.41,0,0,1-.34,1.59c0,.2.1.23.2.17a2.68,2.68,0,0,0,.66-1c.1-.2.2-.42.28-.61s.13-.08.09,0a6.66,6.66,0,0,1-.26.64,3.16,3.16,0,0,1-.8,1.19.22.22,0,0,1-.32-.08c-.1.2-.2.4-.3.58-.35.6-.78.88-1,.81s-.35-.5-.21-1.23a6.38,6.38,0,0,1,.69-1.76c.29-.52.64-.89.88-.91s.26.09.23.37-.14.24-.14.15,0-.28-.15-.19a5.57,5.57,0,0,0-1.22,2.72c0,.44,0,.74.33.57a3,3,0,0,0,.82-1.28S109.29,119.4,109.29,119.37Z" fill="#fff"/><path d="M113.28,117.85c-.26.4-.83,1-1,.44a3.93,3.93,0,0,1,.13-1.42c-.12.17-.61,2-1.25,2.34-.15.09-.44.12-.55,0a3.11,3.11,0,0,1,.28-1.9,5.43,5.43,0,0,1,.37-.87.9.9,0,0,1,.43-.24c.09,0,0,.13,0,.21a8.65,8.65,0,0,0-.77,1.91c-.25,1,.11,1.07.65.17a15.16,15.16,0,0,0,.92-2c.14-.35.41-1.17.51-1.44.1-.06.49-.19.41.05s-.39,1.08-.49,1.41a5.76,5.76,0,0,0-.25,1.18c0,.47.11.62.37.3a12.56,12.56,0,0,0,1.16-2.13c0-.09.14-.09.1,0A11.59,11.59,0,0,1,113.28,117.85Z" fill="#fff"/></g><polygon points="83.54 141.51 73.36 135.64 73.36 132.98 83.54 138.85 83.54 141.51" fill="#fff"/><polygon points="83.54 137.83 73.36 131.96 73.36 131.14 83.54 137.02 83.54 137.83" fill="#fff"/><path d="M106.27,111.13l-14.19,8.19a6,6,0,0,1-5.37-.22l-4.34-2.51c-1.58-.91-1.76-2.3-.38-3.09l14.19-8.2a6,6,0,0,1,5.37.22l4.33,2.51C107.47,108.94,107.64,110.33,106.27,111.13Z" fill="#ffa1b1"/><path d="M89.75,120a6.34,6.34,0,0,1-3.12-.78l-4.33-2.5a2.37,2.37,0,0,1-1.4-1.89,1.75,1.75,0,0,1,1-1.48l14.19-8.2a6.19,6.19,0,0,1,5.53.23l4.33,2.5a2.37,2.37,0,0,1,1.4,1.89,1.75,1.75,0,0,1-1,1.48l-14.19,8.2A5,5,0,0,1,89.75,120Zm8.76-15.09a4.56,4.56,0,0,0-2.25.52l-14.19,8.19a1.46,1.46,0,0,0-.85,1.21,2.08,2.08,0,0,0,1.23,1.62l4.34,2.5a5.8,5.8,0,0,0,5.21.22L106.19,111a1.46,1.46,0,0,0,.85-1.21,2.09,2.09,0,0,0-1.24-1.62l-4.33-2.5A6.07,6.07,0,0,0,98.51,104.92Z" fill="#fff"/></g><g><g><g><polygon points="142.07 56.41 139.6 51.69 128.4 60.16 130.87 64.88 142.07 56.41" fill="#e2547d"/><polygon points="130.09 50.61 127.62 52.47 136.3 69.05 138.76 67.19 130.09 50.61" fill="#e2547d"/><path d="M163.72,68.65c6.61-5,6.61-19.28,0-31.9S146.4,17.94,139.79,22.93s-6.61,19.28,0,31.91S157.11,73.65,163.72,68.65ZM161,63.43c-5.1,3.86-13.37-.91-18.46-10.66s-5.1-20.76,0-24.62,13.36.92,18.46,10.66S166.09,59.58,161,63.43Z" fill="#e2547d"/></g><polygon points="161.41 66.56 162.73 69.3 158.58 71.77 156.26 68.35 161.41 66.56" fill="#e2547d"/><polygon points="138.76 67.19 134.9 69.5 131.79 63.57 135.66 61.25 138.76 67.19" fill="#e2547d"/><polygon points="132.43 71.36 136.3 69.05 138.76 67.19 134.9 69.5 132.43 71.36" fill="#d1396b"/><polygon points="135.66 61.25 137.48 59.88 137.22 59.46 131.79 63.57 135.66 61.25" fill="#d1396b"/><polygon points="126.22 52.92 130.09 50.61 132.96 56.11 129.33 58.85 126.22 52.92" fill="#e2547d"/><path d="M151.34,66.89s-3.13-1.81-7.7-8S136,32.8,136,32.8s-5.57,8.68.32,21.93S151.34,66.89,151.34,66.89Z" fill="#e2547d"/><path d="M165.41,58.28s4.69-7.23-2.68-19.33-14.2-13-14.2-13,6.2,5.92,9.41,13S165.41,58.28,165.41,58.28Z" fill="#e2547d"/><polygon points="141.17 24.97 140.26 22.6 136.32 24.97 137.22 27.33 141.17 24.97" fill="#e2547d"/><g><polygon points="138.21 58.72 135.74 54.01 124.53 62.48 127 67.19 138.21 58.72" fill="#f9879f"/><polygon points="126.22 52.92 123.75 54.79 132.43 71.36 134.9 69.5 126.22 52.92" fill="#f9879f"/><path d="M159.86,71c6.61-5,6.61-19.28,0-31.91s-17.32-18.81-23.93-13.81-6.61,19.28,0,31.9S153.25,76,159.86,71Zm-2.73-5.22c-5.1,3.85-13.37-.92-18.47-10.66s-5.1-20.77,0-24.62,13.37.91,18.47,10.66S162.23,61.89,157.13,65.75Z" fill="#f9879f"/></g></g><g><g><path d="M116.47,65.75s-2.46,0-3.47,1.66c-1.55,2.62.71,8.18.71,8.18l2.87-2.06Z" fill="#c69076"/><g><path d="M111.23,94.75a2.23,2.23,0,0,0,1.47,2.09c.94.52,1.75,1,2.6.29l-.22-.29a6.34,6.34,0,0,1-1.5-2.59c0-2.08,2.47-5.75,3-7.64s-1.23-6.25-1.23-6.25-1.94,5.25-2.59,7.74-.53,4.35-1.06,5.68a4,4,0,0,1-.52.78Z" fill="#c69076"/><path d="M118.47,97.56a1,1,0,0,0,.63.53,4.16,4.16,0,0,0,1.91.61,2.82,2.82,0,0,0,2.32-2.13,14.18,14.18,0,0,1-2.62-.4s.77-8.43,0-10.22-4.85-1.42-4.85-1.42A4.12,4.12,0,0,1,118.17,88c-1.11,3.32.32,6.08.54,7.72C118.75,96,118.49,97.1,118.47,97.56Z" fill="#c69076"/><path d="M109.7,83.41c0,1.65,2,1.34,2.64,1.71a4,4,0,0,1,1,1.06,2.25,2.25,0,0,0,2.81,1,3.72,3.72,0,0,1,2.86,0c.54.3,1.47,1.1,2.83-.55.68-.83,2-1.19,2.65-2.5a43.87,43.87,0,0,0-3.8-9.13c-.26-1.11-.13-1.86.25-3.9s.33-2.39-1-3.15c-1-.54-2.83-1.85-4.38-1.63a2.75,2.75,0,0,0-1.87,1.62c-1,2.33.27,7.06.27,7.06Z" fill="#9191ff"/><path d="M121.58,64.57A2.1,2.1,0,0,1,119.51,66a8.07,8.07,0,0,0-.43,1.46,2.83,2.83,0,0,1-3.24-.49,6.14,6.14,0,0,0,.19-1.86c.1-1.55-.54-3.38,0-4.55a2.58,2.58,0,0,1,4-1.32C122.17,60.5,122.36,62.22,121.58,64.57Z" fill="#c69076"/><path d="M122.2,96.48s1.21.65,0,1.27a3.18,3.18,0,0,1-2.56.33c-.44-.17-.56-.87-1.15-1.11-.49.21-.53,1-.45,1.67.57.85,2.72.48,3.62.22.73-.21,2-.49,2.28-1.37a.78.78,0,0,0-.8-1.12A3,3,0,0,0,122.2,96.48Z" fill="#682a68"/><path d="M111.53,94.15a1.75,1.75,0,0,1,1,1.25A2.36,2.36,0,0,0,114.36,97c.47,0,.38-.59.38-.59a4.84,4.84,0,0,1,1.32,1c.36.46-.19,1-1.58,1s-2-1.25-3-1.51a1.21,1.21,0,0,1-.76-1.6A5.79,5.79,0,0,1,111.53,94.15Z" fill="#682a68"/><path d="M114,75a6.7,6.7,0,0,0,2.8,1.29c1.58.28,4-1.29,4-1.29s.21.36.42.74a7,7,0,0,1-3.1,1.34,4.61,4.61,0,0,1-3-.37,4.22,4.22,0,0,1-1.34-1.11Z" fill="#7676f4"/><path d="M111.45,84.89a22,22,0,0,1,1.42-4.53c1-2,2.27-2,1.63,0-.39,1.26-1.43,5.45-1.43,5.45A1.8,1.8,0,0,0,111.45,84.89Z" fill="#7676f4"/><path d="M117.29,86.91c-.11.07.11-4.51.13-6.55s.7-2,1.23-.76.64,7.57.64,7.57S118.14,86.44,117.29,86.91Z" fill="#7676f4"/><path d="M122.34,86.17s-.64-2.14-1.21-4.53c-.67-2.78-.71-3.5-.41-3.72s1,1.21,1.84,3.17,1.57,3.6,1.57,3.6A4.93,4.93,0,0,1,122.34,86.17Z" fill="#7676f4"/><path d="M113.39,76.16,111.59,79a3.09,3.09,0,0,0,1.8,1.32c.6-1.25,1.76-4.88,1.76-4.88L114,76Z" fill="#5454e2"/><path d="M114.67,76.24a11.79,11.79,0,0,0,.36,4.84c.59.13,2.1-.72,2.1-.72l-.77-3.47L115,75.35A2.5,2.5,0,0,0,114.67,76.24Z" fill="#5454e2"/><path d="M111.48,76.5c.64,1,3-.77,3-.77a8.42,8.42,0,0,0,2.11,2.16c1.06.62,2.23-.08,2.18-2s-1.32-2.69-3.85-1.36c0,0-1.26-2.41-2.67-1.49A2.42,2.42,0,0,0,111.48,76.5Zm3.84-1.12s1.67-.39,2.17,0,.56,1.14-.35,1.22S115.32,75.38,115.32,75.38Zm-3-1.14c.81-.67,1.73.91,1.73.91a5.3,5.3,0,0,1-1.37.33C112.18,75.48,111.53,74.92,112.33,74.24Z" fill="#5454e2"/><path d="M115.49,63.8c0,.18.76,1.32,1.12,2.27a4.4,4.4,0,0,0,2.65-1.44,2.76,2.76,0,0,0,2.25-2.56c1.15,0,1.37-1.64.61-2.74a2.56,2.56,0,0,0-3.32-.92c-1.31-1.06-2.82-.19-3.55,1.15A4,4,0,0,0,115.49,63.8Z" fill="#682a68"/><path d="M115.24,63.94a1.28,1.28,0,0,0,2.15-.57c.28-1.48-.29-2.9-2.13-2.25C114.28,61.47,114.51,63.27,115.24,63.94Z" fill="#9191ff"/><path d="M112,65.29a2.81,2.81,0,0,0,4.13.23c1-1.1,1.79-2.8-.07-4-.47-1-1.27-.85-1.91-.38a2.35,2.35,0,0,0-.93,1.35c-.15,1,.26,1.77.16,2.1C113.17,65.26,112.78,65.13,112,65.29Z" fill="#4d194f"/><path d="M119.59,67.74c-.15-.09-.13-.94-1.31-.94a4.81,4.81,0,0,1-2.28-.73l-.68.73s-.11.94,1.29,1.29A5.25,5.25,0,0,0,119.59,67.74Z" fill="#7676f4"/></g><path d="M119.68,68.15s1.49-.64,2,2c.4,2,.67,4.5.67,4.5s1.56,1.49,2.55,2.52a3,3,0,0,0,2.69,1.19c1.11,0,1.77,0,1.83.3s-.85.5-1.31.45-1.18-.2-.79.4,1.05.54,1.71.8.33,1-.92,1.15-2.88-2-2.88-2-4.42-2.23-4.68-2.75a25.8,25.8,0,0,1-1.64-5.19C118.69,69.82,118.7,68.84,119.68,68.15Z" fill="#c69076"/></g><path d="M101.92,49.32a37.87,37.87,0,0,0,3.36,2c.24,0,3.85-.79,4.85-.86a13.72,13.72,0,0,0,3.05-.66c.59-.21.32.66,0,.82a5,5,0,0,1-1.11.26,1.84,1.84,0,0,0,1.89.76c1.14-.32,1.78-.19,2.15.27s-1.22,1.06-2.4,1.57-3.53-1-3.53-1a46.17,46.17,0,0,1-4.78,1.64c-1.21.23-5.16-1.83-5.16-1.83Z" fill="#af6e51"/><g><g><path d="M100.3,67.58c-2.92-3.1-.14-6.38,1.27-7.39.75.92,5.18,2.74,5.21,2.85a13.42,13.42,0,0,1-.63,6.87c-.42,1.38-.79,3.7-1.76,7.47.45,1.87-.07,4.71-.25,6.83-.14,1.47-.72,5.35-.82,5.68.27-.08.72-.48,1.32-.68a2.72,2.72,0,0,1,1.6-.08c1,.39,1.29.75,1,1.4-.39.94-1.65,1.25-2.55,1.43-1.35.28-2.11,2.43-3.55,1-.37-.39,0-1.39.09-1.91a43.72,43.72,0,0,0-.33-6.1c-.5-3-.76-6.34,1-8.09C99.94,71.81,100,69.11,100.3,67.58Z" fill="#a56850"/><path d="M101.23,90.82s.85.3,1.39.47a3,3,0,0,0,2.84-.72c.39-.37.66-.85.53-1.11-.26-.51-1.35-.25-1.35-.25s1.88-1.31,2.93-.45c.49.4.61,1.2-.21,2a16.39,16.39,0,0,1-3.16,2.07c-.8.43-2.11,1.29-3,.42S101.23,90.82,101.23,90.82Z" fill="#682a68"/></g><path d="M104.38,82l-2,0a2.93,2.93,0,0,1-1.84-.54,20.3,20.3,0,0,1,.08-3.25,12.22,12.22,0,0,1,.43-1.81,28.14,28.14,0,0,1-1.35-5.21,25.75,25.75,0,0,1,0-3.44,5.67,5.67,0,0,1-.51-4.26,6.28,6.28,0,0,1,1.61-3l4.08,2.7s0,9,.18,11A55,55,0,0,1,104.38,82Z" fill="#4d194f"/><g><path d="M103.37,69.79c-2.92-3.11-.14-6.38,1.27-7.39.75.92,3.29,2.31,3.31,2.42.54,2.28.92,5.05.24,7.26-.42,1.37-.07,3.17-1,6.94a28,28,0,0,1,.06,7.39c-.13,1.48-.71,5.36-.81,5.69.27-.08.71-.48,1.32-.69a2.89,2.89,0,0,1,1.6-.08c1,.4,1.29.76,1,1.41-.4.94-1.65,1.24-2.55,1.43-1.35.28-2.11,2.43-3.55.94-.37-.38,0-1.38.08-1.91a40.72,40.72,0,0,0-.33-6.1c-.49-3-.75-6.33,1-8.08C103,74,103.08,71.32,103.37,69.79Z" fill="#af6e51"/><path d="M104.3,93s.84.3,1.39.47a3,3,0,0,0,2.84-.72c.38-.38.66-.85.53-1.12-.26-.5-1.35-.25-1.35-.25s1.88-1.3,2.93-.44c.49.4.61,1.2-.21,2a16.87,16.87,0,0,1-3.16,2.07c-.8.43-2.11,1.29-3,.42S104.3,93,104.3,93Z" fill="#682a68"/></g><path d="M98.14,50.77a2.59,2.59,0,0,0,3.75,1.48A3.14,3.14,0,0,0,103,48.43a2.14,2.14,0,0,0-3-1.61A3.33,3.33,0,0,0,98.14,50.77Z" fill="#d9e2ff"/><path d="M102.08,51.83a5.92,5.92,0,0,0,2.34.83c1,.13,2.74-1.17,2.57-1.42-.68-1-2.25-1.58-1.38-4.15A9.71,9.71,0,0,1,103,46a.31.31,0,0,0-.46.18c-.27,1.4-.63,2.23-2.17,2.65a.32.32,0,0,0-.22.23C100,50.08,101.3,51.34,102.08,51.83Z" fill="#ffc8b5"/><path d="M105,47.61c2.81,1.07,3-2.28,2.77-4.06-.12-1-1.15-3.3-2.67-3.41s-2.57,1.65-2.71,3A3.89,3.89,0,0,0,105,47.61Z" fill="#af6e51"/><path d="M105.73,44.09s-1.12-.77-1.3.32a1.35,1.35,0,0,0,.89,1.47Z" fill="#ffc8b5"/><path d="M108.29,62.92a12.56,12.56,0,0,1,1.28,5.32c0,2.78-1.43,6.4-1.5,8.83s-.59,5.92-.59,5.92a5.66,5.66,0,0,1-1.68.57,4.63,4.63,0,0,1-2.22-.3,13,13,0,0,1,.44-4.82c-.42-1.34-1.69-7.7-1.57-9-.78-.85-2.33-1.7-1.64-4.31a10.18,10.18,0,0,1,1.28-3.35Z" fill="#682a68"/><path d="M101.38,58.78c.05,1.15-.89,1.26-1.32,2.18-.06,1,.94,1.94,2.24,2.73,1.66,1,5.14,1.26,6.71,0a10.83,10.83,0,0,1-.62-2.76c-.06-2,.37-3.37,0-4.47,1.68-1,1.3-2.42.51-3.81s-1.9-2-3.2-3c-1.72,0-4.08-.44-3.79-1.81-.91-.83-1.75,0-2.11.41-.86,1-1.45,3-.48,6C99.77,55.69,101.32,57.33,101.38,58.78Z" fill="#ffaf04"/><path d="M109.56,56.13l1,5.34s1.17,1.66,2.23,3.31a7.94,7.94,0,0,0,2.43,2.47,12,12,0,0,0,1.92.81c.86.31,1.4.58.64.82a6.23,6.23,0,0,1-1.48.18,2.75,2.75,0,0,0,.93,1.59c.87.84,1.13,1.86-.7,1.48s-2.23-3.25-2.23-3.25-4.56-3.12-5.43-4.43c-.54-.82-1.55-1.22-2.1-3.26s-1-4.62-1-4.62Z" fill="#af6e51"/><path d="M103.81,53.57A3.23,3.23,0,0,0,106,57.76c.66.57,3.93-.32,3.76-1.09.79-1.57.17-4.75-1.77-5.55A3.26,3.26,0,0,0,103.81,53.57Z" fill="#d9e2ff"/><path d="M109.75,56.67v.87s-.16.65-1.37,1a3.6,3.6,0,0,1-2.24-.12l-.15-.64a5.75,5.75,0,0,0,2.16,0A3.34,3.34,0,0,0,109.75,56.67Z" fill="#fff"/><path d="M100.4,53c3.42-.32,4.92-2.14,5.4-3.71.59-1.94-.22-3.38,0-5.16a2.77,2.77,0,0,0,2.83-2.21c.31-2-1.51-2.81-3-2.42a3.19,3.19,0,0,0-3.87,1.05,4.44,4.44,0,0,0-.79,3.12A5.63,5.63,0,0,0,99,47C98.74,48.33,99.73,51,100.4,53Z" fill="#4d194f"/><path d="M104.81,45.56c-.13,1.19-1.73,1.36-1.73,1.36A7,7,0,0,1,101.83,45c-.5.52-2,.27-2,.27a2.5,2.5,0,0,1,.19-2.15,3.5,3.5,0,0,1,2.19,1S104.43,44.64,104.81,45.56Z" fill="#f79d0d"/><path d="M104.81,44.42c0,.72-.76,2.37-1.6,1.62a2.92,2.92,0,0,1-1-1.48,2.23,2.23,0,0,1-1.85,0c-.74-.5.07-2.78,1-2s1,1.14,1,1.14S104.81,43.35,104.81,44.42Z" fill="#ffaf04"/><path d="M102,44.05c-.14.34-.11.68.06.75s.42-.15.56-.5.12-.68,0-.75S102.11,43.7,102,44.05Z" fill="#fff"/></g></g></g><g><g><g><g><path d="M141.24,96l-1.44-.83h0a1,1,0,0,0-1.07.07l-16.56,9.56a3.88,3.88,0,0,0-1.62,3.09v40.34a1.41,1.41,0,0,0,.57,1.3h0l1.42.82,16.19-10.46a3.91,3.91,0,0,0,1.62-3.09Z" fill="#bdd0ff"/><path d="M123.56,150.24l16.56-9.56a3.9,3.9,0,0,0,1.61-3.1V97.24c0-1.19-.72-1.74-1.61-1.22l-16.56,9.56a3.88,3.88,0,0,0-1.62,3.09V149C121.94,150.2,122.67,150.75,123.56,150.24Z" fill="#d9e2ff"/><path d="M123.79,149.11,139.54,140a3.55,3.55,0,0,0,1.47-2.82V97.91c0-1.08-.29-1.41-1.1-.94l-15.81,9.08a3.56,3.56,0,0,0-1.48,2.82v39.29C122.62,149.24,123,149.58,123.79,149.11Z" fill="#e9efff"/><polygon points="123.2 146.74 140.48 136.75 140.48 99.52 123.2 109.5 123.2 146.74" fill="#f9879f"/><path d="M131.65,103.15c0,.35.22.52.48.36a1.14,1.14,0,0,0,.49-.92c0-.35-.22-.51-.49-.36A1.17,1.17,0,0,0,131.65,103.15Z" fill="#fff"/><path d="M133.65,101.94c0,.28.17.4.38.28a.88.88,0,0,0,.37-.71c0-.28-.16-.41-.37-.29A.9.9,0,0,0,133.65,101.94Z" fill="#fff"/><path d="M132,143.88a.57.57,0,0,1-.55-.64v-.19a1.14,1.14,0,0,1,.5-.93l1.73-1A.61.61,0,0,1,134,141a.58.58,0,0,1,.55.64v.19a1.14,1.14,0,0,1-.5.93l-1.74,1a.58.58,0,0,1-.3.09Z" fill="#bdd0ff"/><path d="M132.14,143.49l1.74-1a.77.77,0,0,0,.33-.62v-.19c0-.24-.15-.35-.33-.24l-1.74,1a.76.76,0,0,0-.32.62v.19C131.82,143.48,132,143.59,132.14,143.49Z" fill="#e9efff"/></g><g><polygon points="135.47 113.89 133.12 115.25 133.12 112.11 135.47 110.75 135.47 113.89" fill="#e2547d"/><polygon points="133.15 115.23 130.8 116.59 130.8 113.45 133.15 112.1 133.15 115.23" fill="#e2547d"/><polygon points="137.81 112.54 135.45 113.9 135.45 110.77 137.81 109.41 137.81 112.54" fill="#e2547d"/><polygon points="137.81 115.72 135.45 117.08 135.45 113.94 137.81 112.58 137.81 115.72" fill="#d9e2ff"/><polygon points="140.06 111.24 137.71 112.6 137.71 109.47 140.06 108.11 140.06 111.24" fill="#e2547d"/><polygon points="140.06 114.42 137.71 115.78 137.71 112.64 140.06 111.28 140.06 114.42" fill="#d9e2ff"/><polygon points="133.07 121.32 130.72 122.67 130.72 119.54 133.07 118.18 133.07 121.32" fill="#d9e2ff"/><polygon points="135.32 120.02 132.97 121.37 132.97 118.24 135.32 116.88 135.32 120.02" fill="#d9e2ff"/><polygon points="128.59 123.91 126.23 125.26 126.23 122.13 128.59 120.77 128.59 123.91" fill="#d9e2ff"/><polygon points="126.3 125.22 123.95 126.58 123.95 123.44 126.3 122.09 126.3 125.22" fill="#d9e2ff"/><polygon points="130.84 122.61 128.48 123.96 128.48 120.83 130.84 119.47 130.84 122.61" fill="#d9e2ff"/><polygon points="133.07 127.54 130.72 128.9 130.72 125.76 133.07 124.4 133.07 127.54" fill="#d9e2ff"/><polygon points="135.32 126.24 132.97 127.6 132.97 124.46 135.32 123.1 135.32 126.24" fill="#d9e2ff"/><polygon points="130.84 128.83 128.48 130.19 128.48 127.05 130.84 125.69 130.84 128.83" fill="#d9e2ff"/><g><rect x="126.13" y="116.08" width="0.23" height="15.36" fill="#fff"/><rect x="128.42" y="114.76" width="0.23" height="15.36" fill="#fff"/><rect x="123.83" y="117.41" width="0.23" height="15.36" fill="#fff"/><rect x="130.71" y="113.44" width="0.23" height="15.36" fill="#fff"/><rect x="130.71" y="113.44" width="0.23" height="15.36" fill="#fff"/><rect x="133" y="112.11" width="0.23" height="15.36" fill="#fff"/><rect x="135.3" y="110.79" width="0.23" height="15.36" fill="#fff"/><rect x="135.3" y="110.79" width="0.23" height="15.36" fill="#fff"/><rect x="137.59" y="109.47" width="0.23" height="15.36" fill="#fff"/><rect x="139.88" y="108.14" width="0.23" height="15.36" fill="#fff"/><rect x="139.88" y="108.14" width="0.23" height="15.36" fill="#fff"/></g><g><rect x="122.64" y="128.02" width="18.67" height="0.23" transform="translate(-46.41 83.24) rotate(-30.03)" fill="#fff"/><rect x="122.64" y="124.97" width="18.67" height="0.23" transform="translate(-44.88 82.83) rotate(-30.03)" fill="#fff"/><rect x="122.64" y="124.97" width="18.67" height="0.23" transform="translate(-44.88 82.83) rotate(-30.03)" fill="#fff"/><rect x="122.64" y="121.91" width="18.67" height="0.23" transform="matrix(0.87, -0.5, 0.5, 0.87, -43.35, 82.41)" fill="#fff"/><rect x="122.64" y="118.85" width="18.67" height="0.23" transform="translate(-41.82 82.01) rotate(-30.03)" fill="#fff"/><rect x="122.64" y="118.85" width="18.67" height="0.23" transform="translate(-41.82 82.01) rotate(-30.03)" fill="#fff"/><rect x="122.64" y="115.8" width="18.67" height="0.23" transform="translate(-40.29 81.6) rotate(-30.03)" fill="#fff"/><rect x="122.64" y="112.74" width="18.67" height="0.23" transform="translate(-38.76 81.19) rotate(-30.03)" fill="#fff"/><rect x="122.64" y="112.74" width="18.67" height="0.23" transform="translate(-38.76 81.19) rotate(-30.03)" fill="#fff"/></g></g><path d="M128.37,131.9,126.44,133a2.66,2.66,0,0,0-1.11,2.12c0,.82.5,1.19,1.11.84l1.93-1.11a2.67,2.67,0,0,0,1.12-2.13C129.49,131.92,129,131.55,128.37,131.9Z" fill="#d9e2ff"/><path d="M138.34,126.39l-1.93,1.11a2.66,2.66,0,0,0-1.11,2.13c0,.81.49,1.19,1.11.84l1.93-1.12a2.66,2.66,0,0,0,1.11-2.12C139.45,126.41,139,126,138.34,126.39Z" fill="#e2547d"/><path d="M138.9,134.87l-14.18,8.19a1.5,1.5,0,0,0-.63,1.21c0,.46.28.68.63.47l14.18-8.18a1.54,1.54,0,0,0,.64-1.21C139.54,134.88,139.25,134.67,138.9,134.87Z" fill="#4d194f"/><path d="M126.6,140.69c.57-1.08.57-2.31,0-2.74s-1.49.1-2,1.19-.57,2.31,0,2.74S126,141.78,126.6,140.69Z" fill="#fff"/><path d="M130.59,138.3c.56-1.09.56-2.32,0-2.74s-1.49.1-2.06,1.18-.57,2.31,0,2.74S130,139.38,130.59,138.3Z" fill="#fff"/><path d="M134.86,135.78c.57-1.08.57-2.31,0-2.74s-1.48.11-2.05,1.19-.57,2.31,0,2.74S134.3,136.87,134.86,135.78Z" fill="#fff"/><path d="M138.85,133.39c.57-1.09.57-2.31,0-2.74s-1.49.1-2.06,1.18-.56,2.31,0,2.74S138.28,134.47,138.85,133.39Z" fill="#fff"/></g><g><path d="M127.52,110.81v-2.39l.58-.34a2.93,2.93,0,0,1,.43-.21.24.24,0,0,1,.25.09.6.6,0,0,1,.11.4,1.31,1.31,0,0,1-.21.73,1.51,1.51,0,0,1-.19.22,2.49,2.49,0,0,1-.38.25l-.23.14v.9Zm.36-2.2v.68l.2-.11a1.37,1.37,0,0,0,.28-.2.52.52,0,0,0,.11-.19.54.54,0,0,0,.05-.21.24.24,0,0,0-.06-.18.16.16,0,0,0-.15,0l-.26.13Z" fill="#4d194f"/><path d="M129.19,109.84v-2.39l1.33-.76v.4l-1,.56v.53l.9-.52v.4l-.9.52v.65l1-.58v.41Z" fill="#4d194f"/><path d="M130.86,108.88v-2.39l.76-.44a1.27,1.27,0,0,1,.42-.18.25.25,0,0,1,.21.11.62.62,0,0,1,.07.33,1.35,1.35,0,0,1-.11.52,1.19,1.19,0,0,1-.36.42.48.48,0,0,1,.19.09,1,1,0,0,1,.21.27l.22.34-.43.25-.27-.37a1.27,1.27,0,0,0-.19-.24.14.14,0,0,0-.1,0,.77.77,0,0,0-.19.08l-.07,0v1Zm.36-1.59.27-.15a1.93,1.93,0,0,0,.32-.22.39.39,0,0,0,.1-.16.45.45,0,0,0,0-.2c0-.08,0-.14,0-.17s-.07,0-.13,0l-.27.14-.28.16Z" fill="#4d194f"/><path d="M132.65,107.84v-2.39l.37-.21v2.39Z" fill="#4d194f"/><path d="M133.29,106.3a2.59,2.59,0,0,1,.08-.66,2.26,2.26,0,0,1,.17-.43,1.53,1.53,0,0,1,.62-.67q.39-.23.63,0a.94.94,0,0,1,.24.77,2.21,2.21,0,0,1-.24,1,1.63,1.63,0,0,1-.63.69c-.27.16-.48.17-.64,0A1,1,0,0,1,133.29,106.3Zm.37-.24a.78.78,0,0,0,.14.54.28.28,0,0,0,.36,0,.9.9,0,0,0,.35-.41,1.53,1.53,0,0,0,.14-.71.74.74,0,0,0-.13-.53c-.09-.08-.21-.08-.36,0a.86.86,0,0,0-.36.41A1.6,1.6,0,0,0,133.66,106.06Z" fill="#4d194f"/><path d="M135.31,103.92l.66-.38a1,1,0,0,1,.34-.15.31.31,0,0,1,.27.06.55.55,0,0,1,.17.29,1.88,1.88,0,0,1,.06.53,2.92,2.92,0,0,1-.05.54,2,2,0,0,1-.2.53,1.29,1.29,0,0,1-.25.34,1.77,1.77,0,0,1-.32.24l-.68.39Zm.36.19v1.59l.27-.16.22-.15a.65.65,0,0,0,.15-.18,1.25,1.25,0,0,0,.09-.29,2.71,2.71,0,0,0,0-.46,1.82,1.82,0,0,0,0-.4.31.31,0,0,0-.1-.17.2.2,0,0,0-.17,0l-.3.15Z" fill="#4d194f"/><path d="M126.44,113.89l.35,0a2.23,2.23,0,0,1-.27.73,1.35,1.35,0,0,1-.48.47.46.46,0,0,1-.58,0,.92.92,0,0,1-.23-.75,2.24,2.24,0,0,1,.23-1.06,1.53,1.53,0,0,1,.61-.69.47.47,0,0,1,.53,0,.51.51,0,0,1,.18.33l-.35.32a.33.33,0,0,0-.14-.22.25.25,0,0,0-.24,0,.78.78,0,0,0-.33.38,1.64,1.64,0,0,0-.12.69.88.88,0,0,0,.12.57.25.25,0,0,0,.32,0,.73.73,0,0,0,.25-.27A1.37,1.37,0,0,0,126.44,113.89Z" fill="#4d194f"/><path d="M128.72,113.46l-.4.22-.15-.45-.72.41-.15.63-.38.22.69-2.79.39-.22Zm-.67-.56-.25-.75-.24,1Z" fill="#4d194f"/><path d="M128.92,113.34V111l.36-.21v2l.9-.52v.4Z" fill="#4d194f"/><path d="M130.44,112.46v-2.39l1.33-.77v.41l-1,.56v.53l.9-.52v.4l-.9.52v.65l1-.58v.4Z" fill="#4d194f"/><path d="M132.11,111.5v-2.4l.35-.2.74,1.17v-1.59l.33-.2v2.39l-.36.21-.72-1.14v1.56Z" fill="#4d194f"/><path d="M133.92,108.06l.66-.38a1.25,1.25,0,0,1,.34-.15.32.32,0,0,1,.27.06.68.68,0,0,1,.17.29,1.88,1.88,0,0,1,.06.53,2.23,2.23,0,0,1-.06.54,2.15,2.15,0,0,1-.19.54,1.51,1.51,0,0,1-.25.33,1.77,1.77,0,0,1-.32.24l-.68.39Zm.36.2v1.58l.27-.15.22-.15a.85.85,0,0,0,.14-.19,1.11,1.11,0,0,0,.1-.28,3,3,0,0,0,0-.46,2,2,0,0,0,0-.41.38.38,0,0,0-.1-.17.2.2,0,0,0-.17,0,1.6,1.6,0,0,0-.3.14Z" fill="#4d194f"/><path d="M137.34,108.48l-.39.22-.16-.45-.71.41-.15.63-.39.22.7-2.79.39-.22Zm-.66-.57-.25-.74-.24,1Z" fill="#4d194f"/><path d="M137.54,108.36V106l.76-.44a1,1,0,0,1,.42-.17.2.2,0,0,1,.2.11.52.52,0,0,1,.08.33,1.13,1.13,0,0,1-.12.51,1.16,1.16,0,0,1-.35.42.48.48,0,0,1,.19.09,2.14,2.14,0,0,1,.21.27l.22.34-.43.25-.27-.37a1.27,1.27,0,0,0-.19-.24.11.11,0,0,0-.11,0,.62.62,0,0,0-.18.07l-.07,0v1Zm.36-1.58.27-.16a1.45,1.45,0,0,0,.32-.22.37.37,0,0,0,.1-.16.45.45,0,0,0,0-.2.22.22,0,0,0,0-.16s-.08,0-.14,0l-.26.15-.28.16Z" fill="#4d194f"/></g></g><g><path d="M147.21,133.86l-4.06,2a2.77,2.77,0,0,0,1.9,1.59,12.69,12.69,0,0,0,3.33,0l-2.28,2.23a2.16,2.16,0,0,0,1.92,1.08,6.75,6.75,0,0,0,2.6-.47l5.16,1Z" fill="#ffa192"/><path d="M168.12,145.57c-1.23-1.49-3.35-3-4.19-4.75-1-2.17-1.58-3.95-2.9-5.06a27.71,27.71,0,0,0-4.81-3.4c-1.21-1.14-3.08-1.14-3.79-.2-1.41-.52-2.45-.73-3.39-.28a14.87,14.87,0,0,0-1.69-.66,57.31,57.31,0,0,1-8-3.72c-.69-.39-1.14-.55-1.51-.23a1.29,1.29,0,0,0-.47.87c-.11.65.18,1.34,1.07,2.12a12.13,12.13,0,0,0,2.42,1.39c.77,1,3.49,3.22,4.48,3.2,1.17,1.29,3.5,3.43,5.14,3.45a29.28,29.28,0,0,0,2.09,3,5.9,5.9,0,0,1-3.13-.63,11.69,11.69,0,0,1-2.74-2.21,6.18,6.18,0,0,0-2.57-1.88c-1.27-.37-1.58.22-2.22.9-.15.15-.35.53-.15.71a16.94,16.94,0,0,1,2.27,2c.34.49.69,1.17,1.07,1.85s1.23,1.46,3.47,3.48c3,2.71,4.81,3.82,9.57,4,.51.91,3.08,2.62,3.89,3.25C162.65,153.2,167.45,147.87,168.12,145.57Z" fill="#ffc8b5"/><path d="M142,138.3s.72-1.3,1.59-1.1a2,2,0,0,1,1.25.91l-1.21,1.58Z" fill="#ffd7cb"/><path d="M161.71,150.16c-.55,2.19.53,3.54,2.41,3a7.31,7.31,0,0,0,4.41-4.94c.56-2.19-.52-3.53-2.41-3A7.37,7.37,0,0,0,161.71,150.16Z" fill="#ffa192"/><path d="M158.58,147.46a5.16,5.16,0,0,1,1.22-2.36,2,2,0,0,1,1.72-.74A28.49,28.49,0,0,0,158.58,147.46Z" fill="#ffa192"/><path d="M138.81,127.18c-.74-.29-1.26.63-.71,1.28a2.93,2.93,0,0,0,1.22.86l1.35-1.18S139.14,127.31,138.81,127.18Z" fill="#ffd7cb"/></g></g></g></g></svg>