<svg xmlns="http://www.w3.org/2000/svg" xmlns:xlink="http://www.w3.org/1999/xlink" width="148" height="170.16" viewBox="0 0 168.67 170.16"><defs><filter id="b" x="130.8" y="-8379.77" width="7.49" height="32766" filterUnits="userSpaceOnUse" color-interpolation-filters="sRGB"/><mask id="a" x="130.8" y="-8379.77" width="7.49" height="32766" maskUnits="userSpaceOnUse"><g filter="url(#b)"/></mask><linearGradient id="c" data-name="¡ÂÁ˚ÏˇÌÌ˚È „‡‰ËÂÌÚ 3" x1="137.52" y1="89.11" x2="132.14" y2="86.19" gradientUnits="userSpaceOnUse"><stop offset="0" stop-color="#fff"/><stop offset="0.61" stop-color="#606060"/><stop offset="1"/></linearGradient><filter id="e" x="95.34" y="-8379.77" width="7.49" height="32766" filterUnits="userSpaceOnUse" color-interpolation-filters="sRGB"/><mask id="d" x="95.34" y="-8379.77" width="7.49" height="32766" maskUnits="userSpaceOnUse"><g filter="url(#e)"/></mask><linearGradient id="f" x1="102.06" y1="146.09" x2="96.67" y2="143.17" xlink:href="#c"/><filter id="h" x="128.44" y="-8379.77" width="7.49" height="32766" filterUnits="userSpaceOnUse" color-interpolation-filters="sRGB"/><mask id="g" x="128.44" y="-8379.77" width="7.49" height="32766" maskUnits="userSpaceOnUse"><g filter="url(#h)"/></mask><linearGradient id="i" x1="135.16" y1="99.14" x2="129.77" y2="96.22" xlink:href="#c"/><filter id="k" x="81.74" y="-8379.77" width="7.49" height="32766" filterUnits="userSpaceOnUse" color-interpolation-filters="sRGB"/><mask id="j" x="81.74" y="-8379.77" width="7.49" height="32766" maskUnits="userSpaceOnUse"><g filter="url(#k)"/></mask><linearGradient id="l" x1="88.46" y1="145.41" x2="83.07" y2="142.49" xlink:href="#c"/><filter id="n" x="84.72" y="-8379.77" width="7.49" height="32766" filterUnits="userSpaceOnUse" color-interpolation-filters="sRGB"/><mask id="m" x="84.72" y="-8379.77" width="7.49" height="32766" maskUnits="userSpaceOnUse"><g filter="url(#n)"/></mask><linearGradient id="o" x1="91.44" y1="150.7" x2="86.05" y2="147.77" xlink:href="#c"/><linearGradient id="p" data-name="¡ÂÁ˚ÏˇÌÌ˚È „‡‰ËÂÌÚ 809" x1="329.14" y1="525.8" x2="364.61" y2="587.24" gradientTransform="matrix(0.5, -0.87, -0.87, -0.5, 370.65, 641.82)" gradientUnits="userSpaceOnUse"><stop offset="0" stop-color="#fff"/><stop offset="0.3" stop-color="#f6f6f6"/></linearGradient><linearGradient id="q" x1="120.08" y1="85.31" x2="122.41" y2="90.49" gradientUnits="userSpaceOnUse"><stop offset="0" stop-color="#ff7a52"/><stop offset="0.23" stop-color="#f6612f"/><stop offset="0.51" stop-color="#e93f00"/><stop offset="0.61" stop-color="#d93600"/><stop offset="0.87" stop-color="#b42100"/><stop offset="1" stop-color="#a61900"/></linearGradient><linearGradient id="r" x1="121.97" y1="84.76" x2="125.01" y2="88.19" gradientUnits="userSpaceOnUse"><stop offset="0" stop-color="#e9eff2"/><stop offset="0.5" stop-color="#d7dce1"/><stop offset="0.67" stop-color="#c7ced4"/><stop offset="0.99" stop-color="#9fa9b2"/><stop offset="1" stop-color="#9da7b0"/></linearGradient><linearGradient id="s" x1="124.13" y1="84.45" x2="117.62" y2="88.14" gradientUnits="userSpaceOnUse"><stop offset="0" stop-color="#e9eff2"/><stop offset="0.13" stop-color="#ebe6e3"/><stop offset="0.38" stop-color="#f0cdbc"/><stop offset="0.72" stop-color="#f8a67e"/><stop offset="1" stop-color="#ff8345"/></linearGradient><linearGradient id="t" x1="110.98" y1="77.24" x2="113.31" y2="82.42" xlink:href="#q"/><linearGradient id="u" x1="112.87" y1="76.69" x2="115.9" y2="80.12" xlink:href="#r"/><linearGradient id="v" x1="115.03" y1="76.38" x2="108.51" y2="80.07" xlink:href="#s"/><linearGradient id="w" x1="110.51" y1="84.85" x2="112.84" y2="90.03" xlink:href="#q"/><linearGradient id="x" x1="112.4" y1="84.3" x2="115.44" y2="87.73" xlink:href="#r"/><linearGradient id="y" x1="114.56" y1="83.99" x2="108.05" y2="87.68" xlink:href="#s"/><linearGradient id="z" x1="6.98" y1="271.05" x2="9.31" y2="276.23" gradientTransform="translate(257.77 -153.32) rotate(32.25)" xlink:href="#q"/><linearGradient id="aa" x1="8.87" y1="270.5" x2="11.91" y2="273.93" gradientTransform="translate(257.77 -153.32) rotate(32.25)" xlink:href="#r"/><linearGradient id="ab" x1="11.03" y1="270.19" x2="4.51" y2="273.88" gradientTransform="translate(257.77 -153.32) rotate(32.25)" xlink:href="#s"/><linearGradient id="ac" x1="125.46" y1="65.25" x2="127.79" y2="70.43" gradientTransform="translate(-29.59 23.65) rotate(-4.28)" xlink:href="#q"/><linearGradient id="ad" x1="127.35" y1="64.71" x2="130.39" y2="68.13" gradientTransform="translate(-29.59 23.65) rotate(-4.28)" xlink:href="#r"/><linearGradient id="ae" x1="129.51" y1="64.39" x2="122.99" y2="68.09" gradientTransform="translate(-29.59 23.65) rotate(-4.28)" xlink:href="#s"/><linearGradient id="af" x1="5.71" y1="242.47" x2="8.04" y2="247.65" gradientTransform="translate(213.54 -144.16) rotate(27.57)" xlink:href="#q"/><linearGradient id="ag" x1="7.6" y1="241.92" x2="10.64" y2="245.35" gradientTransform="translate(213.54 -144.16) rotate(27.57)" xlink:href="#r"/><linearGradient id="ah" x1="9.76" y1="241.61" x2="3.24" y2="245.3" gradientTransform="translate(213.54 -144.16) rotate(27.57)" xlink:href="#s"/><linearGradient id="ai" x1="49.93" y1="162.42" x2="52.26" y2="167.6" gradientTransform="translate(92.53 -86.63) rotate(13.38)" xlink:href="#q"/><linearGradient id="aj" x1="51.82" y1="161.87" x2="54.86" y2="165.3" gradientTransform="translate(92.53 -86.63) rotate(13.38)" xlink:href="#r"/><linearGradient id="ak" x1="53.98" y1="161.56" x2="47.46" y2="165.25" gradientTransform="translate(92.53 -86.63) rotate(13.38)" xlink:href="#s"/><linearGradient id="al" x1="-7.46" y1="372.24" x2="-5.13" y2="377.43" gradientTransform="translate(372.67 -172.37) rotate(44.4)" xlink:href="#q"/><linearGradient id="am" x1="-5.57" y1="371.7" x2="-2.53" y2="375.13" gradientTransform="translate(372.67 -172.37) rotate(44.4)" xlink:href="#r"/><linearGradient id="an" x1="-3.41" y1="371.38" x2="-9.93" y2="375.08" gradientTransform="translate(372.67 -172.37) rotate(44.4)" xlink:href="#s"/><linearGradient id="ao" x1="-2.46" y1="366.26" x2="-0.13" y2="371.44" gradientTransform="translate(372.67 -172.37) rotate(44.4)" xlink:href="#q"/><linearGradient id="ap" x1="-0.57" y1="365.71" x2="2.47" y2="369.14" gradientTransform="translate(372.67 -172.37) rotate(44.4)" xlink:href="#r"/><linearGradient id="aq" x1="1.59" y1="365.4" x2="-4.92" y2="369.09" gradientTransform="translate(372.67 -172.37) rotate(44.4)" xlink:href="#s"/><linearGradient id="ar" x1="167.76" y1="41.63" x2="170.09" y2="46.81" gradientTransform="translate(-75.63 76.4) rotate(-11.92)" xlink:href="#q"/><linearGradient id="as" x1="169.65" y1="41.09" x2="172.69" y2="44.51" gradientTransform="translate(-75.63 76.4) rotate(-11.92)" xlink:href="#r"/><linearGradient id="at" x1="171.81" y1="40.77" x2="165.3" y2="44.47" gradientTransform="translate(-75.63 76.4) rotate(-11.92)" xlink:href="#s"/><linearGradient id="au" x1="120.08" y1="76.86" x2="122.41" y2="82.04" xlink:href="#q"/><linearGradient id="av" x1="121.97" y1="76.31" x2="125.01" y2="79.74" xlink:href="#r"/><linearGradient id="aw" x1="124.13" y1="76" x2="117.62" y2="79.69" xlink:href="#s"/><linearGradient id="ax" x1="110.98" y1="68.78" x2="113.31" y2="73.97" xlink:href="#q"/><linearGradient id="ay" x1="112.87" y1="68.24" x2="115.9" y2="71.67" xlink:href="#r"/><linearGradient id="az" x1="115.03" y1="67.93" x2="108.51" y2="71.62" xlink:href="#s"/><linearGradient id="ba" x1="110.51" y1="76.39" x2="112.84" y2="81.57" xlink:href="#q"/><linearGradient id="bb" x1="112.4" y1="75.84" x2="115.44" y2="79.27" xlink:href="#r"/><linearGradient id="bc" x1="114.56" y1="75.53" x2="108.05" y2="79.22" xlink:href="#s"/><linearGradient id="bd" x1="2.47" y1="263.9" x2="4.8" y2="269.08" gradientTransform="translate(257.77 -153.32) rotate(32.25)" xlink:href="#q"/><linearGradient id="be" x1="4.36" y1="263.35" x2="7.39" y2="266.78" gradientTransform="translate(257.77 -153.32) rotate(32.25)" xlink:href="#r"/><linearGradient id="bf" x1="6.52" y1="263.04" x2="0" y2="266.73" gradientTransform="translate(257.77 -153.32) rotate(32.25)" xlink:href="#s"/><linearGradient id="bg" x1="126.09" y1="56.82" x2="128.42" y2="62" gradientTransform="translate(-29.59 23.65) rotate(-4.28)" xlink:href="#q"/><linearGradient id="bh" x1="127.98" y1="56.27" x2="131.02" y2="59.7" gradientTransform="translate(-29.59 23.65) rotate(-4.28)" xlink:href="#r"/><linearGradient id="bi" x1="130.14" y1="55.96" x2="123.62" y2="59.65" gradientTransform="translate(-29.59 23.65) rotate(-4.28)" xlink:href="#s"/><linearGradient id="bj" x1="1.8" y1="234.97" x2="4.12" y2="240.15" gradientTransform="translate(213.54 -144.16) rotate(27.57)" xlink:href="#q"/><linearGradient id="bk" x1="3.69" y1="234.43" x2="6.72" y2="237.85" gradientTransform="translate(213.54 -144.16) rotate(27.57)" xlink:href="#r"/><linearGradient id="bl" x1="5.85" y1="234.11" x2="-0.67" y2="237.81" gradientTransform="translate(213.54 -144.16) rotate(27.57)" xlink:href="#s"/><linearGradient id="bm" x1="47.97" y1="154.19" x2="50.3" y2="159.37" gradientTransform="translate(92.53 -86.63) rotate(13.38)" xlink:href="#q"/><linearGradient id="bn" x1="49.86" y1="153.64" x2="52.9" y2="157.07" gradientTransform="translate(92.53 -86.63) rotate(13.38)" xlink:href="#r"/><linearGradient id="bo" x1="52.02" y1="153.33" x2="45.51" y2="157.02" gradientTransform="translate(92.53 -86.63) rotate(13.38)" xlink:href="#s"/><linearGradient id="bp" x1="-13.38" y1="366.2" x2="-11.05" y2="371.39" gradientTransform="translate(372.67 -172.37) rotate(44.4)" xlink:href="#q"/><linearGradient id="bq" x1="-11.49" y1="365.66" x2="-8.45" y2="369.09" gradientTransform="translate(372.67 -172.37) rotate(44.4)" xlink:href="#r"/><linearGradient id="br" x1="-9.33" y1="365.34" x2="-15.84" y2="369.04" gradientTransform="translate(372.67 -172.37) rotate(44.4)" xlink:href="#s"/><linearGradient id="bs" x1="-8.38" y1="360.22" x2="-6.05" y2="365.4" gradientTransform="translate(372.67 -172.37) rotate(44.4)" xlink:href="#q"/><linearGradient id="bt" x1="-6.49" y1="359.67" x2="-3.45" y2="363.1" gradientTransform="translate(372.67 -172.37) rotate(44.4)" xlink:href="#r"/><linearGradient id="bu" x1="-4.33" y1="359.36" x2="-10.84" y2="363.05" gradientTransform="translate(372.67 -172.37) rotate(44.4)" xlink:href="#s"/><linearGradient id="bv" x1="169.51" y1="33.36" x2="171.84" y2="38.54" gradientTransform="translate(-75.63 76.4) rotate(-11.92)" xlink:href="#q"/><linearGradient id="bw" x1="171.4" y1="32.81" x2="174.43" y2="36.24" gradientTransform="translate(-75.63 76.4) rotate(-11.92)" xlink:href="#r"/><linearGradient id="bx" x1="173.56" y1="32.5" x2="167.04" y2="36.19" gradientTransform="translate(-75.63 76.4) rotate(-11.92)" xlink:href="#s"/><linearGradient id="by" data-name="¡ÂÁ˚ÏˇÌÌ˚È „‡‰ËÂÌÚ 875" x1="129.82" y1="68.39" x2="91.71" y2="68.39" gradientUnits="userSpaceOnUse"><stop offset="0" stop-color="#ffbf00"/><stop offset="0.62" stop-color="#f5b400"/><stop offset="1" stop-color="#edab00"/></linearGradient><clipPath id="bz"><path d="M127.73,47.75l0,7.11c0,2.58-1.7,5.16-5.09,7.13-6.83,4-17.94,4-24.81,0-3.46-2-5.18-4.62-5.18-7.23l0-7.11c0,2.62,1.72,5.24,5.18,7.24,6.87,4,18,4,24.81,0C126,52.92,127.72,50.34,127.73,47.75Z" fill="none"/></clipPath><linearGradient id="ca" data-name="¡ÂÁ˚ÏˇÌÌ˚È „‡‰ËÂÌÚ 817" x1="92.63" y1="56.31" x2="127.73" y2="56.31" gradientUnits="userSpaceOnUse"><stop offset="0" stop-color="#c9c5ba"/><stop offset="0.56" stop-color="#dcd8d0"/><stop offset="1" stop-color="#e6e2db"/></linearGradient><clipPath id="ej"><path d="M138.3,87.51v1.75a1.84,1.84,0,0,1-1.09,1.52,5.83,5.83,0,0,1-5.3,0,1.9,1.9,0,0,1-1.1-1.55V87.49A1.86,1.86,0,0,0,131.91,89a5.83,5.83,0,0,0,5.3,0A1.89,1.89,0,0,0,138.3,87.51Z" fill="none"/></clipPath><linearGradient id="ek" x1="138.03" y1="89.45" x2="130.69" y2="89.45" gradientUnits="userSpaceOnUse"><stop offset="0" stop-color="#e8e8e8"/><stop offset="1" stop-color="#d8d8d8"/></linearGradient><linearGradient id="el" x1="130.8" y1="87.5" x2="138.3" y2="87.5" gradientUnits="userSpaceOnUse"><stop offset="0" stop-color="#f2f2f2"/><stop offset="1" stop-color="#efefef"/></linearGradient><linearGradient id="em" x1="132.37" y1="88.65" x2="136.94" y2="85.82" xlink:href="#ek"/><linearGradient id="en" x1="132.36" y1="88.64" x2="136.94" y2="85.81" xlink:href="#ek"/><filter id="ep" x="130.8" y="85.33" width="7.49" height="4.34" filterUnits="userSpaceOnUse" color-interpolation-filters="sRGB"/><mask id="eo" x="130.8" y="85.33" width="7.49" height="4.34" maskUnits="userSpaceOnUse"><g mask="url(#a)" filter="url(#ep)"><path d="M137.19,86a5.83,5.83,0,0,0-5.3,0c-1.46.84-1.45,2.22,0,3.06a5.83,5.83,0,0,0,5.3,0C138.67,88.19,138.66,86.81,137.19,86ZM137,88.78a5.36,5.36,0,0,1-4.84,0c-1.34-.78-1.35-2,0-2.8A5.3,5.3,0,0,1,137,86C138.3,86.75,138.31,88,137,88.78Z" fill="url(#c)" style="mix-blend-mode: multiply"/></g></mask><linearGradient id="eq" data-name="¡ÂÁ˚ÏˇÌÌ˚È „‡‰ËÂÌÚ 273" x1="137.52" y1="89.11" x2="132.14" y2="86.19" gradientUnits="userSpaceOnUse"><stop offset="0" stop-color="#f2f2f2"/><stop offset="0.59" stop-color="#606060"/><stop offset="1"/></linearGradient><clipPath id="er"><path d="M102.83,144.49v1.74a1.84,1.84,0,0,1-1.09,1.52,5.84,5.84,0,0,1-5.29,0,1.89,1.89,0,0,1-1.11-1.55v-1.74a1.86,1.86,0,0,0,1.1,1.54,5.83,5.83,0,0,0,5.3,0A1.86,1.86,0,0,0,102.83,144.49Z" fill="none"/></clipPath><linearGradient id="es" x1="102.56" y1="146.43" x2="95.22" y2="146.43" xlink:href="#ek"/><linearGradient id="et" x1="95.34" y1="144.48" x2="102.83" y2="144.48" xlink:href="#el"/><linearGradient id="eu" x1="96.9" y1="145.62" x2="101.47" y2="142.79" xlink:href="#ek"/><linearGradient id="ev" x1="96.9" y1="145.62" x2="101.47" y2="142.79" xlink:href="#ek"/><filter id="ex" x="95.34" y="142.31" width="7.49" height="4.34" filterUnits="userSpaceOnUse" color-interpolation-filters="sRGB"/><mask id="ew" x="95.34" y="142.31" width="7.49" height="4.34" maskUnits="userSpaceOnUse"><g mask="url(#d)" filter="url(#ex)"><path d="M101.72,142.94a5.83,5.83,0,0,0-5.3,0c-1.45.85-1.45,2.22,0,3.07a5.83,5.83,0,0,0,5.3,0C103.2,145.16,103.19,143.79,101.72,142.94Zm-.21,2.81a5.3,5.3,0,0,1-4.84,0c-1.34-.77-1.34-2,0-2.8a5.34,5.34,0,0,1,4.83,0C102.83,143.73,102.84,145,101.51,145.75Z" fill="url(#f)" style="mix-blend-mode: multiply"/></g></mask><linearGradient id="ey" x1="102.06" y1="146.09" x2="96.67" y2="143.17" xlink:href="#eq"/><clipPath id="ez"><path d="M135.93,97.54v1.75a1.86,1.86,0,0,1-1.09,1.52,5.83,5.83,0,0,1-5.3,0,1.83,1.83,0,0,1-1.1-1.54V97.52a1.89,1.89,0,0,0,1.11,1.55,5.87,5.87,0,0,0,5.29,0A1.87,1.87,0,0,0,135.93,97.54Z" fill="none"/></clipPath><linearGradient id="fa" x1="135.66" y1="99.48" x2="128.32" y2="99.48" xlink:href="#ek"/><linearGradient id="fb" x1="128.44" y1="97.53" x2="135.93" y2="97.53" xlink:href="#el"/><linearGradient id="fc" x1="130" y1="98.68" x2="134.58" y2="95.85" xlink:href="#ek"/><linearGradient id="fd" x1="130" y1="98.67" x2="134.57" y2="95.84" xlink:href="#ek"/><filter id="ff" x="128.44" y="95.36" width="7.49" height="4.34" filterUnits="userSpaceOnUse" color-interpolation-filters="sRGB"/><mask id="fe" x="128.44" y="95.36" width="7.49" height="4.34" maskUnits="userSpaceOnUse"><g mask="url(#g)" filter="url(#ff)"><path d="M134.83,96a5.83,5.83,0,0,0-5.3,0c-1.46.84-1.45,2.22,0,3.07a5.87,5.87,0,0,0,5.29,0C136.3,98.22,136.29,96.85,134.83,96Zm-.22,2.81a5.34,5.34,0,0,1-4.83,0c-1.34-.77-1.35-2,0-2.8a5.36,5.36,0,0,1,4.84,0C135.94,96.78,135.94,98,134.61,98.81Z" fill="url(#i)" style="mix-blend-mode: multiply"/></g></mask><linearGradient id="fg" x1="135.16" y1="99.14" x2="129.77" y2="96.22" xlink:href="#eq"/><clipPath id="fh"><path d="M89.23,143.81v1.74a1.85,1.85,0,0,1-1.08,1.52,5.83,5.83,0,0,1-5.3,0,1.86,1.86,0,0,1-1.11-1.54v-1.75a1.88,1.88,0,0,0,1.1,1.55,5.83,5.83,0,0,0,5.3,0A1.86,1.86,0,0,0,89.23,143.81Z" fill="none"/></clipPath><linearGradient id="fi" x1="88.96" y1="145.75" x2="81.62" y2="145.75" xlink:href="#ek"/><linearGradient id="fj" x1="81.74" y1="143.79" x2="89.23" y2="143.79" xlink:href="#el"/><linearGradient id="fk" x1="83.3" y1="144.94" x2="87.87" y2="142.11" xlink:href="#ek"/><linearGradient id="fl" x1="83.3" y1="144.93" x2="87.87" y2="142.11" xlink:href="#ek"/><filter id="fn" x="81.74" y="141.63" width="7.49" height="4.34" filterUnits="userSpaceOnUse" color-interpolation-filters="sRGB"/><mask id="fm" x="81.74" y="141.63" width="7.49" height="4.34" maskUnits="userSpaceOnUse"><g mask="url(#j)" filter="url(#fn)"><path d="M88.12,142.26a5.81,5.81,0,0,0-5.29,0c-1.46.85-1.45,2.22,0,3.07a5.83,5.83,0,0,0,5.3,0C89.6,144.48,89.59,143.11,88.12,142.26Zm-.21,2.81a5.3,5.3,0,0,1-4.84,0c-1.34-.77-1.34-2,0-2.8a5.34,5.34,0,0,1,4.83,0C89.23,143.05,89.24,144.3,87.91,145.07Z" fill="url(#l)" style="mix-blend-mode: multiply"/></g></mask><linearGradient id="fo" x1="88.46" y1="145.41" x2="83.07" y2="142.49" xlink:href="#eq"/><clipPath id="fp"><path d="M92.21,149.09v1.75a1.89,1.89,0,0,1-1.09,1.52,5.83,5.83,0,0,1-5.3,0,1.86,1.86,0,0,1-1.11-1.54v-1.75a1.9,1.9,0,0,0,1.1,1.55,5.89,5.89,0,0,0,5.3,0A1.86,1.86,0,0,0,92.21,149.09Z" fill="none"/></clipPath><linearGradient id="fq" x1="91.94" y1="151.03" x2="84.6" y2="151.03" xlink:href="#ek"/><linearGradient id="fr" x1="84.72" y1="149.08" x2="92.21" y2="149.08" xlink:href="#el"/><linearGradient id="fs" x1="86.28" y1="150.23" x2="90.86" y2="147.4" xlink:href="#ek"/><linearGradient id="ft" x1="86.28" y1="150.22" x2="90.85" y2="147.39" xlink:href="#ek"/><filter id="fv" x="84.72" y="146.91" width="7.49" height="4.34" filterUnits="userSpaceOnUse" color-interpolation-filters="sRGB"/><mask id="fu" x="84.72" y="146.91" width="7.49" height="4.34" maskUnits="userSpaceOnUse"><g mask="url(#m)" filter="url(#fv)"><path d="M91.1,147.55a5.81,5.81,0,0,0-5.29,0c-1.46.85-1.45,2.22,0,3.07a5.89,5.89,0,0,0,5.3,0C92.58,149.77,92.57,148.4,91.1,147.55Zm-.21,2.81a5.34,5.34,0,0,1-4.83,0c-1.34-.77-1.35-2,0-2.8a5.34,5.34,0,0,1,4.83,0C92.21,148.33,92.22,149.59,90.89,150.36Z" fill="url(#o)" style="mix-blend-mode: multiply"/></g></mask><linearGradient id="fw" x1="91.44" y1="150.7" x2="86.05" y2="147.77" xlink:href="#eq"/><linearGradient id="fx" data-name="¡ÂÁ˚ÏˇÌÌ˚È „‡‰ËÂÌÚ 2605" x1="90.58" y1="127.5" x2="87.3" y2="127.5" gradientUnits="userSpaceOnUse"><stop offset="0" stop-color="#cdc9be"/><stop offset="0.27" stop-color="#d2cec4"/><stop offset="0.61" stop-color="#dfdbd3"/><stop offset="0.73" stop-color="#e6e2db"/></linearGradient><linearGradient id="fy" x1="61.42" y1="110.86" x2="60.11" y2="110.86" xlink:href="#fx"/><linearGradient id="fz" data-name="¡ÂÁ˚ÏˇÌÌ˚È „‡‰ËÂÌÚ 2" x1="143.02" y1="118.09" x2="155.81" y2="118.09" gradientTransform="translate(-35.65)" gradientUnits="userSpaceOnUse"><stop offset="0" stop-color="#9c9e9f"/><stop offset="0.47" stop-color="#acaeaf"/><stop offset="1" stop-color="#c4c6c7"/></linearGradient><clipPath id="ga"><path d="M130.34,125.26l-3.26,1.88c-.38.22-.69.09-.69-.29a1.44,1.44,0,0,1,.69-1.09l3.26-1.87c.38-.22.69-.09.69.29A1.42,1.42,0,0,1,130.34,125.26Z" fill="#342f2f"/></clipPath></defs><title>VIYA PREGNANCY FAQs</title><g style="isolation: isolate"><g><ellipse cx="84.34" cy="121.46" rx="84.34" ry="48.69" fill="#2a7c84" style="mix-blend-mode: multiply"/><ellipse cx="84.34" cy="109.22" rx="84.34" ry="48.69" fill="#fcc"/><g opacity="0.4" style="mix-blend-mode: multiply"><path d="M100.42,133.49l.35-.2c-9.89-5.89-27.16-15.52-38.66-20.95a5.46,5.46,0,0,0-4.63.14c-1.26.73-1.36,1.89-.23,2.69,9.62,6.78,26.68,16.94,36.29,22.32l1.78-1,3.93,1.2,14.55,8.4,4.19-2.42Z" fill="#4c4242"/><path d="M140.61,116.5,95.78,90.64a9,9,0,0,0-8.15,0l-22.56,13c-2.25,1.31-2.27,3.42,0,4.72l44.82,25.86a9,9,0,0,0,8.16,0l22.55-13C142.84,119.92,142.85,117.8,140.61,116.5Z" fill="#4c4242"/><path d="M32.1,125.9c-.63.37-.62,1,0,1.33l34.74,20.06a2.56,2.56,0,0,0,2.29,0l19.67-11.43a.7.7,0,0,0,0-1.33l-34.73-20a2.55,2.55,0,0,0-2.3,0Z" fill="#4c4242"/><polygon points="97.03 83.3 25.46 124.62 18.35 120.52 89.92 79.2 97.03 83.3" fill="#4c4242"/><path d="M135.67,99.1c.55,1.19-.67,2.41-2.73,2.73s-4.19-.39-4.74-1.58.67-2.41,2.73-2.73S135.12,97.91,135.67,99.1Z" fill="#4c4242"/><path d="M114,95.92c-9.25,1.43-18.75-1.74-21.23-7.08a6,6,0,0,1-.58-2.73,5.9,5.9,0,0,0,.47,3.73c2.48,5.34,12,8.51,21.23,7.08,7.66-1.19,12.73-5.16,12.83-9.52C125.89,91.35,121,94.82,114,95.92Z" fill="#4c4242"/><path d="M102.6,145.85c.56,1.19-.67,2.41-2.73,2.73s-4.18-.38-4.73-1.57.67-2.42,2.73-2.74S102.05,144.66,102.6,145.85Z" fill="#4c4242"/><path d="M92,150.52c.55,1.2-.68,2.42-2.74,2.74s-4.18-.39-4.73-1.58.67-2.41,2.73-2.73S91.4,149.33,92,150.52Z" fill="#4c4242"/><path d="M88.89,145.22c.55,1.19-.67,2.41-2.73,2.73s-4.19-.38-4.74-1.57.67-2.42,2.74-2.74S88.34,144,88.89,145.22Z" fill="#4c4242"/><path d="M138,89c.55,1.19-.67,2.41-2.73,2.73s-4.19-.38-4.74-1.58.67-2.41,2.74-2.73S137.49,87.8,138,89Z" fill="#4c4242"/></g><g><g><g><g><polygon points="24.49 121.33 22.76 120.33 22.76 42.95 24.49 43.95 24.49 121.33" fill="#d8d8d8"/><polygon points="94.7 80.79 24.49 121.33 24.49 43.95 94.7 3.42 94.7 80.79" fill="#c1c1c1"/></g><path d="M94.7,3.41V63.84c0,17,6.31,17.85,6.31,17.85L30.79,122.23s-6.3-.9-6.32-18.77l0-59.51Z" fill="url(#p)"/><polygon points="28.19 67.34 90.39 31.43 90.39 57.77 54.84 78.28 54.76 84.96 28.19 100.3 28.19 67.34" fill="#c1c1c1" opacity="0.5"/><path d="M28,67.24v33.37L54.93,85.07V78.44L90.56,57.87V31.12Zm8.91,28-8.71,5V93.87l8.71-5Zm0-6.63-8.71,5V87.24l8.71-5Zm0-6.63-8.71,5v-6.4l8.71-5Zm0-6.63-8.71,5V74l8.71-5Zm0-6.63-8.71,5V67.36l8.71-5Zm8.9,21.37-8.7,5v-6.4l8.7-5Zm0-6.63-8.7,5V82.1l8.7-5Zm0-6.62-8.7,5V75.47l8.7-5Zm0-6.63-8.7,5v-6.4l8.7-5Zm0-6.63-8.7,5v-6.4l8.7-5ZM54.73,85,46,90v-6.4l8.71-5Zm0-6.63-8.71,5V77l8.71-5Zm0-6.63-8.71,5V70.33l8.71-5Zm0-6.62-8.71,5V63.7l8.71-5Zm0-6.63-8.71,5V57.07l8.71-5Zm8.91,14.74-8.71,5v-6.4l8.71-5Zm0-6.63-8.71,5v-6.4l8.71-5Zm0-6.63-8.71,5v-6.4l8.71-5Zm0-6.62-8.71,5V51.93l8.71-5ZM72.55,68l-8.71,5V66.67l8.71-5Zm0-6.63-8.71,5V60l8.71-5Zm0-6.63-8.71,5v-6.4l8.71-5Zm0-6.63-8.71,5v-6.4l8.71-5Zm8.9,14.74-8.7,5v-6.4l8.7-5Zm0-6.62-8.7,5V54.9l8.7-5Zm0-6.63-8.7,5V48.27l8.7-5Zm0-6.63-8.7,5v-6.4l8.7-5Zm8.91,14.74-8.7,5v-6.4l8.7-5Zm0-6.63-8.7,5v-6.4l8.7-5Zm0-6.63-8.7,5V43.13l8.7-5Zm0-6.62-8.7,5V36.5l8.7-5Z" fill="#999"/><g><polygon points="35.99 57.9 29.27 61.78 29.27 58.91 35.99 55.03 35.99 57.9" fill="#565656"/><polygon points="44.89 52.76 38.17 56.65 38.17 53.77 44.89 49.89 44.89 52.76" fill="#565656"/><polygon points="53.73 47.66 47.01 51.54 47.01 48.66 53.73 44.78 53.73 47.66" fill="#565656"/><polygon points="62.63 42.52 55.91 46.4 55.91 43.53 62.63 39.65 62.63 42.52" fill="#565656"/><polygon points="71.59 37.35 64.86 41.23 64.86 38.36 71.59 34.48 71.59 37.35" fill="#565656"/><polygon points="80.43 32.24 73.71 36.12 73.71 33.25 80.43 29.37 80.43 32.24" fill="#d84747"/><polygon points="89.33 27.11 82.61 30.99 82.61 28.11 89.33 24.23 89.33 27.11" fill="#d84747"/></g><polygon points="23.81 43.27 24.49 57.02 94.7 16.49 94.7 3.41 23.81 43.27" fill="#71bbbc"/><polygon points="22.76 42.95 22.76 56.01 24.49 57.01 24.49 43.95 22.76 42.95" fill="#549fa3"/><polygon points="24.49 43.95 22.76 42.95 92.98 2.42 94.7 3.42 24.49 43.95" fill="#89ccce"/></g><path d="M27.11,45.18c.12.14,0,.45-.16.69s-.48.32-.6.18-.05-.44.16-.68S27,45,27.11,45.18Zm6.75-4.06c-.21.24-.28.55-.16.69s.39.06.59-.18.28-.55.16-.69S34.07,40.88,33.86,41.12Zm7.38-4.26c-.21.24-.28.55-.16.69s.39.06.59-.18.28-.55.16-.69S41.45,36.62,41.24,36.86Zm7.35-4.24c-.21.24-.28.55-.16.69s.38,0,.59-.19.28-.54.16-.68S48.79,32.38,48.59,32.62Zm7.29-4.21c-.2.24-.28.55-.16.68s.39.06.6-.18.28-.55.16-.69S56.09,28.17,55.88,28.41Zm7.35-4.24c-.21.24-.28.54-.16.68s.39.06.6-.18.28-.55.16-.69S63.44,23.93,63.23,24.17Zm7.34-4.24c-.2.24-.28.54-.16.68s.39.06.6-.18.28-.55.16-.69S70.78,19.69,70.57,19.93Zm7.35-4.25c-.21.25-.28.55-.16.69s.39.06.6-.18.28-.55.16-.69S78.13,15.44,77.92,15.68Zm7.37-4.25c-.21.24-.28.55-.16.69s.39.05.6-.19.28-.55.16-.69S85.5,11.19,85.29,11.43Zm7.35-4.24c-.21.24-.28.54-.16.68s.39.06.6-.18.28-.55.16-.69S92.85,7,92.64,7.19Z" fill="#565656"/><g><path d="M55.77,21.71a2.7,2.7,0,0,0-2.67-.28,2,2,0,0,0-.91,1.87,5.18,5.18,0,0,0,.63,2.3l.5-.29a4.58,4.58,0,0,1-.55-2,1.49,1.49,0,0,1,.62-1.37,2.16,2.16,0,0,1,2.09.29,6.19,6.19,0,0,1,3,4.71,1.48,1.48,0,0,1-.56,1.32,1.76,1.76,0,0,1-1.65,0,.29.29,0,0,0-.22.54A3.19,3.19,0,0,0,57.2,29a1.87,1.87,0,0,0,1-.3,2.1,2.1,0,0,0,.81-1.81A6.85,6.85,0,0,0,55.77,21.71Z" fill="#d8d8d8"/><path d="M41.09,30.19a2.7,2.7,0,0,0-2.67-.28,2,2,0,0,0-.91,1.86,5.3,5.3,0,0,0,.62,2.31l.51-.29a4.62,4.62,0,0,1-.55-2,1.47,1.47,0,0,1,.62-1.36,2.18,2.18,0,0,1,2.09.28,6.24,6.24,0,0,1,3,4.72,1.49,1.49,0,0,1-.56,1.32,1.76,1.76,0,0,1-1.65,0,.29.29,0,1,0-.22.54,3.16,3.16,0,0,0,1.15.24,1.87,1.87,0,0,0,1-.3,2.07,2.07,0,0,0,.81-1.8A6.87,6.87,0,0,0,41.09,30.19Z" fill="#d8d8d8"/><path d="M26.41,38.67a2.7,2.7,0,0,0-2.67-.29,2,2,0,0,0-.91,1.87,5.34,5.34,0,0,0,.62,2.31l.5-.29a4.78,4.78,0,0,1-.54-2A1.5,1.5,0,0,1,24,38.88a2.18,2.18,0,0,1,2.09.29,6.24,6.24,0,0,1,3,4.71,1.54,1.54,0,0,1-.56,1.33,1.76,1.76,0,0,1-1.65,0,.29.29,0,0,0-.38.16.28.28,0,0,0,.16.37,2.94,2.94,0,0,0,1.14.25,1.83,1.83,0,0,0,1.05-.3,2.09,2.09,0,0,0,.82-1.81A6.86,6.86,0,0,0,26.41,38.67Z" fill="#d8d8d8"/><path d="M33.75,34.43a2.7,2.7,0,0,0-2.67-.29A2,2,0,0,0,30.17,36a5.34,5.34,0,0,0,.62,2.31L31.3,38a4.62,4.62,0,0,1-.55-2,1.47,1.47,0,0,1,.62-1.36,2.15,2.15,0,0,1,2.09.28,6.24,6.24,0,0,1,3,4.71A1.51,1.51,0,0,1,35.9,41a1.76,1.76,0,0,1-1.65,0,.29.29,0,0,0-.22.54,3.12,3.12,0,0,0,1.15.24,1.82,1.82,0,0,0,1-.3A2.07,2.07,0,0,0,37,39.64,6.87,6.87,0,0,0,33.75,34.43Z" fill="#d8d8d8"/><path d="M48.43,26a2.7,2.7,0,0,0-2.67-.28,2,2,0,0,0-.91,1.86,5.3,5.3,0,0,0,.62,2.31l.51-.29a4.62,4.62,0,0,1-.55-2,1.48,1.48,0,0,1,.62-1.36,2.16,2.16,0,0,1,2.09.29,6.2,6.2,0,0,1,3,4.71,1.49,1.49,0,0,1-.56,1.32,1.76,1.76,0,0,1-1.65,0,.29.29,0,0,0-.22.54,3.16,3.16,0,0,0,1.15.24,1.87,1.87,0,0,0,1-.3,2.07,2.07,0,0,0,.81-1.8A6.87,6.87,0,0,0,48.43,26Z" fill="#d8d8d8"/><path d="M85.13,4.76a2.7,2.7,0,0,0-2.67-.28,2,2,0,0,0-.91,1.86,5.19,5.19,0,0,0,.63,2.31l.5-.29a4.62,4.62,0,0,1-.55-2A1.47,1.47,0,0,1,82.75,5a2.18,2.18,0,0,1,2.09.28,6.21,6.21,0,0,1,3,4.72,1.51,1.51,0,0,1-.55,1.32,1.78,1.78,0,0,1-1.66,0,.28.28,0,0,0-.37.16.29.29,0,0,0,.16.38,3.07,3.07,0,0,0,1.14.24,1.85,1.85,0,0,0,1-.3,2.05,2.05,0,0,0,.82-1.8A6.86,6.86,0,0,0,85.13,4.76Z" fill="#d8d8d8"/><path d="M92.47.52A2.7,2.7,0,0,0,89.8.24a2,2,0,0,0-.91,1.87,5.18,5.18,0,0,0,.63,2.3l.5-.29a4.62,4.62,0,0,1-.55-2A1.49,1.49,0,0,1,90.09.74,2.16,2.16,0,0,1,92.18,1a6.19,6.19,0,0,1,3,4.71,1.5,1.5,0,0,1-.55,1.32,1.76,1.76,0,0,1-1.65,0,.29.29,0,0,0-.22.54,3.14,3.14,0,0,0,1.14.25,1.78,1.78,0,0,0,1-.31,2.05,2.05,0,0,0,.82-1.8A5.78,5.78,0,0,0,94.7,2.68,7.06,7.06,0,0,0,92.47.52Z" fill="#d8d8d8"/><path d="M77.79,9a2.7,2.7,0,0,0-2.67-.29,2,2,0,0,0-.91,1.87,5.19,5.19,0,0,0,.63,2.31l.5-.29a4.62,4.62,0,0,1-.55-2,1.47,1.47,0,0,1,.62-1.36,2.15,2.15,0,0,1,2.09.28,6.21,6.21,0,0,1,3,4.71,1.51,1.51,0,0,1-.56,1.33,1.76,1.76,0,0,1-1.65,0,.29.29,0,0,0-.21.54,3.07,3.07,0,0,0,1.14.24,1.87,1.87,0,0,0,1-.3,2.08,2.08,0,0,0,.81-1.81A6.85,6.85,0,0,0,77.79,9Z" fill="#d8d8d8"/><path d="M63.11,17.48a2.7,2.7,0,0,0-2.67-.29,2,2,0,0,0-.91,1.87,5.18,5.18,0,0,0,.63,2.3l.5-.29a4.58,4.58,0,0,1-.55-2,1.5,1.5,0,0,1,.62-1.37,2.18,2.18,0,0,1,2.09.29,6.21,6.21,0,0,1,3,4.71A1.51,1.51,0,0,1,65.26,24a1.82,1.82,0,0,1-1.65,0,.29.29,0,0,0-.38.16.29.29,0,0,0,.16.37,3,3,0,0,0,1.15.25,1.87,1.87,0,0,0,1-.3,2.1,2.1,0,0,0,.81-1.81A6.81,6.81,0,0,0,63.11,17.48Z" fill="#d8d8d8"/><path d="M70.45,13.24A2.7,2.7,0,0,0,67.78,13a2,2,0,0,0-.91,1.87,5.22,5.22,0,0,0,.63,2.31l.5-.29a4.62,4.62,0,0,1-.55-2,1.47,1.47,0,0,1,.62-1.36,2.15,2.15,0,0,1,2.09.28,6.21,6.21,0,0,1,3,4.71,1.51,1.51,0,0,1-.56,1.33,1.76,1.76,0,0,1-1.65,0,.28.28,0,0,0-.37.16.28.28,0,0,0,.16.38,3.07,3.07,0,0,0,1.14.24,1.87,1.87,0,0,0,1.05-.3,2.09,2.09,0,0,0,.81-1.81A6.83,6.83,0,0,0,70.45,13.24Z" fill="#d8d8d8"/></g><g><path d="M95.56,4.81a6.48,6.48,0,0,0-.87-2A7.8,7.8,0,0,0,93.2,1.13,4.46,4.46,0,0,0,92.35.6a7.86,7.86,0,0,1,2.19,2.27,6.53,6.53,0,0,1,.93,2,4.41,4.41,0,0,1,.17,1A3.27,3.27,0,0,0,95.56,4.81Z" fill="#d8d8d8" opacity="0.8" style="mix-blend-mode: screen"/><path d="M88.22,9.05a6.72,6.72,0,0,0-.87-2,7.8,7.8,0,0,0-1.49-1.64A4.93,4.93,0,0,0,85,4.83,8,8,0,0,1,87.2,7.11a6.25,6.25,0,0,1,.92,2,4.15,4.15,0,0,1,.18,1A3.27,3.27,0,0,0,88.22,9.05Z" fill="#d8d8d8" opacity="0.8" style="mix-blend-mode: screen"/><path d="M80.89,13.28a6.94,6.94,0,0,0-.87-2,7.49,7.49,0,0,0-1.49-1.63,4.26,4.26,0,0,0-.85-.54,7.86,7.86,0,0,1,2.19,2.27,6.35,6.35,0,0,1,.92,2,4.15,4.15,0,0,1,.18,1A3.27,3.27,0,0,0,80.89,13.28Z" fill="#d8d8d8" opacity="0.8" style="mix-blend-mode: screen"/><path d="M73.54,17.52a6.78,6.78,0,0,0-.86-2,7.83,7.83,0,0,0-1.5-1.64,4.24,4.24,0,0,0-.84-.53,7.86,7.86,0,0,1,2.19,2.27,6.48,6.48,0,0,1,.92,2,4.15,4.15,0,0,1,.18,1A3.53,3.53,0,0,0,73.54,17.52Z" fill="#d8d8d8" opacity="0.8" style="mix-blend-mode: screen"/><path d="M66.2,21.76a6.48,6.48,0,0,0-.87-2,7.8,7.8,0,0,0-1.49-1.64,4.46,4.46,0,0,0-.85-.53,7.86,7.86,0,0,1,2.19,2.27,6.53,6.53,0,0,1,.93,2,4.41,4.41,0,0,1,.17,1A3.27,3.27,0,0,0,66.2,21.76Z" fill="#d8d8d8" opacity="0.8" style="mix-blend-mode: screen"/><path d="M58.86,26A6.48,6.48,0,0,0,58,24a7.8,7.8,0,0,0-1.49-1.64,4.93,4.93,0,0,0-.85-.54,8,8,0,0,1,2.19,2.28,6.53,6.53,0,0,1,.93,2,4.41,4.41,0,0,1,.17,1A3.27,3.27,0,0,0,58.86,26Z" fill="#d8d8d8" opacity="0.8" style="mix-blend-mode: screen"/><path d="M51.53,30.23a6.68,6.68,0,0,0-.87-2,7.49,7.49,0,0,0-1.49-1.63,4.26,4.26,0,0,0-.85-.54,7.86,7.86,0,0,1,2.19,2.27,6.64,6.64,0,0,1,.93,2,4.41,4.41,0,0,1,.17,1A3.27,3.27,0,0,0,51.53,30.23Z" fill="#d8d8d8" opacity="0.8" style="mix-blend-mode: screen"/><path d="M44.19,34.47a6.94,6.94,0,0,0-.87-2,7.27,7.27,0,0,0-1.5-1.63,4.06,4.06,0,0,0-.84-.54,7.86,7.86,0,0,1,2.19,2.27,6.48,6.48,0,0,1,.92,2,4.15,4.15,0,0,1,.18,1A3.72,3.72,0,0,0,44.19,34.47Z" fill="#d8d8d8" opacity="0.8" style="mix-blend-mode: screen"/><path d="M36.83,38.71a6.89,6.89,0,0,0-.86-2A7.75,7.75,0,0,0,34.47,35a4.67,4.67,0,0,0-.84-.54,7.86,7.86,0,0,1,2.19,2.27,6.52,6.52,0,0,1,.92,2,4.12,4.12,0,0,1,.18,1A3.54,3.54,0,0,0,36.83,38.71Z" fill="#d8d8d8" opacity="0.8" style="mix-blend-mode: screen"/><path d="M29.49,43a6.68,6.68,0,0,0-.87-2,7.73,7.73,0,0,0-1.49-1.63,4.26,4.26,0,0,0-.85-.54A7.86,7.86,0,0,1,28.47,41a6.64,6.64,0,0,1,.93,2,4.5,4.5,0,0,1,.17,1A3.28,3.28,0,0,0,29.49,43Z" fill="#d8d8d8" opacity="0.8" style="mix-blend-mode: screen"/></g></g><g><path d="M121.41,80.1c6.23,3.6,6.27,9.44.07,13s-16.27,3.59-22.51,0-6.26-9.44-.07-13S115.18,76.5,121.41,80.1Z" fill="#de5b00" opacity="0.5"/><g><g><g><path d="M125,84.27a2.46,2.46,0,0,0-2.5,0l-2.13,1.24-.82.47-2.13,1.23a2.47,2.47,0,1,0,2.47,4.27l2.13-1.23.82-.47L125,88.53a2.47,2.47,0,0,0,1.24-2.12A2.44,2.44,0,0,0,125,84.27Z" fill="url(#q)"/><path d="M125,84.27a2.46,2.46,0,0,0-2.5,0l-2.13,1.24-.5.28a1.54,1.54,0,0,1,1.31.23,3.87,3.87,0,0,1,1.88,3,1.14,1.14,0,0,1-.31.85l.09,0L125,88.53a2.47,2.47,0,0,0,1.24-2.12A2.44,2.44,0,0,0,125,84.27Z" fill="url(#r)"/><path d="M124.17,85l-5.61,3.24a1.23,1.23,0,0,1-1.12,0c-.31-.18-.31-.47,0-.64l5.62-3.25a1.21,1.21,0,0,1,1.11,0A.34.34,0,0,1,124.17,85Z" opacity="0.6" fill="url(#s)" style="mix-blend-mode: screen"/></g><g><path d="M115.94,76.2a2.48,2.48,0,0,0-2.51,0l-2.13,1.23-.82.48-2.13,1.23a2.47,2.47,0,1,0,2.47,4.27L113,82.17l.81-.47,2.14-1.24a2.49,2.49,0,0,0,1.24-2.12A2.43,2.43,0,0,0,115.94,76.2Z" fill="url(#t)"/><path d="M115.94,76.2a2.48,2.48,0,0,0-2.51,0l-2.13,1.23-.49.29a1.55,1.55,0,0,1,1.3.22,3.9,3.9,0,0,1,1.88,3,1.1,1.1,0,0,1-.31.85l.09,0,2.14-1.24a2.49,2.49,0,0,0,1.24-2.12A2.43,2.43,0,0,0,115.94,76.2Z" fill="url(#u)"/><path d="M115.07,77l-5.62,3.25a1.21,1.21,0,0,1-1.11,0,.34.34,0,0,1,0-.65L114,76.32a1.23,1.23,0,0,1,1.12,0C115.38,76.5,115.38,76.79,115.07,77Z" opacity="0.6" fill="url(#v)" style="mix-blend-mode: screen"/></g><g><path d="M115.47,83.8a2.44,2.44,0,0,0-2.5,0L110.84,85l-.82.47-2.13,1.24A2.47,2.47,0,1,0,110.36,91l2.13-1.23.82-.48,2.13-1.23a2.47,2.47,0,0,0,0-4.27Z" fill="url(#w)"/><path d="M115.47,83.8a2.44,2.44,0,0,0-2.5,0L110.84,85l-.5.29a1.54,1.54,0,0,1,1.31.22,3.9,3.9,0,0,1,1.88,3,1.14,1.14,0,0,1-.31.85l.09,0,2.13-1.23a2.47,2.47,0,0,0,0-4.27Z" fill="url(#x)"/><path d="M114.6,84.57,109,87.81a1.23,1.23,0,0,1-1.12,0c-.31-.17-.31-.46,0-.64l5.62-3.24a1.21,1.21,0,0,1,1.11,0C114.91,84.1,114.91,84.39,114.6,84.57Z" opacity="0.6" fill="url(#y)" style="mix-blend-mode: screen"/></g><g><path d="M123.79,81.42a2.48,2.48,0,0,0-2.12-1.34L119.21,80l-.94,0-2.46-.09a2.47,2.47,0,1,0-.19,4.93l2.46.09.94,0,2.47.09a2.47,2.47,0,0,0,2.3-3.59Z" fill="url(#z)"/><path d="M123.79,81.42a2.48,2.48,0,0,0-2.12-1.34L119.21,80l-.57,0a1.52,1.52,0,0,1,1,.88,3.9,3.9,0,0,1,0,3.51,1.15,1.15,0,0,1-.72.55h.1l2.47.09a2.47,2.47,0,0,0,2.3-3.59Z" fill="url(#aa)"/><path d="M122.64,81.61l-6.48-.26a1.22,1.22,0,0,1-.94-.59c-.17-.31,0-.56.34-.54l6.48.25a1.24,1.24,0,0,1,.95.59C123.15,81.38,123,81.62,122.64,81.61Z" opacity="0.6" fill="url(#ab)" style="mix-blend-mode: screen"/></g><g><path d="M105.26,77.94a2.45,2.45,0,0,0-2.5.18l-2,1.39-.79.53-2,1.39a2.5,2.5,0,0,0-1.08,2.21,2.46,2.46,0,0,0,3.86,1.87l2-1.39.78-.54,2-1.39a2.46,2.46,0,0,0,1.08-2.2A2.43,2.43,0,0,0,105.26,77.94Z" fill="url(#ac)"/><path d="M105.26,77.94a2.45,2.45,0,0,0-2.5.18l-2,1.39-.48.32a1.52,1.52,0,0,1,1.32.13,3.91,3.91,0,0,1,2.1,2.81,1.11,1.11,0,0,1-.25.87l.09-.06,2-1.39a2.46,2.46,0,0,0,1.08-2.2A2.43,2.43,0,0,0,105.26,77.94Z" fill="url(#ad)"/><path d="M104.45,78.77l-5.36,3.65a1.25,1.25,0,0,1-1.11.09c-.32-.16-.35-.45,0-.65l5.36-3.65a1.21,1.21,0,0,1,1.11-.08A.34.34,0,0,1,104.45,78.77Z" opacity="0.6" fill="url(#ae)" style="mix-blend-mode: screen"/></g><g><path d="M111.27,74.8a2.47,2.47,0,0,0-2.22-1.17l-2.46.11-.94,0-2.46.11a2.47,2.47,0,1,0,.21,4.93l2.46-.11,1,0,2.46-.11a2.48,2.48,0,0,0,2.08-1.3A2.42,2.42,0,0,0,111.27,74.8Z" fill="url(#af)"/><path d="M111.27,74.8a2.47,2.47,0,0,0-2.22-1.17l-2.46.11-.57,0a1.57,1.57,0,0,1,1.06.81,3.89,3.89,0,0,1,.29,3.49,1.12,1.12,0,0,1-.67.61h.11l2.46-.11a2.48,2.48,0,0,0,2.08-1.3A2.42,2.42,0,0,0,111.27,74.8Z" fill="url(#ag)"/><path d="M110.14,75.07l-6.48.28a1.28,1.28,0,0,1-1-.52c-.19-.3,0-.55.3-.57l6.48-.27a1.21,1.21,0,0,1,1,.51C110.63,74.8,110.5,75.06,110.14,75.07Z" opacity="0.6" fill="url(#ah)" style="mix-blend-mode: screen"/></g><g><path d="M108.59,83.07a2.44,2.44,0,0,0-2.43-.58l-2.36.7-.91.27-2.36.71A2.47,2.47,0,1,0,102,88.9l2.36-.71.9-.27,2.36-.71a2.47,2.47,0,0,0,1.7-1.77A2.42,2.42,0,0,0,108.59,83.07Z" fill="url(#ai)"/><path d="M108.59,83.07a2.44,2.44,0,0,0-2.43-.58l-2.36.7-.55.17a1.5,1.5,0,0,1,1.22.52,3.88,3.88,0,0,1,1.14,3.31,1.11,1.11,0,0,1-.5.76l.1,0,2.36-.71a2.47,2.47,0,0,0,1.7-1.77A2.42,2.42,0,0,0,108.59,83.07Z" fill="url(#aj)"/><path d="M107.57,83.62l-6.22,1.85a1.21,1.21,0,0,1-1.08-.26c-.26-.24-.19-.52.15-.62l6.21-1.86a1.26,1.26,0,0,1,1.09.26C108,83.24,107.91,83.52,107.57,83.62Z" opacity="0.6" fill="url(#ak)" style="mix-blend-mode: screen"/></g><g><path d="M111.15,91.06a2.45,2.45,0,0,0-1.78-1.75L107,88.7l-.91-.24-2.39-.61a2.49,2.49,0,0,0-2.37.65,2.46,2.46,0,0,0,1.15,4.13l2.38.61.92.24,2.39.61a2.5,2.5,0,0,0,2.37-.65A2.44,2.44,0,0,0,111.15,91.06Z" fill="url(#al)"/><path d="M111.15,91.06a2.45,2.45,0,0,0-1.78-1.75L107,88.7l-.55-.15a1.56,1.56,0,0,1,.78,1.08,3.92,3.92,0,0,1-.73,3.43,1.12,1.12,0,0,1-.82.39l.1,0,2.39.61a2.5,2.5,0,0,0,2.37-.65A2.44,2.44,0,0,0,111.15,91.06Z" fill="url(#am)"/><path d="M110,91l-6.29-1.61a1.23,1.23,0,0,1-.79-.78c-.1-.34.1-.55.45-.46l6.28,1.61a1.24,1.24,0,0,1,.8.78C110.54,90.89,110.34,91.09,110,91Z" opacity="0.6" fill="url(#an)" style="mix-blend-mode: screen"/></g><g><path d="M118.91,90.29a2.46,2.46,0,0,0-1.78-1.76l-2.39-.61-.91-.23-2.39-.61a2.47,2.47,0,1,0-1.22,4.78l2.39.61.91.23,2.39.61a2.5,2.5,0,0,0,2.37-.64A2.44,2.44,0,0,0,118.91,90.29Z" fill="url(#ao)"/><path d="M118.91,90.29a2.46,2.46,0,0,0-1.78-1.76l-2.39-.61-.55-.14a1.57,1.57,0,0,1,.78,1.07,3.91,3.91,0,0,1-.73,3.43,1.09,1.09,0,0,1-.82.39l.1,0,2.39.61a2.5,2.5,0,0,0,2.37-.64A2.44,2.44,0,0,0,118.91,90.29Z" fill="url(#ap)"/><path d="M117.76,90.23l-6.29-1.62a1.19,1.19,0,0,1-.79-.78c-.1-.34.1-.54.45-.46L117.41,89a1.24,1.24,0,0,1,.8.78C118.3,90.11,118.1,90.32,117.76,90.23Z" opacity="0.6" fill="url(#aq)" style="mix-blend-mode: screen"/></g><g><path d="M101.76,80.45a2.47,2.47,0,0,0-2.45.51l-1.84,1.65-.7.63-1.83,1.65a2.47,2.47,0,1,0,3.3,3.67l1.83-1.65.7-.63,1.84-1.65a2.48,2.48,0,0,0,.77-2.33A2.43,2.43,0,0,0,101.76,80.45Z" fill="url(#ar)"/><path d="M101.76,80.45a2.47,2.47,0,0,0-2.45.51l-1.84,1.65-.42.38a1.54,1.54,0,0,1,1.32,0,3.87,3.87,0,0,1,2.45,2.51,1.1,1.1,0,0,1-.13.9l.08-.07,1.84-1.65a2.48,2.48,0,0,0,.77-2.33A2.43,2.43,0,0,0,101.76,80.45Z" fill="url(#as)"/><path d="M101.06,81.38l-4.82,4.33a1.23,1.23,0,0,1-1.09.23.34.34,0,0,1-.14-.63L99.84,81a1.23,1.23,0,0,1,1.09-.23C101.27,80.86,101.33,81.14,101.06,81.38Z" opacity="0.6" fill="url(#at)" style="mix-blend-mode: screen"/></g></g><g><g><path d="M125,75.81a2.46,2.46,0,0,0-2.5,0L120.41,77l-.82.47-2.13,1.24A2.47,2.47,0,1,0,119.93,83l2.13-1.23.82-.48L125,80.08a2.47,2.47,0,0,0,0-4.27Z" fill="url(#au)"/><path d="M125,75.81a2.46,2.46,0,0,0-2.5,0L120.41,77l-.5.29a1.54,1.54,0,0,1,1.31.22,3.9,3.9,0,0,1,1.88,3,1.18,1.18,0,0,1-.31.86l.09-.06L125,80.08a2.47,2.47,0,0,0,0-4.27Z" fill="url(#av)"/><path d="M124.17,76.58l-5.61,3.24a1.23,1.23,0,0,1-1.12,0c-.31-.17-.31-.46,0-.64l5.62-3.24a1.21,1.21,0,0,1,1.11,0C124.48,76.11,124.48,76.4,124.17,76.58Z" opacity="0.6" fill="url(#aw)" style="mix-blend-mode: screen"/></g><g><path d="M115.94,67.74a2.45,2.45,0,0,0-2.51,0L111.3,69l-.82.47-2.13,1.24A2.47,2.47,0,1,0,110.82,75L113,73.71l.81-.47L115.91,72a2.51,2.51,0,0,0,1.24-2.12A2.45,2.45,0,0,0,115.94,67.74Z" fill="url(#ax)"/><path d="M115.94,67.74a2.45,2.45,0,0,0-2.51,0L111.3,69l-.49.29a1.51,1.51,0,0,1,1.3.22,3.88,3.88,0,0,1,1.88,3,1.1,1.1,0,0,1-.31.85l.09-.05L115.91,72a2.51,2.51,0,0,0,1.24-2.12A2.45,2.45,0,0,0,115.94,67.74Z" fill="url(#ay)"/><path d="M115.07,68.51l-5.62,3.24a1.21,1.21,0,0,1-1.11,0c-.31-.17-.31-.46,0-.64L114,67.87a1.23,1.23,0,0,1,1.12,0C115.38,68,115.38,68.33,115.07,68.51Z" opacity="0.6" fill="url(#az)" style="mix-blend-mode: screen"/></g><g><path d="M115.47,75.35a2.46,2.46,0,0,0-2.5,0l-2.13,1.23-.82.48-2.13,1.23a2.48,2.48,0,0,0-1.24,2.12,2.46,2.46,0,0,0,3.71,2.15l2.13-1.23.82-.47,2.13-1.24a2.47,2.47,0,0,0,1.24-2.12A2.44,2.44,0,0,0,115.47,75.35Z" fill="url(#ba)"/><path d="M115.47,75.35a2.46,2.46,0,0,0-2.5,0l-2.13,1.23-.5.29a1.54,1.54,0,0,1,1.31.23,3.87,3.87,0,0,1,1.88,3,1.14,1.14,0,0,1-.31.85l.09-.05,2.13-1.24a2.47,2.47,0,0,0,1.24-2.12A2.44,2.44,0,0,0,115.47,75.35Z" fill="url(#bb)"/><path d="M114.6,76.11,109,79.36a1.23,1.23,0,0,1-1.12,0c-.31-.18-.31-.47,0-.64l5.62-3.25a1.21,1.21,0,0,1,1.11,0C114.91,75.65,114.91,75.94,114.6,76.11Z" opacity="0.6" fill="url(#bc)" style="mix-blend-mode: screen"/></g><g><path d="M123.79,73a2.45,2.45,0,0,0-2.12-1.34l-2.46-.1-.94,0-2.46-.1a2.47,2.47,0,1,0-.19,4.93l2.46.1.94,0,2.47.1a2.51,2.51,0,0,0,2.18-1.13A2.46,2.46,0,0,0,123.79,73Z" fill="url(#bd)"/><path d="M123.79,73a2.45,2.45,0,0,0-2.12-1.34l-2.46-.1-.57,0a1.57,1.57,0,0,1,1,.89,3.88,3.88,0,0,1,0,3.5,1.14,1.14,0,0,1-.72.56h.1l2.47.1a2.51,2.51,0,0,0,2.18-1.13A2.46,2.46,0,0,0,123.79,73Z" fill="url(#be)"/><path d="M122.64,73.15l-6.48-.25a1.23,1.23,0,0,1-.94-.6c-.17-.31,0-.55.34-.54L122,72a1.25,1.25,0,0,1,.95.6C123.15,72.92,123,73.17,122.64,73.15Z" opacity="0.6" fill="url(#bf)" style="mix-blend-mode: screen"/></g><g><path d="M105.26,69.48a2.5,2.5,0,0,0-2.5.18l-2,1.39-.79.54-2,1.39a2.49,2.49,0,0,0-1.08,2.2,2.46,2.46,0,0,0,3.86,1.87l2-1.39.78-.53,2-1.39a2.48,2.48,0,0,0,1.08-2.21A2.43,2.43,0,0,0,105.26,69.48Z" fill="url(#bg)"/><path d="M105.26,69.48a2.5,2.5,0,0,0-2.5.18l-2,1.39-.48.33a1.55,1.55,0,0,1,1.32.12,3.91,3.91,0,0,1,2.1,2.81,1.14,1.14,0,0,1-.25.88l.09-.06,2-1.39a2.48,2.48,0,0,0,1.08-2.21A2.43,2.43,0,0,0,105.26,69.48Z" fill="url(#bh)"/><path d="M104.45,70.31,99.09,74a1.21,1.21,0,0,1-1.11.08c-.32-.15-.35-.44,0-.64l5.36-3.66a1.24,1.24,0,0,1,1.11-.08C104.72,69.83,104.74,70.11,104.45,70.31Z" opacity="0.6" fill="url(#bi)" style="mix-blend-mode: screen"/></g><g><path d="M111.27,66.34a2.44,2.44,0,0,0-2.22-1.16l-2.46.1-.94,0-2.46.11a2.47,2.47,0,1,0,.21,4.93l2.46-.1,1-.05,2.46-.1a2.48,2.48,0,0,0,2.08-1.31A2.42,2.42,0,0,0,111.27,66.34Z" fill="url(#bj)"/><path d="M111.27,66.34a2.44,2.44,0,0,0-2.22-1.16l-2.46.1-.57,0a1.58,1.58,0,0,1,1.06.8,3.91,3.91,0,0,1,.29,3.5,1.12,1.12,0,0,1-.67.61h.11l2.46-.1a2.48,2.48,0,0,0,2.08-1.31A2.42,2.42,0,0,0,111.27,66.34Z" fill="url(#bk)"/><path d="M110.14,66.62l-6.48.27a1.24,1.24,0,0,1-1-.51c-.19-.3,0-.56.3-.57l6.48-.28a1.25,1.25,0,0,1,1,.52C110.63,66.35,110.5,66.6,110.14,66.62Z" opacity="0.6" fill="url(#bl)" style="mix-blend-mode: screen"/></g><g><path d="M108.59,74.62a2.46,2.46,0,0,0-2.43-.59l-2.36.71-.91.27-2.36.71A2.46,2.46,0,1,0,102,80.44l2.36-.7.9-.27,2.36-.71a2.47,2.47,0,0,0,1.7-1.78A2.4,2.4,0,0,0,108.59,74.62Z" fill="url(#bm)"/><path d="M108.59,74.62a2.46,2.46,0,0,0-2.43-.59l-2.36.71-.55.16a1.56,1.56,0,0,1,1.22.52,3.9,3.9,0,0,1,1.14,3.32,1.13,1.13,0,0,1-.5.76l.1,0,2.36-.71a2.47,2.47,0,0,0,1.7-1.78A2.4,2.4,0,0,0,108.59,74.62Z" fill="url(#bn)"/><path d="M107.57,75.16,101.35,77a1.24,1.24,0,0,1-1.08-.26c-.26-.24-.19-.52.15-.63l6.21-1.85a1.23,1.23,0,0,1,1.09.26C108,74.78,107.91,75.06,107.57,75.16Z" opacity="0.6" fill="url(#bo)" style="mix-blend-mode: screen"/></g><g><path d="M111.15,82.61a2.46,2.46,0,0,0-1.78-1.76L107,80.24l-.91-.23-2.39-.61a2.49,2.49,0,0,0-2.37.64,2.47,2.47,0,0,0,1.15,4.14l2.38.61.92.23,2.39.61a2.48,2.48,0,0,0,2.37-.64A2.44,2.44,0,0,0,111.15,82.61Z" fill="url(#bp)"/><path d="M111.15,82.61a2.46,2.46,0,0,0-1.78-1.76L107,80.24l-.55-.14a1.57,1.57,0,0,1,.78,1.07,3.91,3.91,0,0,1-.73,3.43,1.14,1.14,0,0,1-.82.4l.1,0,2.39.61a2.48,2.48,0,0,0,2.37-.64A2.44,2.44,0,0,0,111.15,82.61Z" fill="url(#bq)"/><path d="M110,82.55l-6.29-1.62a1.19,1.19,0,0,1-.79-.78c-.1-.34.1-.54.45-.45l6.28,1.61a1.24,1.24,0,0,1,.8.78C110.54,82.43,110.34,82.64,110,82.55Z" opacity="0.6" fill="url(#br)" style="mix-blend-mode: screen"/></g><g><path d="M118.91,81.83a2.43,2.43,0,0,0-1.78-1.75l-2.39-.62-.91-.23-2.39-.61a2.47,2.47,0,1,0-1.22,4.78l2.39.61.91.24,2.39.61a2.5,2.5,0,0,0,2.37-.65A2.44,2.44,0,0,0,118.91,81.83Z" fill="url(#bs)"/><path d="M118.91,81.83a2.43,2.43,0,0,0-1.78-1.75l-2.39-.62-.55-.14A1.56,1.56,0,0,1,115,80.4a3.92,3.92,0,0,1-.73,3.43,1.12,1.12,0,0,1-.82.39l.1,0,2.39.61a2.5,2.5,0,0,0,2.37-.65A2.44,2.44,0,0,0,118.91,81.83Z" fill="url(#bt)"/><path d="M117.76,81.77l-6.29-1.61a1.23,1.23,0,0,1-.79-.78c-.1-.34.1-.55.45-.46l6.28,1.61a1.24,1.24,0,0,1,.8.78C118.3,81.65,118.1,81.86,117.76,81.77Z" opacity="0.6" fill="url(#bu)" style="mix-blend-mode: screen"/></g><g><path d="M101.76,72a2.47,2.47,0,0,0-2.45.51l-1.84,1.65-.7.63-1.83,1.65a2.49,2.49,0,0,0-.78,2.33,2.46,2.46,0,0,0,4.08,1.34l1.83-1.65.7-.63,1.84-1.65a2.47,2.47,0,0,0,.77-2.33A2.43,2.43,0,0,0,101.76,72Z" fill="url(#bv)"/><path d="M101.76,72a2.47,2.47,0,0,0-2.45.51l-1.84,1.65-.42.38a1.54,1.54,0,0,1,1.32,0A3.89,3.89,0,0,1,100.82,77a1.1,1.1,0,0,1-.13.9l.08-.07,1.84-1.65a2.47,2.47,0,0,0,.77-2.33A2.43,2.43,0,0,0,101.76,72Z" fill="url(#bw)"/><path d="M101.06,72.92l-4.82,4.34a1.26,1.26,0,0,1-1.09.23.34.34,0,0,1-.14-.63l4.83-4.34a1.26,1.26,0,0,1,1.09-.23C101.27,72.4,101.33,72.69,101.06,72.92Z" opacity="0.6" fill="url(#bx)" style="mix-blend-mode: screen"/></g></g></g><path d="M126.78,50.15c.1-2.53-1.52-5.09-4.88-7-6.47-3.74-16.94-3.74-23.37,0-3.21,1.87-4.81,4.31-4.8,6.75,0,0-.15,37-.15,37,0,2.46,1.62,4.93,4.88,6.81,6.48,3.74,16.94,3.74,23.38,0,3.19-1.85,4.79-4.28,4.8-6.72l.15-37C126.79,50,126.78,50.08,126.78,50.15Z" opacity="0.7" fill="url(#by)"/><g style="isolation: isolate"><g style="isolation: isolate"><g clip-path="url(#bz)"><path d="M92.65,47.65l0,7.11c0,2.61,1.72,5.24,5.18,7.23,6.87,4,18,4,24.81,0,3.39-2,5.08-4.55,5.09-7.13l0-7.11Z" fill="url(#ca)"/></g></g><ellipse cx="110.19" cy="47.7" rx="10.16" ry="17.54" transform="translate(62.18 157.76) rotate(-89.84)" fill="#f5f2ee"/></g><g opacity="0.3"><g><g><path d="M125,84.27a2.46,2.46,0,0,0-2.5,0l-2.13,1.24-.82.47-2.13,1.23a2.47,2.47,0,1,0,2.47,4.27l2.13-1.23.82-.47L125,88.53a2.47,2.47,0,0,0,1.24-2.12A2.44,2.44,0,0,0,125,84.27Z" fill="url(#q)"/><path d="M125,84.27a2.46,2.46,0,0,0-2.5,0l-2.13,1.24-.5.28a1.54,1.54,0,0,1,1.31.23,3.87,3.87,0,0,1,1.88,3,1.14,1.14,0,0,1-.31.85l.09,0L125,88.53a2.47,2.47,0,0,0,1.24-2.12A2.44,2.44,0,0,0,125,84.27Z" fill="url(#r)"/><path d="M124.17,85l-5.61,3.24a1.23,1.23,0,0,1-1.12,0c-.31-.18-.31-.47,0-.64l5.62-3.25a1.21,1.21,0,0,1,1.11,0A.34.34,0,0,1,124.17,85Z" opacity="0.6" fill="url(#s)" style="mix-blend-mode: screen"/></g><g><path d="M115.94,76.2a2.48,2.48,0,0,0-2.51,0l-2.13,1.23-.82.48-2.13,1.23a2.47,2.47,0,1,0,2.47,4.27L113,82.17l.81-.47,2.14-1.24a2.49,2.49,0,0,0,1.24-2.12A2.43,2.43,0,0,0,115.94,76.2Z" fill="url(#t)"/><path d="M115.94,76.2a2.48,2.48,0,0,0-2.51,0l-2.13,1.23-.49.29a1.55,1.55,0,0,1,1.3.22,3.9,3.9,0,0,1,1.88,3,1.1,1.1,0,0,1-.31.85l.09,0,2.14-1.24a2.49,2.49,0,0,0,1.24-2.12A2.43,2.43,0,0,0,115.94,76.2Z" fill="url(#u)"/><path d="M115.07,77l-5.62,3.25a1.21,1.21,0,0,1-1.11,0,.34.34,0,0,1,0-.65L114,76.32a1.23,1.23,0,0,1,1.12,0C115.38,76.5,115.38,76.79,115.07,77Z" opacity="0.6" fill="url(#v)" style="mix-blend-mode: screen"/></g><g><path d="M115.47,83.8a2.44,2.44,0,0,0-2.5,0L110.84,85l-.82.47-2.13,1.24A2.47,2.47,0,1,0,110.36,91l2.13-1.23.82-.48,2.13-1.23a2.47,2.47,0,0,0,0-4.27Z" fill="url(#w)"/><path d="M115.47,83.8a2.44,2.44,0,0,0-2.5,0L110.84,85l-.5.29a1.54,1.54,0,0,1,1.31.22,3.9,3.9,0,0,1,1.88,3,1.14,1.14,0,0,1-.31.85l.09,0,2.13-1.23a2.47,2.47,0,0,0,0-4.27Z" fill="url(#x)"/><path d="M114.6,84.57,109,87.81a1.23,1.23,0,0,1-1.12,0c-.31-.17-.31-.46,0-.64l5.62-3.24a1.21,1.21,0,0,1,1.11,0C114.91,84.1,114.91,84.39,114.6,84.57Z" opacity="0.6" fill="url(#y)" style="mix-blend-mode: screen"/></g><g><path d="M123.79,81.42a2.48,2.48,0,0,0-2.12-1.34L119.21,80l-.94,0-2.46-.09a2.47,2.47,0,1,0-.19,4.93l2.46.09.94,0,2.47.09a2.47,2.47,0,0,0,2.3-3.59Z" fill="url(#z)"/><path d="M123.79,81.42a2.48,2.48,0,0,0-2.12-1.34L119.21,80l-.57,0a1.52,1.52,0,0,1,1,.88,3.9,3.9,0,0,1,0,3.51,1.15,1.15,0,0,1-.72.55h.1l2.47.09a2.47,2.47,0,0,0,2.3-3.59Z" fill="url(#aa)"/><path d="M122.64,81.61l-6.48-.26a1.22,1.22,0,0,1-.94-.59c-.17-.31,0-.56.34-.54l6.48.25a1.24,1.24,0,0,1,.95.59C123.15,81.38,123,81.62,122.64,81.61Z" opacity="0.6" fill="url(#ab)" style="mix-blend-mode: screen"/></g><g><path d="M105.26,77.94a2.45,2.45,0,0,0-2.5.18l-2,1.39-.79.53-2,1.39a2.5,2.5,0,0,0-1.08,2.21,2.46,2.46,0,0,0,3.86,1.87l2-1.39.78-.54,2-1.39a2.46,2.46,0,0,0,1.08-2.2A2.43,2.43,0,0,0,105.26,77.94Z" fill="url(#ac)"/><path d="M105.26,77.94a2.45,2.45,0,0,0-2.5.18l-2,1.39-.48.32a1.52,1.52,0,0,1,1.32.13,3.91,3.91,0,0,1,2.1,2.81,1.11,1.11,0,0,1-.25.87l.09-.06,2-1.39a2.46,2.46,0,0,0,1.08-2.2A2.43,2.43,0,0,0,105.26,77.94Z" fill="url(#ad)"/><path d="M104.45,78.77l-5.36,3.65a1.25,1.25,0,0,1-1.11.09c-.32-.16-.35-.45,0-.65l5.36-3.65a1.21,1.21,0,0,1,1.11-.08A.34.34,0,0,1,104.45,78.77Z" opacity="0.6" fill="url(#ae)" style="mix-blend-mode: screen"/></g><g><path d="M111.27,74.8a2.47,2.47,0,0,0-2.22-1.17l-2.46.11-.94,0-2.46.11a2.47,2.47,0,1,0,.21,4.93l2.46-.11,1,0,2.46-.11a2.48,2.48,0,0,0,2.08-1.3A2.42,2.42,0,0,0,111.27,74.8Z" fill="url(#af)"/><path d="M111.27,74.8a2.47,2.47,0,0,0-2.22-1.17l-2.46.11-.57,0a1.57,1.57,0,0,1,1.06.81,3.89,3.89,0,0,1,.29,3.49,1.12,1.12,0,0,1-.67.61h.11l2.46-.11a2.48,2.48,0,0,0,2.08-1.3A2.42,2.42,0,0,0,111.27,74.8Z" fill="url(#ag)"/><path d="M110.14,75.07l-6.48.28a1.28,1.28,0,0,1-1-.52c-.19-.3,0-.55.3-.57l6.48-.27a1.21,1.21,0,0,1,1,.51C110.63,74.8,110.5,75.06,110.14,75.07Z" opacity="0.6" fill="url(#ah)" style="mix-blend-mode: screen"/></g><g><path d="M108.59,83.07a2.44,2.44,0,0,0-2.43-.58l-2.36.7-.91.27-2.36.71A2.47,2.47,0,1,0,102,88.9l2.36-.71.9-.27,2.36-.71a2.47,2.47,0,0,0,1.7-1.77A2.42,2.42,0,0,0,108.59,83.07Z" fill="url(#ai)"/><path d="M108.59,83.07a2.44,2.44,0,0,0-2.43-.58l-2.36.7-.55.17a1.5,1.5,0,0,1,1.22.52,3.88,3.88,0,0,1,1.14,3.31,1.11,1.11,0,0,1-.5.76l.1,0,2.36-.71a2.47,2.47,0,0,0,1.7-1.77A2.42,2.42,0,0,0,108.59,83.07Z" fill="url(#aj)"/><path d="M107.57,83.62l-6.22,1.85a1.21,1.21,0,0,1-1.08-.26c-.26-.24-.19-.52.15-.62l6.21-1.86a1.26,1.26,0,0,1,1.09.26C108,83.24,107.91,83.52,107.57,83.62Z" opacity="0.6" fill="url(#ak)" style="mix-blend-mode: screen"/></g><g><path d="M111.15,91.06a2.45,2.45,0,0,0-1.78-1.75L107,88.7l-.91-.24-2.39-.61a2.49,2.49,0,0,0-2.37.65,2.46,2.46,0,0,0,1.15,4.13l2.38.61.92.24,2.39.61a2.5,2.5,0,0,0,2.37-.65A2.44,2.44,0,0,0,111.15,91.06Z" fill="url(#al)"/><path d="M111.15,91.06a2.45,2.45,0,0,0-1.78-1.75L107,88.7l-.55-.15a1.56,1.56,0,0,1,.78,1.08,3.92,3.92,0,0,1-.73,3.43,1.12,1.12,0,0,1-.82.39l.1,0,2.39.61a2.5,2.5,0,0,0,2.37-.65A2.44,2.44,0,0,0,111.15,91.06Z" fill="url(#am)"/><path d="M110,91l-6.29-1.61a1.23,1.23,0,0,1-.79-.78c-.1-.34.1-.55.45-.46l6.28,1.61a1.24,1.24,0,0,1,.8.78C110.54,90.89,110.34,91.09,110,91Z" opacity="0.6" fill="url(#an)" style="mix-blend-mode: screen"/></g><g><path d="M118.91,90.29a2.46,2.46,0,0,0-1.78-1.76l-2.39-.61-.91-.23-2.39-.61a2.47,2.47,0,1,0-1.22,4.78l2.39.61.91.23,2.39.61a2.5,2.5,0,0,0,2.37-.64A2.44,2.44,0,0,0,118.91,90.29Z" fill="url(#ao)"/><path d="M118.91,90.29a2.46,2.46,0,0,0-1.78-1.76l-2.39-.61-.55-.14a1.57,1.57,0,0,1,.78,1.07,3.91,3.91,0,0,1-.73,3.43,1.09,1.09,0,0,1-.82.39l.1,0,2.39.61a2.5,2.5,0,0,0,2.37-.64A2.44,2.44,0,0,0,118.91,90.29Z" fill="url(#ap)"/><path d="M117.76,90.23l-6.29-1.62a1.19,1.19,0,0,1-.79-.78c-.1-.34.1-.54.45-.46L117.41,89a1.24,1.24,0,0,1,.8.78C118.3,90.11,118.1,90.32,117.76,90.23Z" opacity="0.6" fill="url(#aq)" style="mix-blend-mode: screen"/></g><g><path d="M101.76,80.45a2.47,2.47,0,0,0-2.45.51l-1.84,1.65-.7.63-1.83,1.65a2.47,2.47,0,1,0,3.3,3.67l1.83-1.65.7-.63,1.84-1.65a2.48,2.48,0,0,0,.77-2.33A2.43,2.43,0,0,0,101.76,80.45Z" fill="url(#ar)"/><path d="M101.76,80.45a2.47,2.47,0,0,0-2.45.51l-1.84,1.65-.42.38a1.54,1.54,0,0,1,1.32,0,3.87,3.87,0,0,1,2.45,2.51,1.1,1.1,0,0,1-.13.9l.08-.07,1.84-1.65a2.48,2.48,0,0,0,.77-2.33A2.43,2.43,0,0,0,101.76,80.45Z" fill="url(#as)"/><path d="M101.06,81.38l-4.82,4.33a1.23,1.23,0,0,1-1.09.23.34.34,0,0,1-.14-.63L99.84,81a1.23,1.23,0,0,1,1.09-.23C101.27,80.86,101.33,81.14,101.06,81.38Z" opacity="0.6" fill="url(#at)" style="mix-blend-mode: screen"/></g></g><g><g><path d="M125,75.81a2.46,2.46,0,0,0-2.5,0L120.41,77l-.82.47-2.13,1.24A2.47,2.47,0,1,0,119.93,83l2.13-1.23.82-.48L125,80.08a2.47,2.47,0,0,0,0-4.27Z" fill="url(#au)"/><path d="M125,75.81a2.46,2.46,0,0,0-2.5,0L120.41,77l-.5.29a1.54,1.54,0,0,1,1.31.22,3.9,3.9,0,0,1,1.88,3,1.18,1.18,0,0,1-.31.86l.09-.06L125,80.08a2.47,2.47,0,0,0,0-4.27Z" fill="url(#av)"/><path d="M124.17,76.58l-5.61,3.24a1.23,1.23,0,0,1-1.12,0c-.31-.17-.31-.46,0-.64l5.62-3.24a1.21,1.21,0,0,1,1.11,0C124.48,76.11,124.48,76.4,124.17,76.58Z" opacity="0.6" fill="url(#aw)" style="mix-blend-mode: screen"/></g><g><path d="M115.94,67.74a2.45,2.45,0,0,0-2.51,0L111.3,69l-.82.47-2.13,1.24A2.47,2.47,0,1,0,110.82,75L113,73.71l.81-.47L115.91,72a2.51,2.51,0,0,0,1.24-2.12A2.45,2.45,0,0,0,115.94,67.74Z" fill="url(#ax)"/><path d="M115.94,67.74a2.45,2.45,0,0,0-2.51,0L111.3,69l-.49.29a1.51,1.51,0,0,1,1.3.22,3.88,3.88,0,0,1,1.88,3,1.1,1.1,0,0,1-.31.85l.09-.05L115.91,72a2.51,2.51,0,0,0,1.24-2.12A2.45,2.45,0,0,0,115.94,67.74Z" fill="url(#ay)"/><path d="M115.07,68.51l-5.62,3.24a1.21,1.21,0,0,1-1.11,0c-.31-.17-.31-.46,0-.64L114,67.87a1.23,1.23,0,0,1,1.12,0C115.38,68,115.38,68.33,115.07,68.51Z" opacity="0.6" fill="url(#az)" style="mix-blend-mode: screen"/></g><g><path d="M115.47,75.35a2.46,2.46,0,0,0-2.5,0l-2.13,1.23-.82.48-2.13,1.23a2.48,2.48,0,0,0-1.24,2.12,2.46,2.46,0,0,0,3.71,2.15l2.13-1.23.82-.47,2.13-1.24a2.47,2.47,0,0,0,1.24-2.12A2.44,2.44,0,0,0,115.47,75.35Z" fill="url(#ba)"/><path d="M115.47,75.35a2.46,2.46,0,0,0-2.5,0l-2.13,1.23-.5.29a1.54,1.54,0,0,1,1.31.23,3.87,3.87,0,0,1,1.88,3,1.14,1.14,0,0,1-.31.85l.09-.05,2.13-1.24a2.47,2.47,0,0,0,1.24-2.12A2.44,2.44,0,0,0,115.47,75.35Z" fill="url(#bb)"/><path d="M114.6,76.11,109,79.36a1.23,1.23,0,0,1-1.12,0c-.31-.18-.31-.47,0-.64l5.62-3.25a1.21,1.21,0,0,1,1.11,0C114.91,75.65,114.91,75.94,114.6,76.11Z" opacity="0.6" fill="url(#bc)" style="mix-blend-mode: screen"/></g><g><path d="M123.79,73a2.45,2.45,0,0,0-2.12-1.34l-2.46-.1-.94,0-2.46-.1a2.47,2.47,0,1,0-.19,4.93l2.46.1.94,0,2.47.1a2.51,2.51,0,0,0,2.18-1.13A2.46,2.46,0,0,0,123.79,73Z" fill="url(#bd)"/><path d="M123.79,73a2.45,2.45,0,0,0-2.12-1.34l-2.46-.1-.57,0a1.57,1.57,0,0,1,1,.89,3.88,3.88,0,0,1,0,3.5,1.14,1.14,0,0,1-.72.56h.1l2.47.1a2.51,2.51,0,0,0,2.18-1.13A2.46,2.46,0,0,0,123.79,73Z" fill="url(#be)"/><path d="M122.64,73.15l-6.48-.25a1.23,1.23,0,0,1-.94-.6c-.17-.31,0-.55.34-.54L122,72a1.25,1.25,0,0,1,.95.6C123.15,72.92,123,73.17,122.64,73.15Z" opacity="0.6" fill="url(#bf)" style="mix-blend-mode: screen"/></g><g><path d="M105.26,69.48a2.5,2.5,0,0,0-2.5.18l-2,1.39-.79.54-2,1.39a2.49,2.49,0,0,0-1.08,2.2,2.46,2.46,0,0,0,3.86,1.87l2-1.39.78-.53,2-1.39a2.48,2.48,0,0,0,1.08-2.21A2.43,2.43,0,0,0,105.26,69.48Z" fill="url(#bg)"/><path d="M105.26,69.48a2.5,2.5,0,0,0-2.5.18l-2,1.39-.48.33a1.55,1.55,0,0,1,1.32.12,3.91,3.91,0,0,1,2.1,2.81,1.14,1.14,0,0,1-.25.88l.09-.06,2-1.39a2.48,2.48,0,0,0,1.08-2.21A2.43,2.43,0,0,0,105.26,69.48Z" fill="url(#bh)"/><path d="M104.45,70.31,99.09,74a1.21,1.21,0,0,1-1.11.08c-.32-.15-.35-.44,0-.64l5.36-3.66a1.24,1.24,0,0,1,1.11-.08C104.72,69.83,104.74,70.11,104.45,70.31Z" opacity="0.6" fill="url(#bi)" style="mix-blend-mode: screen"/></g><g><path d="M111.27,66.34a2.44,2.44,0,0,0-2.22-1.16l-2.46.1-.94,0-2.46.11a2.47,2.47,0,1,0,.21,4.93l2.46-.1,1-.05,2.46-.1a2.48,2.48,0,0,0,2.08-1.31A2.42,2.42,0,0,0,111.27,66.34Z" fill="url(#bj)"/><path d="M111.27,66.34a2.44,2.44,0,0,0-2.22-1.16l-2.46.1-.57,0a1.58,1.58,0,0,1,1.06.8,3.91,3.91,0,0,1,.29,3.5,1.12,1.12,0,0,1-.67.61h.11l2.46-.1a2.48,2.48,0,0,0,2.08-1.31A2.42,2.42,0,0,0,111.27,66.34Z" fill="url(#bk)"/><path d="M110.14,66.62l-6.48.27a1.24,1.24,0,0,1-1-.51c-.19-.3,0-.56.3-.57l6.48-.28a1.25,1.25,0,0,1,1,.52C110.63,66.35,110.5,66.6,110.14,66.62Z" opacity="0.6" fill="url(#bl)" style="mix-blend-mode: screen"/></g><g><path d="M108.59,74.62a2.46,2.46,0,0,0-2.43-.59l-2.36.71-.91.27-2.36.71A2.46,2.46,0,1,0,102,80.44l2.36-.7.9-.27,2.36-.71a2.47,2.47,0,0,0,1.7-1.78A2.4,2.4,0,0,0,108.59,74.62Z" fill="url(#bm)"/><path d="M108.59,74.62a2.46,2.46,0,0,0-2.43-.59l-2.36.71-.55.16a1.56,1.56,0,0,1,1.22.52,3.9,3.9,0,0,1,1.14,3.32,1.13,1.13,0,0,1-.5.76l.1,0,2.36-.71a2.47,2.47,0,0,0,1.7-1.78A2.4,2.4,0,0,0,108.59,74.62Z" fill="url(#bn)"/><path d="M107.57,75.16,101.35,77a1.24,1.24,0,0,1-1.08-.26c-.26-.24-.19-.52.15-.63l6.21-1.85a1.23,1.23,0,0,1,1.09.26C108,74.78,107.91,75.06,107.57,75.16Z" opacity="0.6" fill="url(#bo)" style="mix-blend-mode: screen"/></g><g><path d="M111.15,82.61a2.46,2.46,0,0,0-1.78-1.76L107,80.24l-.91-.23-2.39-.61a2.49,2.49,0,0,0-2.37.64,2.47,2.47,0,0,0,1.15,4.14l2.38.61.92.23,2.39.61a2.48,2.48,0,0,0,2.37-.64A2.44,2.44,0,0,0,111.15,82.61Z" fill="url(#bp)"/><path d="M111.15,82.61a2.46,2.46,0,0,0-1.78-1.76L107,80.24l-.55-.14a1.57,1.57,0,0,1,.78,1.07,3.91,3.91,0,0,1-.73,3.43,1.14,1.14,0,0,1-.82.4l.1,0,2.39.61a2.48,2.48,0,0,0,2.37-.64A2.44,2.44,0,0,0,111.15,82.61Z" fill="url(#bq)"/><path d="M110,82.55l-6.29-1.62a1.19,1.19,0,0,1-.79-.78c-.1-.34.1-.54.45-.45l6.28,1.61a1.24,1.24,0,0,1,.8.78C110.54,82.43,110.34,82.64,110,82.55Z" opacity="0.6" fill="url(#br)" style="mix-blend-mode: screen"/></g><g><path d="M118.91,81.83a2.43,2.43,0,0,0-1.78-1.75l-2.39-.62-.91-.23-2.39-.61a2.47,2.47,0,1,0-1.22,4.78l2.39.61.91.24,2.39.61a2.5,2.5,0,0,0,2.37-.65A2.44,2.44,0,0,0,118.91,81.83Z" fill="url(#bs)"/><path d="M118.91,81.83a2.43,2.43,0,0,0-1.78-1.75l-2.39-.62-.55-.14A1.56,1.56,0,0,1,115,80.4a3.92,3.92,0,0,1-.73,3.43,1.12,1.12,0,0,1-.82.39l.1,0,2.39.61a2.5,2.5,0,0,0,2.37-.65A2.44,2.44,0,0,0,118.91,81.83Z" fill="url(#bt)"/><path d="M117.76,81.77l-6.29-1.61a1.23,1.23,0,0,1-.79-.78c-.1-.34.1-.55.45-.46l6.28,1.61a1.24,1.24,0,0,1,.8.78C118.3,81.65,118.1,81.86,117.76,81.77Z" opacity="0.6" fill="url(#bu)" style="mix-blend-mode: screen"/></g><g><path d="M101.76,72a2.47,2.47,0,0,0-2.45.51l-1.84,1.65-.7.63-1.83,1.65a2.49,2.49,0,0,0-.78,2.33,2.46,2.46,0,0,0,4.08,1.34l1.83-1.65.7-.63,1.84-1.65a2.47,2.47,0,0,0,.77-2.33A2.43,2.43,0,0,0,101.76,72Z" fill="url(#bv)"/><path d="M101.76,72a2.47,2.47,0,0,0-2.45.51l-1.84,1.65-.42.38a1.54,1.54,0,0,1,1.32,0A3.89,3.89,0,0,1,100.82,77a1.1,1.1,0,0,1-.13.9l.08-.07,1.84-1.65a2.47,2.47,0,0,0,.77-2.33A2.43,2.43,0,0,0,101.76,72Z" fill="url(#bw)"/><path d="M101.06,72.92l-4.82,4.34a1.26,1.26,0,0,1-1.09.23.34.34,0,0,1-.14-.63l4.83-4.34a1.26,1.26,0,0,1,1.09-.23C101.27,72.4,101.33,72.69,101.06,72.92Z" opacity="0.6" fill="url(#bx)" style="mix-blend-mode: screen"/></g></g></g><path d="M120.8,41.38a21.77,21.77,0,0,0-10.66-2.55,21.48,21.48,0,0,0-10.62,2.56c-2.87,1.66-4.45,3.9-4.45,6.29s1.61,4.66,4.52,6.34a23.39,23.39,0,0,0,21.28,0c2.87-1.67,4.45-3.9,4.44-6.3S123.71,43.06,120.8,41.38Zm-.21,12.17a22.9,22.9,0,0,1-20.73,0c-2.74-1.58-4.24-3.66-4.25-5.87s1.48-4.26,4.18-5.83a22.92,22.92,0,0,1,20.74,0c2.73,1.58,4.24,3.67,4.24,5.87S123.29,52,120.59,53.55Z" fill="#e6e2db"/></g><g><g style="isolation: isolate"><g style="isolation: isolate"><g clip-path="url(#ej)"><path d="M130.8,87.49v1.74a1.9,1.9,0,0,0,1.1,1.55,5.83,5.83,0,0,0,5.3,0,1.84,1.84,0,0,0,1.09-1.52V87.51Z" fill="url(#ek)"/></g></g><path d="M137.19,86a5.83,5.83,0,0,0-5.3,0c-1.46.84-1.45,2.22,0,3.06a5.83,5.83,0,0,0,5.3,0C138.67,88.19,138.66,86.81,137.19,86Z" fill="url(#el)"/></g><g><path d="M136.61,86.33l-3.88,2.24a.42.42,0,0,1-.38,0c-.11-.06-.11-.16,0-.22l3.88-2.24a.42.42,0,0,1,.38,0C136.72,86.17,136.72,86.27,136.61,86.33Z" fill="url(#em)"/><path d="M132.29,88.52a.1.1,0,0,1,.06,0l3.88-2.24a.42.42,0,0,1,.38,0s0,0,.06,0a.11.11,0,0,0-.06-.17.42.42,0,0,0-.38,0l-3.88,2.24A.11.11,0,0,0,132.29,88.52Z" opacity="0.5" fill="url(#en)" style="mix-blend-mode: multiply"/></g><g mask="url(#eo)"><path d="M137.19,86a5.83,5.83,0,0,0-5.3,0c-1.46.84-1.45,2.22,0,3.06a5.83,5.83,0,0,0,5.3,0C138.67,88.19,138.66,86.81,137.19,86ZM137,88.78a5.36,5.36,0,0,1-4.84,0c-1.34-.78-1.35-2,0-2.8A5.3,5.3,0,0,1,137,86C138.3,86.75,138.31,88,137,88.78Z" opacity="0.8" fill="url(#eq)" style="mix-blend-mode: screen"/></g></g><g><g style="isolation: isolate"><g style="isolation: isolate"><g clip-path="url(#er)"><path d="M95.34,144.47v1.74a1.89,1.89,0,0,0,1.11,1.55,5.84,5.84,0,0,0,5.29,0,1.84,1.84,0,0,0,1.09-1.52v-1.74Z" fill="url(#es)"/></g></g><path d="M101.72,142.94a5.83,5.83,0,0,0-5.3,0c-1.45.85-1.45,2.22,0,3.07a5.83,5.83,0,0,0,5.3,0C103.2,145.16,103.19,143.79,101.72,142.94Z" fill="url(#et)"/></g><g><path d="M101.14,143.31l-3.88,2.24a.42.42,0,0,1-.38,0c-.11-.07-.11-.16,0-.23l3.88-2.24a.42.42,0,0,1,.38,0C101.25,143.15,101.25,143.25,101.14,143.31Z" fill="url(#eu)"/><path d="M96.82,145.49l.06-.05,3.88-2.24a.42.42,0,0,1,.38,0l.06.06c0-.06,0-.13-.06-.18a.42.42,0,0,0-.38,0l-3.88,2.24C96.8,145.37,96.78,145.44,96.82,145.49Z" opacity="0.5" fill="url(#ev)" style="mix-blend-mode: multiply"/></g><g mask="url(#ew)"><path d="M101.72,142.94a5.83,5.83,0,0,0-5.3,0c-1.45.85-1.45,2.22,0,3.07a5.83,5.83,0,0,0,5.3,0C103.2,145.16,103.19,143.79,101.72,142.94Zm-.21,2.81a5.3,5.3,0,0,1-4.84,0c-1.34-.77-1.34-2,0-2.8a5.34,5.34,0,0,1,4.83,0C102.83,143.73,102.84,145,101.51,145.75Z" opacity="0.8" fill="url(#ey)" style="mix-blend-mode: screen"/></g></g><g><g style="isolation: isolate"><g style="isolation: isolate"><g clip-path="url(#ez)"><path d="M128.44,97.52v1.75a1.83,1.83,0,0,0,1.1,1.54,5.83,5.83,0,0,0,5.3,0,1.86,1.86,0,0,0,1.09-1.52V97.54C135.93,98.09,128.44,98.08,128.44,97.52Z" fill="url(#fa)"/></g></g><path d="M134.83,96a5.83,5.83,0,0,0-5.3,0c-1.46.84-1.45,2.22,0,3.07a5.87,5.87,0,0,0,5.29,0C136.3,98.22,136.29,96.85,134.83,96Z" fill="url(#fb)"/></g><g><path d="M134.25,96.36l-3.88,2.24a.45.45,0,0,1-.39,0,.12.12,0,0,1,0-.22l3.88-2.24a.44.44,0,0,1,.39,0A.12.12,0,0,1,134.25,96.36Z" fill="url(#fc)"/><path d="M129.93,98.55a.12.12,0,0,1,0,0l3.88-2.24a.44.44,0,0,1,.39,0l.05,0c0-.06,0-.12-.05-.17a.45.45,0,0,0-.39,0L130,98.38C129.9,98.43,129.88,98.49,129.93,98.55Z" opacity="0.5" fill="url(#fd)" style="mix-blend-mode: multiply"/></g><g mask="url(#fe)"><path d="M134.83,96a5.83,5.83,0,0,0-5.3,0c-1.46.84-1.45,2.22,0,3.07a5.87,5.87,0,0,0,5.29,0C136.3,98.22,136.29,96.85,134.83,96Zm-.22,2.81a5.34,5.34,0,0,1-4.83,0c-1.34-.77-1.35-2,0-2.8a5.36,5.36,0,0,1,4.84,0C135.94,96.78,135.94,98,134.61,98.81Z" opacity="0.8" fill="url(#fg)" style="mix-blend-mode: screen"/></g></g><g><g style="isolation: isolate"><g style="isolation: isolate"><g clip-path="url(#fh)"><path d="M81.74,143.78v1.75a1.86,1.86,0,0,0,1.11,1.54,5.83,5.83,0,0,0,5.3,0,1.85,1.85,0,0,0,1.08-1.52v-1.74Z" fill="url(#fi)"/></g></g><path d="M88.12,142.26a5.81,5.81,0,0,0-5.29,0c-1.46.85-1.45,2.22,0,3.07a5.83,5.83,0,0,0,5.3,0C89.6,144.48,89.59,143.11,88.12,142.26Z" fill="url(#fj)"/></g><g><path d="M87.54,142.63l-3.88,2.23a.37.37,0,0,1-.38,0c-.11-.06-.11-.16,0-.22l3.88-2.24a.42.42,0,0,1,.38,0C87.65,142.46,87.65,142.56,87.54,142.63Z" fill="url(#fk)"/><path d="M83.22,144.81l.06-.05,3.88-2.24a.42.42,0,0,1,.38,0l.06,0s0-.12-.06-.17a.42.42,0,0,0-.38,0l-3.88,2.24C83.2,144.69,83.18,144.76,83.22,144.81Z" opacity="0.5" fill="url(#fl)" style="mix-blend-mode: multiply"/></g><g mask="url(#fm)"><path d="M88.12,142.26a5.81,5.81,0,0,0-5.29,0c-1.46.85-1.45,2.22,0,3.07a5.83,5.83,0,0,0,5.3,0C89.6,144.48,89.59,143.11,88.12,142.26Zm-.21,2.81a5.3,5.3,0,0,1-4.84,0c-1.34-.77-1.34-2,0-2.8a5.34,5.34,0,0,1,4.83,0C89.23,143.05,89.24,144.3,87.91,145.07Z" opacity="0.8" fill="url(#fo)" style="mix-blend-mode: screen"/></g></g><g><g style="isolation: isolate"><g style="isolation: isolate"><g clip-path="url(#fp)"><path d="M84.72,149.07v1.75a1.86,1.86,0,0,0,1.11,1.54,5.83,5.83,0,0,0,5.3,0,1.89,1.89,0,0,0,1.09-1.52v-1.75Z" fill="url(#fq)"/></g></g><path d="M91.1,147.55a5.81,5.81,0,0,0-5.29,0c-1.46.85-1.45,2.22,0,3.07a5.89,5.89,0,0,0,5.3,0C92.58,149.77,92.57,148.4,91.1,147.55Z" fill="url(#fr)"/></g><g><path d="M90.52,147.91l-3.87,2.24a.45.45,0,0,1-.39,0,.12.12,0,0,1,0-.22l3.88-2.24a.42.42,0,0,1,.38,0C90.63,147.75,90.63,147.85,90.52,147.91Z" fill="url(#fs)"/><path d="M86.2,150.1l.06,0,3.88-2.24a.42.42,0,0,1,.38,0s0,0,.06.05,0-.12-.06-.17a.42.42,0,0,0-.38,0l-3.88,2.24C86.18,150,86.16,150,86.2,150.1Z" opacity="0.5" fill="url(#ft)" style="mix-blend-mode: multiply"/></g><g mask="url(#fu)"><path d="M91.1,147.55a5.81,5.81,0,0,0-5.29,0c-1.46.85-1.45,2.22,0,3.07a5.89,5.89,0,0,0,5.3,0C92.58,149.77,92.57,148.4,91.1,147.55Zm-.21,2.81a5.34,5.34,0,0,1-4.83,0c-1.34-.77-1.35-2,0-2.8a5.34,5.34,0,0,1,4.83,0C92.21,148.33,92.22,149.59,90.89,150.36Z" opacity="0.8" fill="url(#fw)" style="mix-blend-mode: screen"/></g></g><g><g><g style="isolation: isolate"><polygon points="93.61 134.17 93.61 136.55 100.36 132.62 100.36 130.24 93.61 134.17" fill="#e6e2db"/><path d="M57,111v2.37a1.5,1.5,0,0,0,.73,1.19c3.58,2.52,13,8.82,33.17,20.48l2.72,1.52v-2.38Z" fill="#c9c5ba"/><path d="M97.73,128.67C77.55,117,66.64,111.6,62.27,109.53a5.08,5.08,0,0,0-4.33.13c-1.17.69-1.26,1.77-.21,2.51,3.58,2.53,13,8.82,33.16,20.48l2.72,1.52,6.75-3.93Z" fill="#faf7f2"/><path d="M93.59,132.58,61.92,110.83c-1.29-.61-2.81-1.85-4-1.17s-1.26,1.77-.21,2.51c3.58,2.53,13,8.82,33.16,20.48l2.72,1.52Z" fill="#e6e2db"/><path d="M96.83,128.65c-20.15-11.63-31-17-35.36-19.09a3.08,3.08,0,0,0-2.62.08c-.71.41-.77,1.07-.13,1.52,3.55,2.51,12.92,8.78,33.07,20.42l1.8,1,5-2.89Z" fill="#f5f2ee"/></g><g><polygon points="94.72 133.85 99.45 131.08 102.62 133.93 98.95 136.06 94.72 133.85" fill="#faf7f2"/><polygon points="94.72 133.85 98.95 136.06 98.95 137.03 94.71 135.64 94.72 133.85" fill="#d5d0c5"/></g><g><polygon points="113.82 145.61 98.93 137.01 98.93 136.05 113.82 144.65 113.82 145.61" fill="#c9c5ba"/><polygon points="117.51 143.48 113.82 145.61 113.82 144.65 117.51 142.52 117.51 143.48" fill="#e6e2db"/><polygon points="113.82 144.65 98.93 136.05 102.61 133.92 117.51 142.52 113.82 144.65" fill="#f5f2ee"/></g></g><g opacity="0.4"><path d="M95.64,130.49l-.62.35a3.64,3.64,0,0,1-3.31,0l-5-2.9a1,1,0,0,1,0-1.91l.61-.35a3.66,3.66,0,0,1,3.32,0l5,2.9A1,1,0,0,1,95.64,130.49Z" fill="#e6e2db" opacity="0.6"/><path d="M86.69,126.41l.61-.35a3.66,3.66,0,0,1,3.32,0l5,2.9a1.26,1.26,0,0,1,.65.76,1.05,1.05,0,0,0-.65-1.14l-5-2.9a3.66,3.66,0,0,0-3.32,0l-.61.35a1.06,1.06,0,0,0-.65,1.15A1.27,1.27,0,0,1,86.69,126.41Z" fill="url(#fx)"/></g><g opacity="0.4"><path d="M63.53,112.08l-.26.14a1.5,1.5,0,0,1-1.37,0L59.83,111c-.38-.22-.38-.58,0-.79l.25-.15a1.5,1.5,0,0,1,1.37,0l2.08,1.2A.42.42,0,0,1,63.53,112.08Z" fill="#e6e2db" opacity="0.6"/><path d="M59.83,110.46l.25-.15a1.5,1.5,0,0,1,1.37,0l2.08,1.2a.48.48,0,0,1,.24.28.41.41,0,0,0-.24-.5l-2.08-1.2a1.5,1.5,0,0,0-1.37,0l-.25.15a.41.41,0,0,0-.25.5A.55.55,0,0,1,59.83,110.46Z" fill="url(#fy)"/></g><g><path d="M94.58,129.59l-1.79,1a.72.72,0,0,1-.61,0l-4.27-2.47a.19.19,0,0,1,0-.35l1.8-1a.64.64,0,0,1,.6,0l4.27,2.46C94.75,129.34,94.75,129.5,94.58,129.59Z" fill="#f9c930"/><polygon points="91.25 130.09 90.97 129.93 93.31 128.58 93.59 128.74 91.25 130.09" fill="#ea6363"/><polygon points="88.92 128.75 89.2 128.9 91.54 127.55 91.26 127.39 88.92 128.75" fill="#ea6363"/><path d="M87.91,128l1.8-1a.64.64,0,0,1,.6,0l4.27,2.47a.22.22,0,0,1,.1.09c.06-.09,0-.19-.1-.26l-4.27-2.46a.64.64,0,0,0-.6,0l-1.8,1c-.12.07-.15.17-.09.26A.26.26,0,0,1,87.91,128Z" fill="#f4c52f" opacity="0.5" style="mix-blend-mode: multiply"/></g><g><path d="M115.83,142.6l-1.8,1a.64.64,0,0,1-.6,0l-5.8-3.35c-.17-.09-.17-.25,0-.35l1.8-1a.64.64,0,0,1,.6,0l5.8,3.34A.19.19,0,0,1,115.83,142.6Z" fill="#f9c930"/><path d="M107.63,140.11l1.8-1a.7.7,0,0,1,.6,0l5.8,3.35a.38.38,0,0,1,.09.09c.06-.09,0-.19-.09-.26l-5.8-3.34a.64.64,0,0,0-.6,0l-1.8,1c-.12.07-.15.17-.1.26A.3.3,0,0,1,107.63,140.11Z" fill="#f4c52f" opacity="0.5" style="mix-blend-mode: multiply"/></g></g><g><g><g><polygon points="66.42 103.75 110.47 129.18 139.15 112.63 95.1 87.19 66.42 103.75" fill="#fff"/><g><polygon points="97.78 121.86 126.46 105.3 100.23 90.16 71.56 106.71 97.78 121.86" fill="#f9c930"/><path d="M120.09,111.9,109.52,118c-1.35.78-1.35,2,0,2.82a5.4,5.4,0,0,0,4.89,0l10.57-6.1c1.35-.78,1.35-2,0-2.82A5.4,5.4,0,0,0,120.09,111.9Z" fill="#f9c930"/><polygon points="72.16 107.07 100.84 90.51 98.5 89.16 69.82 105.71 72.16 107.07" fill="#d84747"/></g><g><polygon points="66.42 103.75 70.56 106.14 99.24 89.59 95.1 87.19 66.42 103.75" fill="#262323"/><g><polygon points="93.8 89.89 94.84 90.5 96.65 89.46 95.6 88.85 93.8 89.89" fill="#91d82b"/><path d="M93.61,90.37l.42.24-.14.08-.42-.24Zm2-1.57,1.09.63-2.28,1.32-1.1-.63Zm0,.11-2.1,1.21.91.52,2.1-1.21Z" fill="#eaeaea"/></g><path d="M69.94,104.35l-.17.1L69,104l.17-.1Zm-.94-.13-.17.09.59.34.17-.09Zm.24-.69-.17.09,1.07.62.16-.1Zm.06-.39-.17.1,1.37.79.17-.1Zm.1-.36-.17.1,1.63.94.17-.1Z" fill="#eaeaea"/></g></g><path d="M142.28,114.82a2.83,2.83,0,0,1-1.67,2.35L118.39,130a8.87,8.87,0,0,1-8,0L66.19,104.53a2.85,2.85,0,0,1-1.65-2.31v3a2.85,2.85,0,0,0,1.65,2.31L110.36,133a8.81,8.81,0,0,0,8,0l22.22-12.83a2.86,2.86,0,0,0,1.68-2.34Z" fill="url(#fz)"/><path d="M140.63,112.51,96.47,87a8.88,8.88,0,0,0-8,0L66.22,99.88c-2.22,1.28-2.24,3.36,0,4.65L110.35,130a8.87,8.87,0,0,0,8,0l22.22-12.83C142.83,115.88,142.84,113.8,140.63,112.51ZM108.47,127.9,66.75,103.82,95.13,87.43l41.72,24.08Z" fill="#342f2f"/><path d="M129.92,119.85l-1.19-.68a2.46,2.46,0,0,0-2.25.08l-4.22,2.44a1.27,1.27,0,0,0-.5.47.77.77,0,0,0,.35,1.09l1.18.68a2.51,2.51,0,0,0,2.26-.08l4.22-2.44a1.34,1.34,0,0,0,.5-.47A.77.77,0,0,0,129.92,119.85Z" fill="#9c9e9f"/><path d="M129.92,120.29l-1.19-.68a2.46,2.46,0,0,0-2.25.08l-4.22,2.44a1.27,1.27,0,0,0-.5.47.43.43,0,0,0-.06.18.88.88,0,0,0,.41.47l1.18.68a2.51,2.51,0,0,0,2.26-.08l4.22-2.44a1.34,1.34,0,0,0,.5-.47,1.27,1.27,0,0,0,.06-.18A.88.88,0,0,0,129.92,120.29Z" fill="#e1e3e4"/></g><g><path d="M70.16,99.79a1.29,1.29,0,0,0,1.15,0,.36.36,0,0,0,0-.67,1.26,1.26,0,0,0-1.15,0C69.82,99.31,69.83,99.61,70.16,99.79Z" fill="#d0d6d6" opacity="0.1"/><path d="M70.4,99.61a.71.71,0,0,0,.62,0c.17-.11.17-.27,0-.36a.68.68,0,0,0-.62,0C70.22,99.35,70.22,99.51,70.4,99.61Z" fill="#d0d6d6" opacity="0.1"/><path d="M70.61,99.44a.29.29,0,0,0,.24,0c.06,0,.06-.1,0-.14a.27.27,0,0,0-.23,0C70.55,99.35,70.55,99.41,70.61,99.44Z" fill="#d0d6d6" opacity="0.2" style="mix-blend-mode: screen"/></g><path d="M81.19,92.5l-5.54,3.2c-.43.25-.48.63-.1.84A1.59,1.59,0,0,0,77,96.48l5.54-3.2c.43-.25.48-.63.11-.84A1.61,1.61,0,0,0,81.19,92.5Z" fill="#191414"/><g><path d="M78.28,113.06a1.47,1.47,0,0,0-.22-.41,1.28,1.28,0,0,0-.36-.34l-3.57-2.06a.44.44,0,0,0-.45,0l-.47.26a.49.49,0,0,1,.46,0l3.56,2.06a1,1,0,0,1,.36.34,1.25,1.25,0,0,1,.22.41,1.13,1.13,0,0,1,.06.36v.21a.43.43,0,0,1-.19.41l.47-.26a.46.46,0,0,0,.19-.42v-.21A1.13,1.13,0,0,0,78.28,113.06Z" fill="#dadcdd"/><path d="M77.23,112.58l-3.56-2.06c-.36-.21-.65,0-.65.38v.2a1.4,1.4,0,0,0,.65,1.11l3.56,2.06c.35.2.64,0,.64-.37v-.21A1.42,1.42,0,0,0,77.23,112.58Z" fill="#abadae"/><path d="M71.14,108.94a1.59,1.59,0,0,0-.21-.41,1.32,1.32,0,0,0-.37-.34L67,106.13a.44.44,0,0,0-.45,0l-.47.27a.44.44,0,0,1,.45,0l3.57,2.06a1.28,1.28,0,0,1,.36.34,1.33,1.33,0,0,1,.21.41,1,1,0,0,1,.07.36v.21a.46.46,0,0,1-.19.42l.47-.27a.47.47,0,0,0,.19-.42v-.21A1.21,1.21,0,0,0,71.14,108.94Z" fill="#dadcdd"/><path d="M70.1,108.46l-3.57-2.06c-.36-.2-.64,0-.64.38v.2a1.45,1.45,0,0,0,.64,1.12l3.57,2.05c.35.21.64,0,.64-.37v-.21A1.42,1.42,0,0,0,70.1,108.46Z" fill="#abadae"/></g><g><path d="M71.47,100.23a2.37,2.37,0,0,1-2.14,0,.65.65,0,0,1,0-1.23,2.35,2.35,0,0,1,2.13,0A.65.65,0,0,1,71.47,100.23Z" fill="#212121"/><g><path d="M69.69,100A1.47,1.47,0,0,0,71,100c.36-.22.35-.57,0-.78a1.47,1.47,0,0,0-1.34,0A.41.41,0,0,0,69.69,100Z" fill="#d0d6d6" opacity="0.1"/><path d="M70,99.83a.79.79,0,0,0,.73,0,.22.22,0,0,0,0-.42.81.81,0,0,0-.73,0A.22.22,0,0,0,70,99.83Z" fill="#d0d6d6" opacity="0.1"/><path d="M70.22,99.64a.32.32,0,0,0,.27,0c.07,0,.07-.12,0-.16a.27.27,0,0,0-.26,0C70.14,99.53,70.14,99.6,70.22,99.64Z" fill="#d0d6d6" opacity="0.2" style="mix-blend-mode: screen"/></g></g><g><path d="M130.34,125.26l-3.26,1.88c-.38.22-.69.09-.69-.29a1.44,1.44,0,0,1,.69-1.09l3.26-1.87c.38-.22.69-.09.69.29A1.42,1.42,0,0,1,130.34,125.26Z" fill="#3b3d3d"/><g><path d="M130.34,125.26l-3.26,1.88c-.38.22-.69.09-.69-.29a1.44,1.44,0,0,1,.69-1.09l3.26-1.87c.38-.22.69-.09.69.29A1.42,1.42,0,0,1,130.34,125.26Z" fill="#342f2f"/><g clip-path="url(#ga)"><path d="M125.83,125.78l-.45.26L127,127l.46-.26Zm1-.58-.45.27,1.61.93.45-.27Zm1-.57-.45.26,1.61.93.45-.26Zm1-.58-.45.26,1.61.93.45-.26Z" fill="#7c633c"/></g></g></g><g><path d="M78.47,105l1.15-.66,5.55,3.2-1.15.66-2.33-1.34-1.62.93,2.33,1.34-1.15.67-5.54-3.2,1.15-.67,2.22,1.28,1.61-.93ZM86,107.07l3.39-1.95-1-.58-2.24,1.29-1.33-.77L86.66,104l-1-.57-1.89,1.09-1.22-.71,2.24-1.29-1-.57-3.38,2Zm1.18-7.1,6.94,2.41-1.23.71-1.46-.53-1.36.78.93.84-1.23.72-4.17-4Zm3,2.14-2.5-.91,1.59,1.44Zm0-3.88L89,98.9l5.55,3.2,3.19-1.85-1-.57-2,1.18Zm2.75-.43,1.28-.74,4.55,2.62L99.91,99l-4.55-2.63,1.29-.74-1-.57-3.71,2.14Zm8.22-3.34-1.62.93-2.21-1.28-1.15.67,5.54,3.2,1.15-.67L100.53,96l1.61-.93,2.33,1.34,1.15-.66-5.54-3.2-1.15.66Z" fill="#fff"/><path d="M103.05,99.79c0,.07-.08.14-.21.12-3.41-.5-5.28,2.71-.64,3.4a44,44,0,0,0,6-.15.56.56,0,0,0,.53-.3c.16-.73.58-2.75.27-3.44C107.74,96.74,102.18,97.82,103.05,99.79Z" fill="#d84747"/><path d="M114.74,100.83l-10.84,6.26s0,0,0,.06L105,108.6l-5.26-2.39a.86.86,0,0,0-.33,0c-.11,0-.17,0-.15.09l1.64,2.54-2-.83a.65.65,0,0,0-.31,0c-.09,0-.14,0-.12.09l1.58,2.49-2.68-1.07a.85.85,0,0,0-.32,0q-.15,0-.12.09l2.16,2.61-4.67-1.66a.65.65,0,0,0-.31,0c-.1,0-.15,0-.13.08l1,1.84-4.49,2.46.34.2,4.68-2.57s0,0,0,0l-1-1.65,4.78,1.69a.85.85,0,0,0,.32,0c.1,0,.15-.06.12-.1l-2.15-2.6,2.6,1a.65.65,0,0,0,.31,0c.12,0,.15,0,.14-.08l-1.59-2.51,2,.83a1.1,1.1,0,0,0,.31,0c.1,0,.15,0,.13-.09L100,106.58l5.4,2.45a.94.94,0,0,0,.34,0c.12,0,.17-.06.13-.1l-1.41-1.8L115.09,101Z" fill="#fff"/></g></g><g><g style="isolation: isolate"><path d="M32.21,125.29a.83.83,0,0,0,.48.67l34.13,19.7a2.5,2.5,0,0,0,2.29,0l19.24-11.18a.81.81,0,0,0,.47-.65v.87a.81.81,0,0,1-.47.65L69.11,146.53a2.5,2.5,0,0,1-2.29,0l-34.13-19.7a.83.83,0,0,1-.48-.67Z" fill="#c9c5ba"/><path d="M32.68,124.63c-.63.37-.62,1,0,1.33l34.13,19.7a2.5,2.5,0,0,0,2.29,0l19.24-11.18a.7.7,0,0,0,0-1.32L54.21,113.45a2.56,2.56,0,0,0-2.29,0Z" fill="#f5f2ee"/><path d="M46,116.92l6-3.47a2.56,2.56,0,0,1,2.29,0l34.13,19.71a.7.7,0,0,1,0,1.32l-6,3.47Z" fill="#d84747"/></g><polygon points="83.07 135.35 81 134.15 78.92 135.35 76.88 134.17 78.95 132.97 76.88 131.77 78.92 130.59 81 131.79 83.07 130.59 85.12 131.77 83.04 132.97 85.12 134.17 83.07 135.35" fill="#f5f2ee"/><g><path d="M70,143l-2.81,1.62-.08,0L70,143Zm-.42-.24-2.81,1.62-.86-.5,2.81-1.62Zm-1.22-.7-2.8,1.62-.49-.28,2.81-1.62Zm-.82-.48-2.81,1.62-.13-.07,2.81-1.62Zm-.4-.23L64.38,143l-.35-.2,2.81-1.62ZM66.5,141l-2.8,1.62-.35-.2,2.81-1.62Zm-.68-.39L63,142.21l-.35-.2,2.81-1.62Zm-.62-.36-2.81,1.62-.08,0,2.81-1.62Zm-.34-.2-2.81,1.62-.08,0L64.78,140Zm-.38-.22-2.81,1.63-.34-.2,2.81-1.62Zm-.68-.39L61,141l-.34-.2,2.81-1.62Zm-.67-.39-2.81,1.63-.08,0L63.05,139Zm-.42-.24-2.81,1.62-.31-.17,2.81-1.63Zm-.66-.38L59.24,140l-.49-.28,2.81-1.62Zm-.82-.48-2.81,1.63-.13-.08,2.81-1.62Zm-.4-.22L58,139.33l-.34-.2,2.8-1.62Zm-.68-.4-2.81,1.62-.34-.19,2.8-1.63Zm-.68-.39-2.81,1.62-.34-.2,2.8-1.62Zm-.62-.36L56,138.18l-.08-.05,2.8-1.62Zm-.34-.2L55.7,138l-.08-.05,2.8-1.62Zm-.38-.21-2.81,1.62-.34-.2,2.8-1.62Zm-.68-.4-2.81,1.62-.34-.19,2.8-1.63Z" fill="#4f4a4a"/><g><path d="M45.35,124.12l-3.92-2.26,1.78-1,3.92,2.26Zm23.84,11.71-3.92-2.26-1.78,1,3.92,2.26Zm5.91,3.41L71.18,137l-1.78,1,3.92,2.26Zm-11.82-6.82-13.81-8-1.79,1,13.82,8Z" fill="#b4b4b4"/><polygon points="48.91 121.26 45.65 119.38 45.24 119.61 48.51 121.5 48.91 121.26" fill="#4f4a4a"/><polygon points="70.97 134 67.7 132.11 67.31 132.34 70.57 134.23 70.97 134" fill="#4f4a4a"/><polygon points="75.58 136.66 73.61 135.53 73.22 135.76 75.17 136.89 75.58 136.66" fill="#4f4a4a"/><polygon points="57 125.93 51.9 122.99 51.5 123.22 56.6 126.16 57 125.93" fill="#4f4a4a"/></g><g><polygon points="39.52 126.68 36.26 124.8 35.86 125.03 39.13 126.92 39.52 126.68" fill="#4f4a4a"/><polygon points="43.23 128.82 40.7 127.36 40.3 127.59 42.83 129.05 43.23 128.82" fill="#4f4a4a"/></g></g><path d="M49.19,117.13l.76.44,4.19-2.42-.76-.44Zm5.67.46-.82.5,1.43-2.17-.8-.46-4.18,2.42.71.41,1.75-1,.82-.5L52.35,119l.79.46L57.33,117l-.72-.41Zm2.59,1.46c-.44-.35-.39-.51-.08-.69a.94.94,0,0,1,1,0c.43.24.32.47-.23.79l.75.43.12-.06c1-.57,1.05-1.06.15-1.57a2.47,2.47,0,0,0-2.52,0l-.06,0c-.76.44-.71.84,0,1.37.44.35.41.52.11.69a1,1,0,0,1-1,0c-.39-.22-.36-.46.17-.76l-.75-.44-.05,0c-1,.59-1,1.1-.15,1.59a2.51,2.51,0,0,0,2.59,0l0,0C58.21,120,58.12,119.58,57.45,119.05Zm2.33,2.63a1.11,1.11,0,0,1-1.23.07c-.43-.25-.32-.45.12-.71l2.84-1.64-.75-.43-2.87,1.65c-.91.53-1.08,1-.09,1.56a2.41,2.41,0,0,0,2.7-.05l2.87-1.65-.76-.44ZM65,122.92l-.11.06a2.39,2.39,0,0,1-1.73.34l-1.06,1.27-.81-.47,1-1.15-.38-.22-1.51.86-.75-.43,4.19-2.42,1.19.69C65.64,121.79,66.13,122.28,65,122.92Zm-.79-.42c.48-.28.31-.48.1-.6l-.47-.27-1.18.68.47.27a1,1,0,0,0,1,0Zm4.24.91-3.3,3-.8-.47.73-.62-.89-.51-1.08.42-.81-.47,5.11-1.9Zm-2.77,1.34,1.24-1.06-1.84.72Zm4.17,1.51-.82.5,1.43-2.18-.79-.46-4.19,2.42.71.41,1.75-1,.82-.5-1.42,2.18.79.46,4.19-2.42-.72-.42Zm4.34.4c-.94-.55-2-.44-3.42.4l-.21.12c-1.45.84-1.64,1.43-.7,2a2.55,2.55,0,0,0,2.75-.09l.05,0-.75-.43a1.23,1.23,0,0,1-1.25.14c-.53-.31-.18-.64.66-1.13l.22-.12c.83-.49,1.42-.69,1.9-.41s.21.51-.36.84l.75.43.19-.11C75.09,127.65,75.07,127.15,74.21,126.66Zm3.14,2.76.75-.44-2.22-1.28-4.19,2.42,2.22,1.28.75-.43-1.47-.85,1-.58,1.24.71.75-.44L75,129.1l.92-.53Z" fill="#f5f2ee"/></g></g></g></g></svg>