<svg xmlns="http://www.w3.org/2000/svg" xmlns:xlink="http://www.w3.org/1999/xlink" width="148" height="170.16" viewBox="0 0 168.67 170.16"><defs><linearGradient id="a" data-name="¡ÂÁ˚ÏˇÌÌ˚È „‡‰ËÂÌÚ 2599" x1="129.56" y1="71.18" x2="133.89" y2="71.18" gradientUnits="userSpaceOnUse"><stop offset="0" stop-color="#c9c5ba"/><stop offset="0.34" stop-color="#cfcbc0"/><stop offset="0.81" stop-color="#dedad2"/><stop offset="1" stop-color="#e6e2db"/></linearGradient><linearGradient id="b" x1="130.33" y1="58.95" x2="133.11" y2="58.95" xlink:href="#a"/><linearGradient id="c" data-name="¡ÂÁ˚ÏˇÌÌ˚È „‡‰ËÂÌÚ 1426" x1="121.52" y1="54.48" x2="141.92" y2="54.48" gradientUnits="userSpaceOnUse"><stop offset="0" stop-color="#549fa3"/><stop offset="1" stop-color="#71bbbc"/></linearGradient><linearGradient id="d" data-name="¡ÂÁ˚ÏˇÌÌ˚È „‡‰ËÂÌÚ 1348" x1="140.94" y1="50.6" x2="122.99" y2="50.6" gradientUnits="userSpaceOnUse"><stop offset="0" stop-color="#7dc8c9"/><stop offset="1" stop-color="#71bbbc"/></linearGradient><radialGradient id="e" data-name="¡ÂÁ˚ÏˇÌÌ˚È „‡‰ËÂÌÚ 5" cx="142.67" cy="37.63" r="17.46" gradientUnits="userSpaceOnUse"><stop offset="0" stop-color="#d2d2d2"/><stop offset="0.02" stop-color="#d4d4d4"/><stop offset="0.25" stop-color="#e2e2e2"/><stop offset="0.54" stop-color="#eaeaea"/><stop offset="1" stop-color="#ededed"/></radialGradient><linearGradient id="f" data-name="¡ÂÁ˚ÏˇÌÌ˚È „‡‰ËÂÌÚ 111" x1="138.44" y1="19.64" x2="143.06" y2="63.38" gradientUnits="userSpaceOnUse"><stop offset="0" stop-color="#f2f2f2"/><stop offset="1" stop-color="#e6e6e6"/></linearGradient><radialGradient id="g" data-name="¡ÂÁ˚ÏˇÌÌ˚È „‡‰ËÂÌÚ 931" cx="131.25" cy="17.18" r="10.61" xlink:href="#c"/><clipPath id="h"><polygon points="99.64 54.91 80.26 66.15 80.26 71.92 99.64 60.68 104.81 52.54 99.64 54.91" fill="none"/></clipPath><linearGradient id="i" x1="46.61" y1="15.06" x2="69.87" y2="55.34" xlink:href="#d"/><linearGradient id="j" data-name="¡ÂÁ˚ÏˇÌÌ˚È „‡‰ËÂÌÚ 1410" x1="87.67" y1="70.9" x2="93.52" y2="70.9" gradientUnits="userSpaceOnUse"><stop offset="0" stop-color="#c6c5c2"/><stop offset="0.28" stop-color="#bbbab8"/><stop offset="0.62" stop-color="#c3c2c0"/><stop offset="1" stop-color="#d2d1ce"/></linearGradient><linearGradient id="k" x1="87.67" y1="79.44" x2="93.52" y2="79.44" xlink:href="#j"/><linearGradient id="l" data-name="¡ÂÁ˚ÏˇÌÌ˚È „‡‰ËÂÌÚ 1417" x1="1067.53" y1="63.07" x2="1070.08" y2="67.49" gradientTransform="matrix(-1, 0, 0, 1, 1120.01, 0)" gradientUnits="userSpaceOnUse"><stop offset="0" stop-color="#d2d1ce"/><stop offset="0.53" stop-color="#cccbc9"/><stop offset="1" stop-color="#c2c1bf"/></linearGradient></defs><title>VIYA SEXUAL HEALTH FAQS</title><g style="isolation: isolate"><g><ellipse cx="84.34" cy="121.46" rx="84.34" ry="48.69" fill="#2a7c84" style="mix-blend-mode: multiply"/><ellipse cx="84.34" cy="109.2" rx="84.34" ry="48.69" fill="#fcc"/><path d="M24.64,143.59l5.57-3.21,8.93,5.16L42,147.17l-4.42,2.55.41.16,4.35-2.51,11.77,6.8-.6.35.5.11.45-.26,1,.57,1.09.24-1.75-1,11.77-6.8,11.78,6.8-5.64,3.25.62.05,5.36-3.1,6.09,3.52h.68L79,154.17l11.78-6.8,11.77,6.8-5.47,3.16.83-.08,5-2.88,3.23,1.86.54-.08-3.42-2,11.77-6.8,8.56,4.94.44-.14-8.66-5,11.77-6.79,11,6.33.37-.18-11-6.35,11.77-6.8,10.87,6.28c.11-.07.2-.15.3-.22l-10.83-6.26,11.78-6.79,8.25,4.76.22-.27-8.13-4.69,11.77-6.8,2.7,1.56c0-.1.09-.21.14-.32l-2.49-1.44,3.72-2.15c0-.16.1-.32.14-.48L163.48,119l-11.77-6.8,11.77-6.8,5.16,3c0-.14,0-.27,0-.41l-4.79-2.77,4.1-2.37c0-.12,0-.23-.07-.35L163.48,105l-11.77-6.79L163,91.68l-.19-.29L151.37,98l-11.78-6.8,11.78-6.79,11.08,6.39c-.17-.23-.36-.46-.53-.7l-10.21-5.89,3.09-1.79-.28-.23L151.37,84l-11.78-6.8,4.31-2.49-.36-.2L139.24,77l-11.76-6.79,3.06-1.77-.44-.16-3,1.72-9.72-5.61-1.22-.31,10.6,6.12L115,77l-11.35-6.55-.42-.25,11.24-6.49-.5-.11L102.89,70,91.12,63.23l4-2.31-.62,0L90.78,63l-4.32-2.49h-.7l4.67,2.7L78.66,70,66.89,63.23l3.53-2-.83.08-3,1.76-2-1.16-.55.07,2.22,1.29L54.43,70l-7.65-4.41-.46.13,7.76,4.48L42.31,77,32,71l-.38.18,10.39,6L30.2,84,19.69,78l-.32.21,10.48,6L18.08,91,9.91,86.29l-.25.25,8.08,4.67L6,98,3,96.3c0,.11-.1.21-.14.32L5.62,98.2l-4.31,2.49c-.05.16-.09.32-.14.48L6,98.4l11.78,6.8L6,112,0,108.57c0,.13,0,.25,0,.38l5.61,3.24-5,2.88c0,.12,0,.24.07.36l5.25-3,11.78,6.8L6,126l-1.26-.73c.12.22.27.42.41.64l.51.29-.23.14.19.29.38-.23,11.78,6.8-4.24,2.45.27.25,4.32-2.5,11.76,6.79-5.56,3.21Zm5.91-3.41,11.77-6.8,9.29,5.36,2.48,1.44L42.32,147ZM78.67,112.4l9.44,5.45,2.33,1.34L78.67,126l-11.77-6.8ZM66.54,119,54.78,112.2l11.77-6.8,11.77,6.79ZM79,112.2l11.78-6.8,9.88,5.71,1.89,1.09L90.79,119Zm23.89.2,11.77,6.79L102.9,126l-11.77-6.8Zm.35-.2L115,105.4l11.77,6.8L115,119Zm-.35-.2-11.77-6.8,11.77-6.79L114,104.83l.64.37Zm-12.12-7L79,98.21l11.78-6.8,11.76,6.79Zm-.35.2L78.66,112,66.9,105.2l11.77-6.79ZM66.54,105,55.2,98.45l-.43-.25,11.77-6.79L78.32,98.2Zm-.34.2L54.43,112l-11.35-6.55-.42-.24,11.77-6.8Zm-12.12,7L42.31,119,31,112.44l-.43-.25,11.77-6.79Zm.36.21,11.76,6.79L54.43,126l-11.76-6.79Zm0,14,11,6.32.82.47L54.44,140l-11.77-6.8Zm.34-.2,11.77-6.8,9.9,5.72,1.88,1.08L66.55,133Zm23.89.2,11.77,6.79L78.67,140l-11.77-6.8Zm.34-.2,11.78-6.8,11.77,6.8L90.79,133Zm23.89.2,11.77,6.79L102.9,140l-11.77-6.8Zm.35-.2,11.77-6.8,11.77,6.8L115,133Zm12.11-7,11.77-6.79,11.78,6.79L127.13,126Zm12.12-7,11.77-6.8L151,112.2,139.25,119Zm-.35-.2-11.77-6.8,11.77-6.79,11.78,6.79ZM115.36,91.21l11.77-6.79,10.14,5.85,1.64.94L127.13,98Zm10,6.16,1.46.84L115,105l-11.77-6.79L115,91.41ZM102.89,98,91.13,91.21l11.77-6.79,11.76,6.79ZM90.78,91,79.43,84.46,79,84.21l11.78-6.79,11.77,6.79Zm-.35.2L78.66,98,67.32,91.45l-.43-.24,11.77-6.8ZM66.54,91l-11.77-6.8,11.77-6.79,11.78,6.79Zm-.34.2L54.43,98,42.66,91.21l11.77-6.8Zm-12.12,7L42.31,105,30.54,98.2l11.77-6.79ZM42,105.2,30.2,112,18.42,105.2,30.2,98.4Zm0,14L30.2,126l-11.35-6.55-.43-.24,11.78-6.8Zm.35.2,11.76,6.79L42.31,133l-11.76-6.79ZM54.44,154l-11.77-6.8,11.77-6.79,11.77,6.79Zm.34-13.79,11.77-6.8,11.78,6.8L66.55,147ZM78.67,154l-11.77-6.8,11.77-6.79,11.77,6.79ZM79,140.18l11.78-6.8,11.77,6.8L90.79,147ZM102.9,154l-11.77-6.8,11.77-6.79,11.77,6.79ZM115,147l-11.77-6.8,11.77-6.8,11.77,6.8Zm12.11-7-11.77-6.8,11.77-6.79,11.78,6.79Zm12.12-7-11.77-6.8,11.77-6.8,11.77,6.8Zm23.89-13.8L151.37,126l-11.78-6.8,11.78-6.79ZM151.37,98.41l11.77,6.79L151.37,112l-11.78-6.8Zm-.35-.2L139.25,105l-11.77-6.79,11.77-6.8ZM139.25,77.42l9.47,5.47,2.3,1.33L139.25,91l-11.77-6.79Zm-12.12-7,11.77,6.79L127.12,84l-11.76-6.79Zm-12.11,7,11.76,6.79L115,91l-11.76-6.79Zm-.36-.2L102.89,84,91.55,77.46l-.43-.24,11.77-6.8ZM90.78,63.42l11.77,6.8L90.78,77,79,70.22Zm-.35,13.8L78.66,84,66.89,77.22l11.77-6.8ZM66.54,63.42l11.78,6.8L66.54,77l-11.77-6.8Zm-12.11,7,11.77,6.8L54.43,84,42.66,77.22Zm-12.12,7,11.77,6.79L42.31,91l-11.77-6.8Zm-12.11,7L42,91.21,30.2,98,18.42,91.21ZM6.31,98.2l11.77-6.79L29.85,98.2,18.08,105Zm0,14,11.77-6.79,11.77,6.79L18.08,119ZM18.08,133,6.74,126.43l-.43-.25,11.77-6.79,11.77,6.79Zm.35.2,11.78-6.79L42,133.18,30.2,140Z" fill="#5e5151" opacity="0.7"/><g><polygon points="75.51 108.91 51.68 122.67 18.18 103.33 42.02 89.57 75.51 108.91" fill="#4c4242" opacity="0.4" style="mix-blend-mode: multiply"/><polygon points="109.8 89.45 86.31 103.01 30.2 70.62 53.69 57.06 109.8 89.45" fill="#4c4242" opacity="0.4" style="mix-blend-mode: multiply"/><path d="M143.25,75.32c-.43-2.37-1.23-4.81-5.9-7-3.08-1.44-5.58-1.39-9.87-.54-2,.39-8.47,3.94-12.29,6.15-4.53,2.62-8.41,1.55-10.24,5.17-.68,1.37,2.64,3.55,7.13,3,.73-.1,8.75,4.79,8.75,4.79,3,1.82.56,6.33,6.06,5.5,5.76-.87,5.17-6.76,8.4-9.09,1.33-1,2.9-1.49,4.25-2.43C141.49,79.48,143.76,78.16,143.25,75.32Z" fill="#4c4242" opacity="0.4" style="mix-blend-mode: multiply"/></g><g><g><g><g><g style="isolation: isolate"><path d="M139,80.59l-.29-.78-.28-.16.29.78a.51.51,0,0,0,.21.26l.28.17A.58.58,0,0,1,139,80.59Z" fill="#c9c5ba"/><polygon points="138.74 79.81 138.46 79.64 140.75 78.33 141.03 78.49 138.74 79.81" fill="#f5f2ee"/><path d="M141,78.49l-.28,1.11a2,2,0,0,1-.86,1.19c-.39.23-.73.15-.86-.2l-.29-.78Z" fill="#c9c5ba"/></g><g><path d="M141.3,79.45l-.12-.07a1.18,1.18,0,0,0-1.18,0c-.89.53-1.43,2.06-.4,2.7l.12.07a1.11,1.11,0,0,0,.8.12C141.58,82.06,142.5,80.2,141.3,79.45Z" fill="#423e39"/><path d="M141.3,79.45c1.2.75.28,2.61-.78,2.84a1.07,1.07,0,0,1-.79-.12.77.77,0,0,1-.34-.72,2.48,2.48,0,0,1,1.11-1.92.93.93,0,0,1,.48.69,1.69,1.69,0,0,0-.75,1.3c0,.48.34.68.76.44a1.68,1.68,0,0,0,.75-1.31c0-.48-.34-.67-.76-.43a.93.93,0,0,0-.48-.69.79.79,0,0,1,.8-.08Z" fill="#423e39"/><path d="M141.18,79.38a.77.77,0,0,0-.79.08,2.46,2.46,0,0,0-1.12,1.92.78.78,0,0,0,.33.72l.12.07a.78.78,0,0,1-.33-.72,2.48,2.48,0,0,1,1.11-1.92.79.79,0,0,1,.8-.08Z" fill="#423e39" opacity="0.5"/></g><g style="isolation: isolate"><path d="M140.39,81.39l-.29-.79-.28-.16.28.78a.47.47,0,0,0,.22.27l.28.17A.52.52,0,0,1,140.39,81.39Z" fill="#c9c5ba"/><polygon points="140.1 80.6 139.82 80.44 142.1 79.12 142.38 79.28 140.1 80.6" fill="#f5f2ee"/></g></g><g><path d="M142.62,79.23l-.26.15,0-.1L140.1,80.6l0,.08a1.67,1.67,0,0,0,0,.31l.11-.06.17.46c.12.34.47.43.86.2a2,2,0,0,0,.85-1.19l.17-.66.35-.2Z" fill="#e6e2db"/><polygon points="140.11 80.69 140.11 81 138.32 79.96 138.32 79.65 140.11 80.69" fill="#c9c5ba"/><polygon points="142.62 79.23 140.11 80.69 138.32 79.65 140.82 78.19 142.62 79.23" fill="#f5f2ee"/></g></g><g><g><g style="isolation: isolate"><path d="M121.8,70.55l-.29-.78-.28-.16.29.78a.52.52,0,0,0,.21.27l.28.16A.5.5,0,0,1,121.8,70.55Z" fill="#c9c5ba"/><polygon points="121.51 69.77 121.23 69.61 123.52 68.29 123.8 68.45 121.51 69.77" fill="#f5f2ee"/><path d="M123.8,68.45l-.29,1.11a2,2,0,0,1-.85,1.2c-.39.22-.73.14-.86-.21l-.29-.78Z" fill="#c9c5ba"/></g><g><path d="M124.07,69.41l-.12-.06a1.14,1.14,0,0,0-1.18,0c-.89.52-1.43,2-.4,2.69l.12.07a1.05,1.05,0,0,0,.8.13C124.35,72,125.27,70.16,124.07,69.41Z" fill="#423e39"/><path d="M124.07,69.41c1.2.75.28,2.61-.78,2.85a1.11,1.11,0,0,1-.8-.12.77.77,0,0,1-.33-.72,2.48,2.48,0,0,1,1.11-1.93,1,1,0,0,1,.48.69,1.68,1.68,0,0,0-.75,1.31c0,.48.34.67.76.43a1.69,1.69,0,0,0,.75-1.31c0-.47-.34-.67-.76-.43a1,1,0,0,0-.48-.69.82.82,0,0,1,.8-.08Z" fill="#423e39"/><path d="M124,69.35a.79.79,0,0,0-.8.07A2.48,2.48,0,0,0,122,71.35a.77.77,0,0,0,.33.71l.12.07a.75.75,0,0,1-.33-.71,2.48,2.48,0,0,1,1.11-1.93.82.82,0,0,1,.8-.08Z" fill="#423e39" opacity="0.5"/></g><g style="isolation: isolate"><path d="M123.16,71.35l-.29-.78-.29-.17.29.78a.53.53,0,0,0,.22.28l.28.16A.48.48,0,0,1,123.16,71.35Z" fill="#c9c5ba"/><polygon points="122.87 70.57 122.58 70.4 124.87 69.08 125.15 69.25 122.87 70.57" fill="#f5f2ee"/></g></g><g><path d="M125.39,69.19l-.26.15,0-.09-2.28,1.32,0,.07s0,.32,0,.32l.11-.06.17.45c.12.35.47.43.85.21a2.07,2.07,0,0,0,.86-1.2l.17-.65.35-.21Z" fill="#c9c5ba"/><polygon points="122.88 70.65 122.88 70.96 121.08 69.92 121.09 69.61 122.88 70.65" fill="#c9c5ba"/><polygon points="125.39 69.19 122.88 70.65 121.09 69.61 123.59 68.16 125.39 69.19" fill="#c9c5ba"/></g></g><g><g><g style="isolation: isolate"><path d="M121.68,80.67l-.29-.79-.28-.16.29.78a.45.45,0,0,0,.21.27l.28.16A.46.46,0,0,1,121.68,80.67Z" fill="#c9c5ba"/><path d="M123.68,78.56l-.29,1.12a2,2,0,0,1-.85,1.19c-.39.22-.73.14-.86-.2l-.29-.79Z" fill="#c9c5ba"/></g><g><path d="M124,79.53l-.12-.07a1.15,1.15,0,0,0-1.18,0c-.9.52-1.43,2-.41,2.7l.12.06a1.09,1.09,0,0,0,.81.13C124.23,82.13,125.14,80.28,124,79.53Z" fill="#423e39"/><path d="M124,79.53c1.19.75.28,2.6-.78,2.84a1.11,1.11,0,0,1-.8-.12.77.77,0,0,1-.33-.72,2.45,2.45,0,0,1,1.11-1.93,1,1,0,0,1,.48.7,1.62,1.62,0,0,0-.75,1.3c0,.48.34.67.76.43a1.69,1.69,0,0,0,.75-1.31c0-.47-.34-.66-.76-.42a1,1,0,0,0-.48-.7.79.79,0,0,1,.8-.07Z" fill="#423e39"/><path d="M123.83,79.46a.81.81,0,0,0-.8.07,2.48,2.48,0,0,0-1.11,1.93.79.79,0,0,0,.32.72l.12.06a.76.76,0,0,1-.32-.71,2.45,2.45,0,0,1,1.11-1.93.79.79,0,0,1,.8-.07Z" fill="#423e39" opacity="0.5"/></g><g style="isolation: isolate"><path d="M123,81.46l-.29-.78-.28-.16.29.78a.54.54,0,0,0,.22.27l.28.16A.47.47,0,0,1,123,81.46Z" fill="#c9c5ba"/><path d="M125,79.36l-.28,1.11a2,2,0,0,1-.86,1.2c-.38.22-.73.14-.86-.21l-.29-.78Z" fill="#e6e2db"/></g></g><g><polygon points="125.27 79.31 125.27 79.61 122.76 81.07 122.76 80.76 125.27 79.31" fill="#e6e2db"/><polygon points="122.76 80.76 122.76 81.07 120.96 80.03 120.97 79.72 122.76 80.76" fill="#c9c5ba"/><polygon points="125.27 79.31 122.76 80.76 120.97 79.72 123.47 78.27 125.27 79.31" fill="#f5f2ee"/></g></g><g><g><g style="isolation: isolate"><path d="M138.81,70.72l-.29-.78-.28-.16.28.78a.54.54,0,0,0,.22.27L139,71A.45.45,0,0,1,138.81,70.72Z" fill="#c9c5ba"/><polygon points="138.52 69.94 138.24 69.78 140.52 68.46 140.8 68.62 138.52 69.94" fill="#f5f2ee"/><path d="M140.8,68.62l-.28,1.11a2,2,0,0,1-.85,1.2c-.39.22-.74.14-.86-.21l-.29-.78Z" fill="#e6e2db"/></g><g><path d="M141.07,69.59l-.11-.07a1.13,1.13,0,0,0-1.18,0c-.9.52-1.44,2-.41,2.69l.12.07a1.09,1.09,0,0,0,.81.13C141.36,72.19,142.27,70.33,141.07,69.59Z" fill="#423e39"/><path d="M141.07,69.59c1.2.74.29,2.6-.77,2.84a1.11,1.11,0,0,1-.8-.12.77.77,0,0,1-.33-.72,2.43,2.43,0,0,1,1.11-1.93,1,1,0,0,1,.48.7,1.65,1.65,0,0,0-.76,1.3c0,.48.35.67.76.43a1.67,1.67,0,0,0,.76-1.31c0-.47-.34-.67-.76-.42a1,1,0,0,0-.48-.7.77.77,0,0,1,.79-.07Z" fill="#423e39"/><path d="M141,69.52a.79.79,0,0,0-.8.07,2.43,2.43,0,0,0-1.11,1.93.76.76,0,0,0,.32.71l.12.07a.76.76,0,0,1-.32-.71,2.43,2.43,0,0,1,1.11-1.93.77.77,0,0,1,.79-.07Z" fill="#423e39" opacity="0.5"/></g><g style="isolation: isolate"><path d="M140.16,71.52l-.29-.78-.28-.17.29.79a.52.52,0,0,0,.21.27l.29.16A.5.5,0,0,1,140.16,71.52Z" fill="#c9c5ba"/><polygon points="139.87 70.74 139.59 70.57 141.88 69.25 142.16 69.42 139.87 70.74" fill="#f5f2ee"/><path d="M142.16,69.42l-.29,1.11a2,2,0,0,1-.85,1.2c-.39.22-.73.14-.86-.21l-.29-.78Z" fill="#e6e2db"/></g></g><g><polygon points="142.39 69.36 142.39 69.67 139.89 71.13 139.89 70.82 142.39 69.36" fill="#e6e2db"/><polygon points="139.89 70.82 139.89 71.13 138.09 70.09 138.09 69.78 139.89 70.82" fill="#c9c5ba"/><polygon points="142.39 69.36 139.89 70.82 138.09 69.78 140.6 68.33 142.39 69.36" fill="#f5f2ee"/></g></g><g style="isolation: isolate"><polygon points="142.09 68.24 142.08 69.37 134.95 73.52 134.95 72.39 142.09 68.24" fill="#e6e2db"/><polygon points="128.41 72.39 128.41 73.52 121.22 69.37 121.22 68.24 128.41 72.39" fill="#c9c5ba"/><g style="isolation: isolate"><path d="M135.39,73.41v1.12a1.49,1.49,0,0,1-.43,1V74.4a1.49,1.49,0,0,0,.43-1Z" fill="#e6e2db"/></g><g style="isolation: isolate"><g style="isolation: isolate"><path d="M128.42,74.41v1.13a1.44,1.44,0,0,1-.44-1V73.39a1.48,1.48,0,0,0,.44,1Z" fill="#c9c5ba"/></g></g><g style="isolation: isolate"><path d="M133.44,75.29v1.13a6.15,6.15,0,0,1-3.48,0V75.29a6.1,6.1,0,0,0,3.49,0Z" fill="#c9c5ba"/></g><polygon points="142.15 78.55 142.15 79.68 140.62 80.57 140.62 79.44 142.15 78.55" fill="#e6e2db"/><polygon points="140.62 79.44 140.62 80.57 133.43 76.42 133.44 75.29 140.62 79.44" fill="#c9c5ba"/><polygon points="122.82 79.44 122.81 80.57 121.28 79.68 121.28 78.55 122.82 79.44" fill="#c9c5ba"/><path d="M142.09,68.24,135,72.39a1.39,1.39,0,0,1,0,2l7.19,4.15-1.53.89-7.18-4.15a6.1,6.1,0,0,1-3.49,0l-7.13,4.15-1.54-.89,7.14-4.14a1.38,1.38,0,0,1,0-2l-7.19-4.15,1.53-.89,7.19,4.15a6.2,6.2,0,0,1,3.47,0l7.14-4.14Z" fill="#f5f2ee"/><polygon points="129.95 75.29 129.95 76.42 122.81 80.57 122.82 79.44 129.95 75.29" fill="#e6e2db"/></g></g><g><path d="M133.88,67.78a1.07,1.07,0,0,1-.62.88,3.37,3.37,0,0,1-3.06,0,1.07,1.07,0,0,1-.64-.89v5.56a1.08,1.08,0,0,0,.64.89,3.37,3.37,0,0,0,3.06,0,1.09,1.09,0,0,0,.63-.88Z" fill="url(#a)"/><path d="M133.24,66.89a3.35,3.35,0,0,0-3.05,0c-.85.49-.84,1.28,0,1.77a3.37,3.37,0,0,0,3.06,0C134.1,68.17,134.09,67.38,133.24,66.89Z" fill="#f5f2ee"/></g><path d="M130.34,49.44v18.2c0,.29.27.58.79.73a2.08,2.08,0,0,0,1.21,0c.52-.15.77-.44.77-.72V49.44Z" fill="url(#b)"/><g><path d="M137.08,54.94l1.33,7a.35.35,0,1,1-.69.13l-1.32-7s0,0,0-.06a.36.36,0,0,1,.29-.35A.35.35,0,0,1,137.08,54.94Z" fill="#c9c5ba"/><path d="M137,61.44l.17,2.05a.22.22,0,0,0,.28.2l2-.44a.22.22,0,0,0,.17-.29L139,61a.23.23,0,0,0-.26-.15l-1.57.33A.22.22,0,0,0,137,61.44Z" fill="#686863"/></g><g><path d="M141.85,52.81a13.47,13.47,0,0,0,.07-2.11l-20.39-.06c0,1.67-.4,3.81,3,5.9,5.7,3.49,16.11,1.58,17.26-3.47a1.55,1.55,0,0,0,.06-.23Z" fill="url(#c)"/><path d="M141.14,48.37a7.14,7.14,0,0,0-2.22-2,11.92,11.92,0,0,0-1.95-.91,11.74,11.74,0,0,0-1.38-.41,12.45,12.45,0,0,0-1.46-.28,14,14,0,0,0-1.5-.15c-.51,0-1,0-1.53,0a16.19,16.19,0,0,0-3,.38,12.56,12.56,0,0,0-1.43.4,11.87,11.87,0,0,0-1.35.55,9,9,0,0,0-1.89,1.2,8.07,8.07,0,0,0-.67.64l-.45.57c-.07.11-.16.25-.22.36a4.23,4.23,0,0,0-.39.92,4.09,4.09,0,0,0-.16,1.08c0,1.49,1,3,2.89,4.13,3.92,2.35,10.37,2.41,14.41.15,2-1.15,3.08-2.68,3.09-4.22A4.18,4.18,0,0,0,141.14,48.37Z" fill="url(#d)"/><ellipse cx="131.73" cy="50.26" rx="5.52" ry="9.52" transform="translate(81.09 181.84) rotate(-89.84)" fill="#89ccce"/></g></g><g><path d="M117.89,37.67l4.35-11.07c.46-2.75,1.14-8.26,2-11.56a2.61,2.61,0,0,1,2.4-2l.28,0A3.3,3.3,0,0,1,129,14.88c.86,1.56,1.46,1,1.16,2.6s-2.39,9.64-3,11c-.28.64-5.41,11.11-5.41,11.11C121.16,40.62,117.39,38.81,117.89,37.67Z" fill="#e6e6e6"/><path d="M119.54,39.33c1,.47,2,.48,2.26,0s-.43-1.25-1.46-1.73-2-.48-2.26,0S118.51,38.85,119.54,39.33Z" fill="#afafaf"/></g><g><path d="M116.51,75s0,.35,0,.5c-.07.41-.11,1.24-.47,1.5-.86.63-1.61.73-2.56,1.37a10.3,10.3,0,0,1-2.6,1.47A8.18,8.18,0,0,1,108,80c-1.12-.19-2.24-.86-2.19-1.83,0-.72.2-1,.27-1,.62-.36,3.4-.51,4.65-1s2.66-1,4-1.5C115.23,74.42,116.84,73.82,116.51,75Z" fill="#e19b5d"/><path d="M115.9,76.14c1.12-.81.69-2.53.72-3.93,0-.14,0-.28,0-.42a2.15,2.15,0,0,0-1.68-2.3l-2.53-.58c-.08.48-.17,1-.26,1.46a9.52,9.52,0,0,1-1.06,3.48c-.68,1.09-6.21,2.16-5,4.1a1.6,1.6,0,0,0,.59.47,5.12,5.12,0,0,0,4.47.14c1.16-.52,2.1-1.47,3.29-1.88A4.79,4.79,0,0,0,115.9,76.14Z" fill="#302b2b"/></g><g><path d="M131.21,84.12a2.9,2.9,0,0,0,0,.53c-.14.72-.41,2.35-.47,2.51-.75,2-2.41,4.48-4.61,4.55-.92,0-2.26-.28-2.5-1.47a3.7,3.7,0,0,1,0-1.76c.37-.55,2.44-1.1,3.27-1.89s1.74-1.58,2.7-2.33C130.06,83.92,131.34,82.7,131.21,84.12Z" fill="#e19b5d"/><path d="M131.07,85.29a21.55,21.55,0,0,0,.43-2.5c.07-.66-4.46-1.4-4.57-.46-.07.53-.38.68-.52,1.17-.41,1.41-4,4.46-2.41,6.59a1.47,1.47,0,0,0,.6.48C128,92,130.77,86.65,131.07,85.29Z" fill="#302b2b"/></g><g><path d="M109.51,51.5c7.73-4.5,13.29-6.72,16.2-9.36a10.76,10.76,0,0,0,.5-3c.3.42.56,1.24.87,1.8,1.31,2.41,4.12,3.55,7.26,4.29,2.66.63,5.1-.35,7.58,0a11.44,11.44,0,0,1,.55,4.46,8.14,8.14,0,0,1-1.32,3.85c-2.55,3.93-7,12.19-7,12.19l-2.3,17.18c-.43,1.9-5.65,1.81-5.76,0l-.68-19.11,1.48-9.92a.32.32,0,0,0-.44-.35c-1.5.57-6.14,2.66-8.21,3.59a1.75,1.75,0,0,0-1,1.57l-.32,15c-1,2.38-5.91,1.55-6-.39l-2-17.37a18.8,18.8,0,0,1-.14-2.6A1.87,1.87,0,0,1,109.51,51.5Z" fill="#222223"/><path d="M141.24,19a27.88,27.88,0,0,0-4.58-2.46l-7.42-2.81-.46-.17c-1.45-.55-2.18-.59-2.78-.3-1.82.87-2.06,5.3-2.08,8,0,.75.81,21.46.81,21.48.09,2.12,2.87,3.56,4.54,4.2.38.14.68,2.1,1,2.54a1.88,1.88,0,0,0,1.32.86,7.85,7.85,0,0,1,5.5,5.23c.88,2.9,1,6.48,1.78,10,0,0,5.28-4.69,4.84-10.62-1.75-13-1.6-16.27-1.6-18.28a62.82,62.82,0,0,1,1.13-12.06C143.82,21.84,143.68,20.86,141.24,19Z" fill="url(#e)"/></g><g><polygon points="122.25 52.78 112.83 47.34 112.83 47.57 122.25 53 122.25 52.78" fill="#282726"/><polygon points="137.42 44.25 122.25 53 122.25 52.78 137.42 44.02 137.42 44.25" fill="#383534"/><polygon points="122.25 52.78 112.83 47.34 128 38.59 137.42 44.02 122.25 52.78" fill="#3f3d3c"/><polygon points="114.41 47.24 127.99 39.41 135.99 44.03 122.42 51.87 114.41 47.24" fill="#f2f2f2"/></g><path d="M134.86,42.84c.11-.27,5.93-6.42,6.17-7.17,0,0-3-12-2.12-14.71.53-1.57,1.31-2.09,2.29-1.88a2.51,2.51,0,0,1,1.67,1.36c3.5,7,3.52,16.08,3.36,17.52,0,0-6,6-8.27,7.69-1.2.9-2-.11-2.84-1.08A1.56,1.56,0,0,1,134.86,42.84Z" fill="url(#f)"/><path d="M137.13,43.56c.71.78.91,1.75.46,2.18s-1.39.14-2.09-.64-.91-1.75-.46-2.17S136.43,42.79,137.13,43.56Z" fill="#afafaf"/><path d="M136,42.81a10.84,10.84,0,0,0-1.75,1.26A5.11,5.11,0,0,0,133,45.43l-.63,1.31a1.71,1.71,0,0,1-.61.79c-.54.35-1.27.77-1.27.77,1.2.5,3.59-.13,4.06-.37a8.44,8.44,0,0,0,3.29-3.07A2.7,2.7,0,0,0,136,42.81Z" fill="#260701"/><path d="M134.88,43.73a6.82,6.82,0,0,0-3.49,1c-.23.24-.38.49-.31.69.24.66.81-.41,2.45,0l.2,0a1.93,1.93,0,0,0,2.12-.86l.15-.24C135.26,44.45,135.51,43.75,134.88,43.73Z" fill="#260701"/><g><polygon points="119.12 50.51 116.44 48.96 116.44 48.46 119.12 50 119.12 50.51" fill="#adadad"/><polygon points="120.3 49.83 119.12 50.51 119.12 50 120.3 49.32 120.3 49.83" fill="#bcbcbc"/><polygon points="119.12 50 116.44 48.46 117.62 47.77 120.3 49.32 119.12 50" fill="#d6d6d6"/></g><path d="M135.12,15.78q-1.27-.53-2.58-1a1.83,1.83,0,0,0-1.11-.22,2.41,2.41,0,0,0-.85.52c-.37.31-.82.58-1.21.87a6.57,6.57,0,0,0-1.93,2c-.78,1.43-.55,3.38-.38,4.95a21.45,21.45,0,0,0,1.7,7c2-1.65,4.09-3.26,6.15-4.86a8,8,0,0,0,2.92-4.51,6.74,6.74,0,0,0,.43-2.53,1.23,1.23,0,0,0-.4-1,4.86,4.86,0,0,0-1-.5C136.31,16.3,135.71,16,135.12,15.78Z" fill="url(#g)"/><path d="M138.41,17.26c.74,1.63.25,3.15-.16,4.74,0,.17-.92.55-1,.7s.3.52.24.66l-8.75,6.57c4.06-4.42,10-8.32,8.15-12.38-.92-2-4.33-5.34-7.44-2a6.22,6.22,0,0,0-1.09,1.68c-1.24,2.68-1.24,3.56.38,12.7-1.62-2.43-2.39-7.46-2.51-9.36l.57-.41-.5-.74a8.35,8.35,0,0,1,3.87-4.86C132.65,13.24,137.43,15.11,138.41,17.26Z" fill="#f2f2f2"/><path d="M136.75,11.63c-.33-.52-1.29-.33-1.88-.34-.92,0-1.84,0-2.75,0-.23,0-1.37,0-1.44.31-.12.58-.89,1.81-1,2.4-.28,1.46-.8,2.79-.2,3.7a2.76,2.76,0,0,0,.66-.13v3.59l1.36-2.88c1.47.8,4.1.79,5.08-1.29-.19-2.17.35-4.3.21-5.12A.78.78,0,0,0,136.75,11.63Z" fill="#260701"/><g><path d="M129.54,14.88s-.16,1.14-.17,1.32a1.56,1.56,0,0,0,.82,1.4c-.72.65-2.39,2.22-2.39,2.22A13.79,13.79,0,0,1,129.54,14.88Z" fill="#71bbbc"/><path d="M131.55,18.31l1.1,3.53c3.23-.79,4.69-2.71,5.07-3.92a2.59,2.59,0,0,0-.15-2c-.31-.62-.72-1.14-.93-1.16l-.08,1c-.27,1.08-1.67,1.78-2.52,2.08A6.83,6.83,0,0,1,131.55,18.31Z" fill="#71bbbc"/></g><path d="M128.86,14.14c.22.93.44,2.18,1.35,2.38,1.66.35,5.21-.55,5.66-1.78.74-2.08,1.46-4.22.53-6.9a7,7,0,0,0-2-2.95,9.05,9.05,0,0,0-2.21-1.26c-2.24-1-4.17-.86-4.29,1.43a27.9,27.9,0,0,0-.09,3.42A19.63,19.63,0,0,0,128.86,14.14Z" fill="#260701"/><path d="M130.37.35c-.37,0-.59.47-1.31.52-.48,0-.68.37-1.12,1.09-.23.36-.18.75-.32,1.09s-.28.29-.4.68a10.77,10.77,0,0,0-.08,1.18c-.09.59-.34.64-.19,1.28a16.81,16.81,0,0,0,1,3.43c0-4.72-.17-4.11,1.22-4.57.44-.15.69.13,1.11.21,2.65.48,4.07,1.39,4.17,4.59,0,.23-.08,1,.17,1.1s.44-1,.61-1.24a.81.81,0,0,1,1.22,0c.63.61.38,1.62.16,2.53s-.39,1.77-.39,1.77a3.6,3.6,0,0,0,2-1.91,7.28,7.28,0,0,0,.23-.92,4.61,4.61,0,0,0,.22-.51c0-.15,0-.31,0-.45s.25-.38.34-.6,0-.29.07-.42.27-.16.34-.32,0-1.48.05-1.72a2.57,2.57,0,0,0,.08-1.75,14.38,14.38,0,0,1-.27-1.43c-.13-.54-.53-.17-.68-.71A2.41,2.41,0,0,0,138,2.06c-.71-.67-1.49-1.73-2.4-1.68-.73,0-1.39-.43-2.16-.38A24.76,24.76,0,0,1,130.37.35Z" fill="#28211d"/><path d="M118.76,37.27a5.43,5.43,0,0,1-.68,1c-.79.72-.46,1.58-.37,2.25.22,1.58.4,3,1.31,2.58.57-.26.48-1.12.85-1.81.19-.36,1.3-1.4,1.42-1.74a2.92,2.92,0,0,1,.42-.83A3.69,3.69,0,0,0,118.76,37.27Z" fill="#260701"/><path d="M118.93,43.88l.25.88a7,7,0,0,0,.18-.89l-.19-.18Z" fill="#d3af5e"/><path d="M118.93,43.87c0,.25.41.2.44,0,0,0-.44-6-.45-6.72,0-.29-.56-.3-.54,0C118.39,37.23,118.91,43.75,118.93,43.87Z" fill="#383534"/><path d="M120.65,40.67a3.79,3.79,0,0,0,.06-1c-.17-.54-.9-.61-1.38-.85l.08,1.66-.37.94c-.25.62-.16,1.65.56.83A9.06,9.06,0,0,0,120.65,40.67Z" fill="#260701"/><g><g><g><g><polygon points="79.24 96.82 33.43 70.38 33.43 44.5 79.24 70.94 79.24 96.82" fill="#bfbbb1"/><polygon points="99.96 84.86 79.24 96.82 79.24 70.94 99.96 58.98 99.96 84.86" fill="#dad7d0"/><polygon points="79.24 70.94 33.43 44.5 54.15 32.53 99.96 58.98 79.24 70.94" fill="#f5f2ee"/></g><g><polygon points="79.27 92.99 32.79 66.15 32.79 39.61 79.27 66.45 79.27 92.99" fill="#c9c5ba"/><polygon points="100.52 80.72 79.27 92.99 79.27 66.45 100.52 54.18 100.52 80.72" fill="#e6e2db"/><polygon points="79.27 66.45 32.79 39.61 54.03 27.34 100.52 54.18 79.27 66.45" fill="#e6e2db"/><polygon points="34.76 39.61 54.03 28.48 98.54 54.18 79.27 65.31 34.76 39.61" fill="#c9c5ba"/><polygon points="54.03 32.53 95.04 56.21 98.54 54.18 54.03 28.48 34.76 39.61 38.27 41.63 54.03 32.53" fill="#c9c5ba" opacity="0.4" style="mix-blend-mode: multiply"/></g><g><polygon points="99.64 54.91 80.26 66.15 80.26 71.92 99.64 60.68 99.64 54.91" fill="#c9c5ba"/><polygon points="80.26 66.15 80.26 71.92 99.64 60.68 94.65 57.8 80.26 66.15" fill="#f5f2ee"/><polygon points="80.26 66.15 80.26 69.86 96.15 60.68 99.64 60.68 94.65 57.8 80.26 66.15" fill="#c9c5ba" opacity="0.7"/></g><g clip-path="url(#h)"><g><polygon points="80.82 68.43 72.13 63.41 72.13 61.52 80.82 66.53 80.82 68.43" fill="#549fa3"/><polygon points="100.15 57.27 80.82 68.43 80.82 66.53 100.15 55.38 100.15 57.27" fill="#71bbbc"/><polygon points="80.82 66.53 72.13 61.52 91.46 50.36 100.15 55.38 80.82 66.53" fill="#89ccce"/></g></g><g style="isolation: isolate"><polygon points="79.26 39.19 56.94 52.17 56.99 52.98 79.31 40 79.26 39.19" fill="#71bbbc"/><path d="M55.22,10.23a.28.28,0,0,0-.29,0l-22.32,13a.28.28,0,0,1,.29,0l24,29,22.32-13Z" fill="url(#i)"/><polygon points="79.68 39.55 57.36 52.53 79.23 65.16 101.56 52.18 79.68 39.55" fill="#89ccce"/><path d="M101.73,52.4a.56.56,0,0,0-.1-.15.23.23,0,0,0-.07-.07l-22.33,13a.27.27,0,0,1,.08.07.35.35,0,0,1,.09.16c.2.45.19,1.38,0,1.51l22.33-13C101.91,53.79,101.93,52.86,101.73,52.4Z" fill="#71bbbc"/><path d="M32.9,23.21l24,29L57,53l.37-.45L79.23,65.16c.42.24.42,2,0,1.74L56.93,54a1.66,1.66,0,0,1-.36-.31L32.25,24.39C31.91,24,32.52,23,32.9,23.21Z" fill="#549fa3"/></g></g><g><polygon points="99.64 63.81 80.26 75.04 80.26 82.8 99.64 71.56 99.64 63.81" fill="#71bbbc"/><g><path d="M93.21,69.5c-.94,2.64-7,5.32-5.29,3l-.21-.19c-.44.48-1.16,1.36-1,1.71a.29.29,0,0,0,.29.16c1.29,0,5.28-1.83,6.48-4.59Z" fill="#549fa3" opacity="0.9"/><g style="isolation: isolate"><path d="M91.48,71.14a9.27,9.27,0,0,1-3.81,1.19v.54a9.16,9.16,0,0,0,3.81-1.19,4,4,0,0,0,2-2.21v-.54A4,4,0,0,1,91.48,71.14Z" fill="url(#j)"/><path d="M92.75,69.38a2.65,2.65,0,0,1-1.41,1.68,6.68,6.68,0,0,1-2.89.82l-.78.45a9.27,9.27,0,0,0,3.81-1.19,4,4,0,0,0,2-2.21Z" fill="#eaeaea"/></g></g></g><g><polygon points="99.64 72.34 80.26 83.58 80.26 91.33 99.64 80.1 99.64 72.34" fill="#71bbbc"/><g><path d="M93.21,78c-.94,2.65-7,5.32-5.29,3l-.21-.19c-.44.49-1.16,1.36-1,1.71a.3.3,0,0,0,.29.17c1.29,0,5.28-1.83,6.48-4.59Z" fill="#549fa3" opacity="0.9"/><g style="isolation: isolate"><path d="M91.48,79.68a9.42,9.42,0,0,1-3.81,1.19v.54a9.47,9.47,0,0,0,3.81-1.19,4,4,0,0,0,2-2.21v-.54A4,4,0,0,1,91.48,79.68Z" fill="url(#k)"/><path d="M92.75,77.92a2.64,2.64,0,0,1-1.41,1.67,6.68,6.68,0,0,1-2.89.82l-.78.46a9.42,9.42,0,0,0,3.81-1.19,4,4,0,0,0,2-2.21Z" fill="#eaeaea"/></g></g></g></g><polygon points="32.79 64.55 54.21 76.92 54.21 56.91 32.79 44.55 32.79 64.55" fill="#549fa3"/><g style="isolation: isolate"><path d="M50.52,66a9.7,9.7,0,0,1,.89-4l-.47-.28a9.55,9.55,0,0,0-.9,4A4.09,4.09,0,0,0,51,68.63l.47.28A4.1,4.1,0,0,1,50.52,66Z" fill="url(#l)"/><path d="M51.43,68a2.67,2.67,0,0,1-.76-2.1,6.78,6.78,0,0,1,.75-3V62a9.7,9.7,0,0,0-.89,4,4.1,4.1,0,0,0,.91,2.94Z" fill="#a9a8a7"/></g></g><g><polygon points="87.34 101.51 80.21 97.39 80.21 93.48 87.34 97.6 87.34 101.51" fill="#c9c5ba"/><polygon points="108.59 89.24 87.34 101.51 87.34 97.6 108.59 85.34 108.59 89.24" fill="#e6e2db"/><polygon points="87.34 97.6 80.21 93.48 101.45 81.22 108.59 85.34 87.34 97.6" fill="#f5f2ee"/></g><g><path d="M71.76,25.26a23.84,23.84,0,0,1,2.66-1c1.26-.71,3.51-2.16,4.78-2.87,0-.29-1.45-2.29-1.5-2.56-.4-2.42-1.71-4.71-1.24-7.11A9.25,9.25,0,0,1,77,9.54,18.4,18.4,0,0,0,78,7.8a2.28,2.28,0,0,0,.15-1.06s2.46-2.25,2.44-2.27c-1.54-1.75-3.51-1.27-5-.65A7.48,7.48,0,0,0,70.84,11a56,56,0,0,0,.42,7.77C71.38,19.77,71.7,23.52,71.76,25.26Z" fill="#28211d"/><path d="M96.73,30.73c-1.37-.55-2.72-1.13-4-1.75C92.68,29,91,26,89,23c0,.11-1.08,4.67-1.4,6.25.38.36,1.18,1.32,1.76,2a3.12,3.12,0,0,0,1.45,1c1.33.4,9,2.27,9.86,2.68,1.25.59,4.35,1,5.54-.12a1.44,1.44,0,0,0-.06-1.88c-.54-.57-1.42-.68-2.09-1a5.86,5.86,0,0,0-.55-.3,2.38,2.38,0,0,0-1-.14c-1.09,0-1.38.47-2.43.24A22.08,22.08,0,0,1,96.73,30.73Z" fill="#af6e51"/><path d="M91.89,25.66c-.28-.51-4.49-10.78-8.42-9.18-3.57,1.46-1.23,7.89,2.16,12.76C87.28,29.94,91.5,28,91.89,25.66Z" fill="#ffd252"/><g><g><path d="M96.24,78.75c-.17.19-.52,1.13-.19,1.53.72.86,1.12,1.15,1.92,2.14a16,16,0,0,0,2,2.49,8.85,8.85,0,0,0,2.8,1.39c1.15.27,2.17.26,2.63-.92a1.8,1.8,0,0,0-.21-1.51c-.46-.6-2.74-1.44-3.77-2.4s-2.2-2-3.23-3C97.72,78,96.32,78.6,96.24,78.75Z" fill="#e5b56a"/><path d="M96.33,79.57c-.49-.78.33-1.46.65-2.12.19-.39.35-1,.77-1.25.59-.28,1.47.36,2,.56a4.42,4.42,0,0,1,1.42.67c.31.35.15,1,.32,1.38a10.3,10.3,0,0,0,2.26,2.76c.86.94,2,2.21,1.69,3.59a1.16,1.16,0,0,1-1,.87c-1.63.16-3.39-1-4.51-2.2-.92-1-1.46-2.29-2.47-3.18A4.89,4.89,0,0,1,96.33,79.57Z" fill="#302b2b"/></g><g><path d="M89.82,85.31a2.2,2.2,0,0,0,.4,1.61c1.66,1.79,4,3.91,5.74,3.87,1.58,0,3.83-1.33,4-2.27.09-.68-.74-1.79-.74-1.79-.49-.47-2.82,0-3.87-.67a17.24,17.24,0,0,0-3.78-1.37A2.16,2.16,0,0,0,89.82,85.31Z" fill="#e5b56a"/><path d="M90.26,86.41c-.74-1-.32-1.22-.46-1.79a3.45,3.45,0,0,1-.16-1.89,1.3,1.3,0,0,1,.31-.35,2.45,2.45,0,0,1,1.29-.48,3.58,3.58,0,0,1,2,.17c.46.18.32.58.83,1.24s4.76,2.28,5.55,4c.23.52-1.15,2.1-3.5,2.47C94,90.14,90.54,86.8,90.26,86.41Z" fill="#302b2b"/></g><path d="M98.91,70.75c-.82.46-.47.47-1.29.86l.18,3.78-.16.93a1.33,1.33,0,0,0,.58,1.27,1.42,1.42,0,0,0,1.8.15,1.43,1.43,0,0,1,1.17-.07Z" fill="#af6e51"/><path d="M89.08,80.93c.2.73.4,1.46.59,2.17.23.87,1,1.15,1.24.7a3.18,3.18,0,0,1,2.43-1.31L92.6,79.2C91.88,79.82,89.26,80.7,89.08,80.93Z" fill="#af6e51"/><path d="M103.15,57.13c-.74-2.52-12.26-8.59-12.91-10,0,0-15.35,0-15.43.42a18.82,18.82,0,0,0-.69,6.14c-.11,5.1,3,6.51,12,14l3,14.32c.73,1.31,4.18.61,4.16-.51,0-.79.58-15.31.36-16.77-.12-.79-4.53-6.19-6-8.16,1.6,1.06,5.86,3.66,7.76,5a1.49,1.49,0,0,1,.64,1.29l1.41,13.06c.15,1.16,2.15,1.39,3.28,1a1.44,1.44,0,0,0,.77-.82C101.85,73.33,103.37,57.86,103.15,57.13Z" fill="#195772"/></g><g><path d="M89.71,27a8.19,8.19,0,0,0-1.47-3.18,11.63,11.63,0,0,1-1.51-3.06c-1-2.93-1.93-5.07-2.87-4.46-.28.18-10.74,6.55-11.15,6.78a4.11,4.11,0,0,0-1,2.1c4.37,13.25,3.38,17.8,2.9,21.3a22.85,22.85,0,0,0-.66,4.33c.08,2.16,9.25,4,14,.8,2-1.37,2.74-2.85,2.72-4s-1.9-2.8-2.15-7.95C88.08,30.63,90,28.49,89.71,27Z" fill="#ffd252"/><path d="M84.53,26.9c2-.78-.19-8.95-1.22-9.69a1.88,1.88,0,0,0-.56-.29l-6.39,3.9C76.62,22,82.89,27.53,84.53,26.9Z" fill="#af6e51"/></g><g><path d="M80.49,54.66a17.85,17.85,0,0,1-1.39-3c-1-2.14-5.41-10.28-5.63-11.28C73.18,39.05,72,33.87,72,33.28c0-1.27,4.83-1.74,5-.6.11.84.42,6.83.44,6.89a.61.61,0,0,0,0,.12c1.36,3.45,2.73,6.9,4.18,10.31a5,5,0,0,0,1.72,2.61c1.68,1.1,3.1,2.1,2.44,4.3a1.27,1.27,0,0,1-1.71.74,4.33,4.33,0,0,1-1-1C82.35,55.88,81.12,55.57,80.49,54.66Z" fill="#af6e51"/><path d="M78.08,34.32c0-.58,1-12.45-3.27-12-5.09.52-4.67,6.17-3,12.46C72.3,36.2,77.82,36.14,78.08,34.32Z" fill="#ffd252"/></g></g><g><g><g><path d="M76.54,15.31c.34-.51,1.32-.27,1.91-.25.93,0,1.87.06,2.79.15.23,0,1.39,0,1.45.38.11.59.84,1.85.88,2.45,0,0,.8,2.9-.74,3.24,0,0-1.79,1.85-5.93-.76.26-2.16-.7-3.58-.54-4.4A6.83,6.83,0,0,1,76.54,15.31Z" fill="#9e634c"/><path d="M83.91,18.44c-.23.91-.48,2-1.34,2.31-1,.35-3.84-.87-5.21-2.53a6.17,6.17,0,0,1-1.44-5.62,9.34,9.34,0,0,1,2.51-3.3,8.59,8.59,0,0,1,2.2-1.2c2.21-.92,4.13-.77,4.24,1.47A28.88,28.88,0,0,1,85,12.92,19.17,19.17,0,0,1,83.91,18.44Z" fill="#af6e51"/></g><path d="M85.43,8.53a4.59,4.59,0,0,0-.68-2.34,5.51,5.51,0,0,0-2.3-1.75,5,5,0,0,0-4.87.31c-2.84.44-4.09.86-4.53,3.77a18.81,18.81,0,0,0,.15,4.68,7.54,7.54,0,0,0,.72,2,6.52,6.52,0,0,0,1.24,1.7,3.91,3.91,0,0,0,.83.62c.14.08.3.2.47.15s.23-.3.2-.49a2.12,2.12,0,0,0-.14-.55c-.39-.78-.85-2-.08-2.68.6-.56,1.2-.09,1.49.37a.19.19,0,0,0,.35,0,10.35,10.35,0,0,1,.93-3.14,4.8,4.8,0,0,1,2-1.57,3.31,3.31,0,0,1,2.95-.17c.73.44.79,1.45.84,2.23A12.14,12.14,0,0,0,85.43,9,2.94,2.94,0,0,0,85.43,8.53Z" fill="#28211d"/></g><path d="M73.67,7.79c-.85,2.13-.69,3.59-.18,6C73.21,8.57,75,5.22,80,4,77.85,3.84,74.69,5.24,73.67,7.79Z" fill="#ffd252"/></g><g><g><polygon points="51.88 99.21 51.88 121.31 73.63 108.75 73.62 86.66 51.88 99.21" fill="#e6e2db"/><polygon points="20.53 80.98 20.53 103.08 51.88 121.31 51.88 99.21 20.53 80.98" fill="#c9c5ba"/></g><g><g><polygon points="51.88 98.8 51.88 99.75 74.33 86.78 74.33 85.84 51.88 98.8" fill="#71bbbc"/><polygon points="19.91 80.22 19.91 81.16 51.88 99.75 51.88 98.8 19.91 80.22" fill="#c9c5ba"/><polygon points="19.91 80.22 19.91 81.16 51.88 99.75 51.88 98.8 19.91 80.22" fill="#549fa3"/><path d="M74.33,85.84l-22.45,13-32-18.58,22.45-13Z" fill="#89ccce"/></g><path d="M63.34,85.24a12.78,12.78,0,0,0-4,.69,9.85,9.85,0,0,0-1.45.61L59,83l-26.7-6.41L29.12,74.9l-7.26,4.19L49.42,94.67a6.66,6.66,0,0,0,3.32.89h2.14a.31.31,0,0,0,.28-.19l1.05-3.07.45-1.49a6.61,6.61,0,0,0,2.9.68h2.35l1.16-3.24L64,85.32A3.75,3.75,0,0,0,63.34,85.24Z" fill="#549fa3" opacity="0.4" style="mix-blend-mode: multiply"/><g><g><g><g style="isolation: isolate"><path d="M40.41,69.79a.8.8,0,0,0-.83.08L35,72.51a2.51,2.51,0,0,0-1.15,2v.3a.81.81,0,0,0,.34.75L46.93,83a.81.81,0,0,1-.34-.75v-.3a2.56,2.56,0,0,1,1.16-2l4.57-2.64a.82.82,0,0,1,.83-.08Z" fill="#ece8e6"/><path d="M53.49,77.93c0-.74-.53-1-1.17-.66l-4.57,2.64a2.56,2.56,0,0,0-1.16,2v.3c0,.74.53,1,1.17.67l4.56-2.63a2.57,2.57,0,0,0,1.17-2Z" fill="#e6e3e0"/></g><path d="M52.44,79.21,47.67,82a.14.14,0,0,1-.13,0,.14.14,0,0,1-.07-.12v-.39a.44.44,0,0,1,.22-.39l4.89-2.82a.13.13,0,0,0,.05-.17.14.14,0,0,0-.18,0l-4.88,2.82a.71.71,0,0,0-.36.61v.39a.4.4,0,0,0,.2.34.45.45,0,0,0,.19,0,.46.46,0,0,0,.2,0l4.77-2.76a.13.13,0,0,0,0-.17A.14.14,0,0,0,52.44,79.21Z" fill="#d9d6d3"/></g><g><g style="isolation: isolate"><path d="M40.41,66.83a.82.82,0,0,0-.83.08L35,69.55a2.53,2.53,0,0,0-1.15,2v.3a.83.83,0,0,0,.34.75L46.93,80a.81.81,0,0,1-.34-.75V79a2.57,2.57,0,0,1,1.16-2l4.57-2.64a.85.85,0,0,1,.83-.08Z" fill="#f5f2ee"/><path d="M53.49,75c0-.74-.53-1-1.17-.67L47.75,77a2.57,2.57,0,0,0-1.16,2v.3c0,.74.53,1,1.17.67l4.56-2.64a2.55,2.55,0,0,0,1.17-2Z" fill="#e6e3e0"/></g><path d="M52.44,76.26,47.67,79a.12.12,0,0,1-.13,0,.12.12,0,0,1-.07-.11v-.39a.44.44,0,0,1,.22-.39l4.89-2.82a.14.14,0,0,0,.05-.18.13.13,0,0,0-.18,0L47.57,77.9a.7.7,0,0,0-.36.61v.39a.38.38,0,0,0,.2.33.34.34,0,0,0,.19,0,.35.35,0,0,0,.2,0l4.77-2.75a.14.14,0,0,0,0-.18A.13.13,0,0,0,52.44,76.26Z" fill="#d9d6d3"/></g></g><g><g><g style="isolation: isolate"><path d="M33.35,73.87a.82.82,0,0,0-.84.08L28,76.59a2.52,2.52,0,0,0-1.16,2v.3a.81.81,0,0,0,.34.75L39.87,87a.81.81,0,0,1-.34-.75V86a2.56,2.56,0,0,1,1.16-2l4.57-2.64a.82.82,0,0,1,.83-.08Z" fill="#ece8e6"/><path d="M46.42,82c0-.74-.53-1-1.17-.66L40.68,84a2.56,2.56,0,0,0-1.16,2v.3c0,.74.52,1,1.16.67l4.57-2.63a2.59,2.59,0,0,0,1.16-2Z" fill="#e6e3e0"/></g><path d="M45.38,83.29,40.6,86.05a.14.14,0,0,1-.13,0,.14.14,0,0,1-.07-.12v-.39a.45.45,0,0,1,.23-.39l4.88-2.82a.13.13,0,0,0,.05-.17.13.13,0,0,0-.17,0L40.5,84.93a.71.71,0,0,0-.35.61v.39a.39.39,0,0,0,.19.34.46.46,0,0,0,.2,0,.45.45,0,0,0,.19,0l4.77-2.76a.12.12,0,0,0,0-.17A.13.13,0,0,0,45.38,83.29Z" fill="#d9d6d3"/></g><g><g style="isolation: isolate"><path d="M33.35,70.91a.84.84,0,0,0-.84.08L28,73.63a2.54,2.54,0,0,0-1.16,2v.3a.83.83,0,0,0,.34.75l12.74,7.4a.82.82,0,0,1-.34-.75V83a2.57,2.57,0,0,1,1.16-2l4.57-2.64a.85.85,0,0,1,.83-.08Z" fill="#f5f2ee"/><path d="M46.42,79.06c0-.74-.53-1-1.17-.67L40.68,81a2.57,2.57,0,0,0-1.16,2v.3c0,.74.52,1,1.16.67l4.57-2.64a2.57,2.57,0,0,0,1.16-2Z" fill="#e6e3e0"/></g><path d="M45.38,80.34,40.6,83.09a.12.12,0,0,1-.13,0A.12.12,0,0,1,40.4,83v-.39a.45.45,0,0,1,.23-.39l4.88-2.82a.14.14,0,0,0,.05-.18.12.12,0,0,0-.17,0L40.5,82a.69.69,0,0,0-.35.61V83a.37.37,0,0,0,.19.33.35.35,0,0,0,.2,0,.34.34,0,0,0,.19,0l4.77-2.75a.13.13,0,0,0,0-.18A.12.12,0,0,0,45.38,80.34Z" fill="#d9d6d3"/></g></g></g><g><g><g><g style="isolation: isolate"><path d="M55.06,78.24a.87.87,0,0,0-.84.08L49.66,81a2.54,2.54,0,0,0-1.16,2v.3a.81.81,0,0,0,.34.75l12.74,7.4a.84.84,0,0,1-.35-.75v-.3a2.57,2.57,0,0,1,1.16-2L67,85.72a.85.85,0,0,1,.83-.08Z" fill="#ece8e6"/><path d="M68.13,86.39c0-.74-.53-1-1.17-.67l-4.57,2.64a2.57,2.57,0,0,0-1.16,2v.3c0,.74.53,1,1.17.67L67,88.7a2.57,2.57,0,0,0,1.16-2Z" fill="#e6e3e0"/></g><path d="M67.09,87.67l-4.78,2.75a.1.1,0,0,1-.13,0,.12.12,0,0,1-.07-.11v-.39a.45.45,0,0,1,.23-.39l4.88-2.82a.14.14,0,0,0,0-.18.12.12,0,0,0-.17,0l-4.89,2.82a.69.69,0,0,0-.35.61v.39a.37.37,0,0,0,.19.33.36.36,0,0,0,.2.06.35.35,0,0,0,.19-.06l4.77-2.75a.13.13,0,0,0,.05-.18A.12.12,0,0,0,67.09,87.67Z" fill="#d9d6d3"/></g><g><g style="isolation: isolate"><path d="M55.06,75.28a.85.85,0,0,0-.84.09L49.66,78a2.54,2.54,0,0,0-1.16,2v.3a.81.81,0,0,0,.34.75l12.74,7.4a.84.84,0,0,1-.35-.75v-.3a2.58,2.58,0,0,1,1.16-2L67,82.77a.8.8,0,0,1,.83-.08Z" fill="#f5f2ee"/><path d="M68.13,83.43c0-.74-.53-1-1.17-.66L62.39,85.4a2.58,2.58,0,0,0-1.16,2v.3c0,.74.53,1,1.17.67L67,85.74a2.57,2.57,0,0,0,1.16-2Z" fill="#e6e3e0"/></g><path d="M67.09,84.71l-4.78,2.76a.14.14,0,0,1-.13,0,.16.16,0,0,1-.07-.12V87a.45.45,0,0,1,.23-.39l4.88-2.82a.13.13,0,0,0,0-.17.11.11,0,0,0-.17,0l-4.89,2.82a.71.71,0,0,0-.35.61v.39a.39.39,0,0,0,.19.34.46.46,0,0,0,.2,0,.45.45,0,0,0,.19,0l4.77-2.76a.13.13,0,1,0-.12-.22Z" fill="#d9d6d3"/></g></g><g><g><g style="isolation: isolate"><path d="M48,82.32a.85.85,0,0,0-.83.08L42.59,85a2.57,2.57,0,0,0-1.16,2v.3a.81.81,0,0,0,.34.75l12.74,7.4a.81.81,0,0,1-.34-.75v-.3a2.54,2.54,0,0,1,1.16-2l4.56-2.64a.85.85,0,0,1,.83-.08Z" fill="#ece8e6"/><path d="M61.06,90.47c0-.74-.52-1-1.17-.67l-4.56,2.64a2.54,2.54,0,0,0-1.16,2v.3c0,.74.52,1,1.16.67l4.57-2.64a2.54,2.54,0,0,0,1.16-2Z" fill="#e6e3e0"/></g><path d="M60,91.75,55.25,94.5a.11.11,0,0,1-.14,0,.12.12,0,0,1-.07-.11V94a.45.45,0,0,1,.23-.39l4.89-2.82a.13.13,0,0,0,0-.18.12.12,0,0,0-.17,0l-4.89,2.82a.71.71,0,0,0-.35.61v.39a.37.37,0,0,0,.19.33.39.39,0,0,0,.2.06.33.33,0,0,0,.19-.06L60.15,92a.13.13,0,0,0,0-.18A.12.12,0,0,0,60,91.75Z" fill="#d9d6d3"/></g><g><g style="isolation: isolate"><path d="M48,79.36a.83.83,0,0,0-.83.09l-4.57,2.63a2.57,2.57,0,0,0-1.16,2v.3a.81.81,0,0,0,.34.75l12.74,7.4a.81.81,0,0,1-.34-.75v-.3a2.56,2.56,0,0,1,1.16-2l4.56-2.63a.8.8,0,0,1,.83-.08Z" fill="#f5f2ee"/><path d="M61.06,87.51c0-.74-.52-1-1.17-.66l-4.56,2.63a2.56,2.56,0,0,0-1.16,2v.3c0,.74.52,1,1.16.67l4.57-2.64a2.54,2.54,0,0,0,1.16-2Z" fill="#e6e3e0"/></g><path d="M60,88.79l-4.77,2.76a.16.16,0,0,1-.14,0,.16.16,0,0,1-.07-.12V91a.45.45,0,0,1,.23-.39l4.89-2.82a.12.12,0,0,0,0-.17.11.11,0,0,0-.17,0l-4.89,2.82a.73.73,0,0,0-.35.61v.39a.39.39,0,0,0,.19.34.49.49,0,0,0,.2,0,.41.41,0,0,0,.19,0L60.15,89a.13.13,0,0,0-.13-.22Z" fill="#d9d6d3"/></g></g></g></g></g></g></g></svg>